/* XPM */
static char *_a7441957b5e4b13cfa9b1d378dba4c50dW37Qiy22nMc3Fs[] = {
/* columns rows colors chars-per-pixel */
"64 64 20 1 ",
"  c #565656",
". c gray20",
"X c #989898",
"o c #313131",
"O c #373737",
"+ c #535353",
"@ c #3C3C3C",
"# c #909090",
"$ c gray4",
"% c #5D5D5D",
"& c #464646",
"* c #868686",
"= c #8B8B8B",
"- c #585858",
"; c #4E4E4E",
": c gray10",
"> c #6C6C6C",
", c gray39",
"< c #7E7E7E",
"1 c #A5A5A5",
/* pixels */
"<>>>;&&&&&&&&&&&&&&&,>>>X111111XO::o#111>>>,;&&&&&&&&&&&&&&;>>>>",
">   @ooooooooooooooO;  %=XXXXXX=:$$$<XX#%  +OooooooooooooooO+   ",
">   @o..............;  %=XXXXXX=:$$:<XX#%  +Oo.............O+   ",
">   @...OOOOOOOOOOO@+%-%#XXXXXX#:$$:<XX#,-- @OOOoooo.......O+   ",
">   +;;+<<<*<*<*<*<<*===XXXXXXX#@oo.*XXX====***<:$$:&;;;;;;;@@@@",
">    - %#XXXXXXXXXXXXXXXXXX#XXX=&..@*XXXXXXXXXX=:$$$;------+Oooo",
">      %=XXXXXXXXXXXXXXXXXXXXXX#&oo@*XXXXXXXXXX=:$$$+      +O...",
">   +++ *######################=&O@@<##########*:$$:+%%%-  +OOOO",
">  +o:::@&&&&&&&oo:o@&&&&&&&&&&;<**<;&&&%,,,,,,,;&&+*==*%   ++++",
">  +:$$$oooooooo$$$$oooooooooooO=XX#&oo.+  - -  -- ,#XX#%       ",
">  +:$$$o......o$$$$o.........o@*XX#&o.O+          %#XX#%       ",
">  -:$$:oO......:$$$oooo....OOO@*X##&..O;         +%=##=%+      ",
">  -<<<<-;;+;+;;&&&&:$$:&;;+<**<>,,,+;;;@@@@@@@@@@@@&&&&@@@@    ",
">  -=XXX,      ----+:$$$;- %=XX#,     -+Oo.........oooooo.oO+   ",
">  -=XX#,          +:$$$;- %=XX#,      +OooooooooooooooooooO+-  ",
">  -=XX#,%%% ++++++;:$$$& + *##=%+++++++@@@@@@@@@@@@@@@@@@@@;+++",
">  -=XXX#==*;OOOOOOOooooOOO@@&&@@OOOOOO@<******************<::::",
">  -=XXXXXX#&o.......oo.....ooooo.....o@=XXXXXXXXXXXXXXXXXX*:$$$",
">  %=XXXXXX#&o.........................@=XXXXXXXXXXXXXXXXXX*:$$$",
">++ <######=&OOOOOOO............OOOOoooO<########==========<:$$$",
";OOO@@@&-%%% +++++++O..........O;++;:$$: %%%%%%%&@&@&@&@::::;;;;",
"&o..o.o.+           @..........O+--+:$$$;    - +Oooooooo$$$$+---",
"&oooooo.+           @....ooooooO+  +:$$$;-     +Oooooo.o$$$$+-  ",
";@@@@@@@+   ----    @...@@@@@@@@+  +:$$:;-     +@@@@@@@O::::;+++",
"X*******%  -%,,%-   @..@<*******%   ;;;;       %<**********<::::",
"1XXXXXX#,  -%,,,-   @.o@*XXXXXX#,   ----       %#XXXXXXXXXX*:$$$",
"1XXXXXXX,  -,,,,-   @.o@*XXXXXX#,    ---       %#XXXXXXXXXX*:$$$",
"X######=,   %%%%++++@.o@<======*%+++;;;;+++++++-*=======###<:$$$",
">%%%%%%%-   @OOOOOOO....@@@@@@@@OOO.:$$:.OOOOOOO@@@@@@@&-%%%;;;;",
">           @o..........o......o...o$$$$o.......oo.o.ooO+    ---",
">          +@...oooo...............o$$$$o.oooooooooooooO+       ",
">   %%%%%%%%Oooo@@@@....OOOOOOOOOOO.::::O@@@@@@@@@@@@@@@-%%%%%%%",
">  -*######=o$$:<==*&o.O;++++++++++ <******************==#######",
">  -=XXXXXX#o$$:*XX#&o.O+-         %=XXXXXXXXXXXXXXXXXXXXXXXXXXX",
">  -=XXXXXX#o$$:*XX#&o.O+-       - %=XXXXXXXXXXXXXXXXXXXXXXXXXXX",
">  -<======*o$$:<==*&o.O;+++    ;;;+*#######============#XXX####",
">   &@@@@@@@oooo@@@@....OOOO+  +:$$:+%%%%%%-@@@@@@@@@@@&=XX#,%%%",
">   @ooooooo....oooo........;  +:$$$&      +Ooooooooooo@=XX=%   ",
">   @o..oooo.........oooooo.+--+:$$$;-     +Oooooooo..o@=XX=%   ",
">   @OOO@@@@........@@@@@@@@;++;:$$$&+++%%%-@@@@@@@@OO.@*##*%   ",
">   +++ <==*&o.....O<==*==*<&OO.$$$$oOO@<###=======<-+++%,%%-   ",
">      %=XX#&o.....O*XXXXXX#&o.o$$$$o.o@=XXXXXXXXXX#%           ",
"> --   %=XX#&o.....O*XXXXXX#&o.o$$$$o.o@=XXXXXXXXXX#%        ---",
",;;;   %*##=&OOO...O<######=&OO.::::@@@&*##########*,%%%%%%%;;;;",
"o$$:&-  %%%% +++O... %%%%%%%+++-<=====#*,%%%%%%%%%%,=######<:$$$",
":$$$&-         +O...;          %#XXXXXX#%         -%#XXXXXX*:$$$",
":$$$&-         +O...;-         %#XXXXXX#%          %#XXXXXX*:$$$",
"o$$:&+++++++++++O...;++++++++++-=XXXXXX#%++++++++++%*=====#<:$$$",
",;;;@OOOOOOOOOOO....OOOOOOOOOOO@=XXXXXX#&OOOOOOOOOOO@&@&@&@&;;;;",
"> - @o........................o@*XXXXXX#@o..........oooooooO+---",
">   @ooo....oooo..............o@=XXXXXX#&o..............oooO+   ",
">   &@&@....@&&@ooooOOOOOOOO..o@<======<@oooo...OOOOOOOO@&@&%%%%",
">  -<##*&o.O<##*:$$$& ++++++O...O@@@@@@O$$$$o..O;++++++-*#######",
">  -=XX#&o.O*XX#:$$$&-      O...oooooo.o$$$$o..O+-     %#XXXXXXX",
">  -=XX#&ooO*XX#:$$$&-      O..........o$$$$o.oO+      %#XXXXXXX",
">  -*##=&OO@<==*o$$$&+++++++O...OOOOOOO.::::O@@@+   +++-*===####",
">   %%%%++++&@@@oooo.OOOOOOO...O;++++++ <***===*%  +@OOO@@@&%%%%",
">           Oooo...............O+-     %#XXXXXX#%  +Oo..oooO+   ",
">           @.......oooooooo..oO+      %#XXXXXX#% -+O.....oO+   ",
",++++++++++;O...oooo@&&&&&&&@OO@+      %*##=***<-++;O...OOO@+   ",
";.OOOOOOOOOO...o$$$:<##=#=#=%+++        %%%-@OO@OOOO...O;+++    ",
"&o..............$$$$<XXXXXX#,              +Oo.........O+-      ",
"&ooooooooooooooo$$$$<XXXXXX#,              +Ooooooooooo.+       ",
"%&&&&&&&&&&&&&&&o::o#1111111<>>>>>>>>>>>>>>,;&&&&&&&&&&;,>>>>>>>"
};
