/* XPM */
static char *_91aaa5d154548debd0b0766a3c56cbcnL4JdfwYHb6Enpy9[] = {
/* columns rows colors chars-per-pixel */
"64 64 231 2 ",
"   c #5C3C2A",
".  c #563B2A",
"X  c #583D32",
"o  c #603D2D",
"O  c #57401E",
"+  c #574423",
"@  c #5A4524",
"#  c #5C432E",
"$  c #5A4B27",
"%  c #535324",
"&  c #5C5326",
"*  c #5B5E24",
"=  c #5C532D",
"-  c #565C28",
";  c #585D2A",
":  c #5E4333",
">  c #584B31",
",  c #5C5432",
"<  c #5B5B32",
"1  c #5A5A38",
"2  c #644025",
"3  c #64442C",
"4  c #69462C",
"5  c #644B2D",
"6  c #6C492E",
"7  c #724A2E",
"8  c #704729",
"9  c #63552C",
"0  c #625C2E",
"q  c #6A542E",
"w  c #74532F",
"e  c #654632",
"r  c #6A4634",
"t  c #654933",
"y  c #6C4B33",
"u  c #6B4E39",
"i  c #67483B",
"p  c #724D33",
"a  c #734D39",
"s  c #774C36",
"d  c #625333",
"f  c #615935",
"g  c #65533C",
"h  c #6C523B",
"j  c #635D3B",
"k  c #6A5637",
"l  c #755136",
"z  c #7A5535",
"x  c #7D5937",
"c  c #75543B",
"v  c #7B563B",
"b  c #76593C",
"n  c #7D593C",
"m  c #5C632C",
"M  c #566225",
"N  c #5D6232",
"B  c #597F34",
"V  c #686933",
"C  c #666136",
"Z  c #64642E",
"A  c #724B40",
"S  c #675141",
"D  c #695947",
"F  c #745642",
"G  c #7C5541",
"H  c #745A43",
"J  c #7D5B42",
"K  c #7B5C49",
"L  c #745D4B",
"P  c #645C53",
"I  c #6A5D56",
"U  c #674E47",
"Y  c #7D614D",
"T  c #646254",
"R  c #6E625B",
"E  c #7C6453",
"W  c #73665A",
"Q  c #756555",
"!  c #746861",
"~  c #815637",
"^  c #835937",
"/  c #81563B",
"(  c #835B3C",
")  c #8A5D3C",
"_  c #8B5B37",
"`  c #86623E",
"'  c #8B623D",
"]  c #8D6736",
"[  c #93633F",
"{  c #835D42",
"}  c #8A5F43",
"|  c #825C4A",
" . c #845746",
".. c #856144",
"X. c #8C6345",
"o. c #8F6946",
"O. c #83644B",
"+. c #8C6549",
"@. c #8E694C",
"#. c #926545",
"$. c #946A46",
"%. c #996C46",
"&. c #92664A",
"*. c #936A4B",
"=. c #9A6D4B",
"-. c #996442",
";. c #9D714D",
":. c #97704F",
">. c #876750",
",. c #8C6B52",
"<. c #896D58",
"1. c #946C51",
"2. c #9A6E52",
"3. c #947054",
"4. c #9D7252",
"5. c #9A755A",
"6. c #9A7658",
"7. c #A06F4A",
"8. c #A2724C",
"9. c #AA774F",
"0. c #AD784E",
"q. c #A47554",
"w. c #AA7654",
"e. c #A57955",
"r. c #AC7B54",
"t. c #A37758",
"y. c #A67A59",
"u. c #AB7C5A",
"i. c #B17C55",
"p. c #B27F5A",
"a. c #B47A56",
"s. c #857365",
"d. c #8A7465",
"f. c #85756A",
"g. c #8D7A6B",
"h. c #897C73",
"j. c #867C73",
"k. c #56962D",
"l. c #5B942E",
"z. c #59992F",
"x. c #57992F",
"c. c #5D8B30",
"v. c #569631",
"b. c #5A9632",
"n. c #569931",
"m. c #5B9B34",
"M. c #5E953D",
"N. c #5D9E39",
"B. c #64862D",
"V. c #618B3C",
"C. c #678539",
"Z. c #649D36",
"A. c #64973C",
"S. c #639D3A",
"D. c #6B9D3C",
"F. c #6E9F34",
"G. c #759A3E",
"H. c #6D9634",
"J. c #5DA336",
"K. c #5EA138",
"L. c #5FA938",
"P. c #62A336",
"I. c #63A43B",
"U. c #6AA43E",
"Y. c #66AA3D",
"T. c #69AD3E",
"R. c #69AA3D",
"E. c #70A83D",
"W. c #68A935",
"Q. c #5D9240",
"!. c #648B41",
"~. c #6D8B44",
"^. c #669442",
"/. c #6A9A43",
"(. c #749947",
"). c #7E9C55",
"_. c #769F52",
"`. c #718B41",
"'. c #66A541",
"]. c #6CA441",
"[. c #66A940",
"{. c #66AA42",
"}. c #69AA41",
"|. c #69AD40",
" X c #6AAE41",
".X c #6CAE41",
"XX c #6BAD44",
"oX c #6CAB42",
"OX c #6DA649",
"+X c #71A544",
"@X c #71AD46",
"#X c #78A747",
"$X c #6BB041",
"%X c #6DB142",
"&X c #6DB142",
"*X c #6EB145",
"=X c #6FB345",
"-X c #71B546",
";X c #73B444",
":X c #73B947",
">X c #72B648",
",X c #75B34B",
"<X c #79B54E",
"1X c #75BA49",
"2X c #76B84E",
"3X c #79BA4E",
"4X c #79B345",
"5X c #7EAB58",
"6X c #7CB352",
"7X c #7BB951",
"8X c #819D4D",
"9X c #809957",
"0X c #B3825B",
"qX c #B78057",
"wX c #87A857",
"eX c #84B554",
"rX c #8AB254",
"tX c #86B956",
"yX c #8DBE54",
"uX c #85BC5A",
"iX c #8CBE5B",
"pX c #92BC59",
"aX c #8DAE55",
"sX c #85BE63",
"dX c #8ABD64",
"fX c #94B064",
"gX c #8BC35D",
"hX c #85C15D",
"jX c #92C05E",
"kX c #8DC360",
"lX c #8AC961",
/* pixels */
"R.R.I.I. X.X&X&X*X*X&X-XT.Y.&XY. XY.T.Y.%X%X-X-X-X&X&X&XT.R.&XR.Y.R.I.I. X X&X-X*X-X&X-X&XY.&XY. XY.T.Y.T.T.-X-X-X&X&X&XT.T.&XT.",
"T.Y.I.Y. X X&X&X>X*X&X&XR.T.&X X XY. XY.T.%X-X-X-X*X&X&XT.T..X.XY.Y.I.Y. X X*X&X>X-X&X&XT.T.&X&X}.Y. XT.&X&X-X;X=X=X&X&XT.T.&X X",
" XT.T.XX X X-X&X X X-X1X-X&X XY.m.m.Y.Y.Y.Y.%XY.:X:X-X&X&XT.Y.Y. X XY.XX X X-X&X X X-X1X-X*XT.T.m.m.Y.[.Y.Y.&XY.:X1X-X&X&XT.Y.Y.",
" X XXX*XY.Y.-X-X XT.1X1X-X-X&X&Xm.m. XXXY.Y.*X X:X1X1X:X1X>X}.}. X XXX*X[.T.>X-X X X1X1X-X-X&X&Xm.m.}.XXI.I.*X X:X1X1X:X1X>X[.[.",
"I.I.I.I.m.m. X.Xm.K.*X-XT.T.Y.Y.m.b.I.I.m.m. X%X-X-X1X-X>X&Xm.m.P.I.I.I.m.m. X.XK.P.*X*XT. XY. Xb.b.'.I.m.m. X X-X-X1X-X>X&Xm.m.",
"I.I.I.I.m.m.}..Xm.K.*X>X&X X X}.m.m.I.P.m.m. X*X>X-X3X1X>XXXm.m.P.I.I.I.m.m.}..Xm.P.*X>X*X X X Xm.m.I.I.m.m. X%X>X-X3X1X>XXXm.m.",
"b.m.b.m.b.b.m.m.m.m.m.m.n.m.Y.[.v.v.m.m.b.b.P.I.m.m.Y.I.P.P.b.N.b.m.b.m.b.b.m.m.m.m.m.m.b.m.I.[.n.x.m.b.b.n.I.I.m.m.Y.Y.P.P.m.N.",
"b.m.b.b.N.m.m.b.S.N.b.m.b.m.[.[.m.b.b.x.m.m.P.I.m.b.Y.I.b.m.b.N.b.m.b.b.S.m.m.z.N.S.b.m.b.m.[.[.m.n.m.v.m.m.P.P.m.n.Y.I.b.m.n.N.",
"m.P.x.n.m.m.m.m.m.m.P.I.Y.I.m.n.P.P.m.m.m.m.m.m.b.b.b.m.m.N.N.N.N.I.v.n.m.m.N.N.m.m.P.I.Y.Y.N.m.P.N.m.m.m.m.m.m.m.b.b.m.m.N.N.m.",
"Z.P.b.n.m.m.K.I.N.m.I.I.I.I.m.m.m.m.m.m.m.m.b.b.v.v.b.m.m.m.m.m.S.I.b.n.m.m.K.I.N.m.P.I.Y.I.m.m.P.K.m.m.m.b.b.k.v.b.b.m.m.m.m.m.",
"m.m.m.m.[.}.m.b.b.b.K.I.I.I.K.N.I.I.m.b.b.b.b.m.N.m.m.m.m.m.m.N.m.m.m.m.[.}.m.m.b.b.K.I.I.I.K.N.I.P.m.m.b.m.m.m.N.N.m.m.m.m.m.S.",
"P.m.m.m.}.XXm.m.b.b.P.P.P.I.m.m.K.K.b.l.l.b.b.m.m.m.m.m.m.m.m.m.P.m.m.m.}.XXm.m.b.b.P.I.I.I.m.m.P.m.m.l.l.b.m.m.m.m.m.m.m.m.m.m.",
"I.R.}.I.I.P.x.z.R.}.,X,X,X<X,X,XY.}.].U.U.U.S.S.I.}.,X7X<X,X@XXXI.R.}.I.I.P.x.b.I.}.,X,X<X<X,X,X}.}.].U.U.U.S.m.I.}.,X7X<X,X@XXX",
"I.}.}.I.Y.P.z.z.R.oX,X,X,X<X,X,XoXoX].R.R.I.P.P.XX,X<X7X7X,X,XXXI.}.}.I.Y.P.z.z.}.oX,X,X,X,X,X,X}.].].R.R.R.I.I.XX,X,X7X7X,X,XXX",
"I.P.x.x.I..X@X,X,X,X3X,X@XoXR.}.].].U.U.}.@X,X7X<X,X,X@XoX}.}.}.I.P.x.x.I..X@X,X,X,X3X,XXXoXR.}.].U.U.U.}.XX,X<X2X,X,X@X@XoX}.[.",
"P.P.k.z.I..X,X,X,X,X,X@XoX}.R.oXD.D.U.I.}.*X,X3X7X<X@XoX}.R.Y.Y.P.P.x.b.I..X,X,X,X,X,X-XoXR.R.oXD.Z.P.P.[.*X<X7X7X,X@XoX].R.Y.Y.",
"{.'.U.U.I.[.,X<XoX@XtXuX6X6X#X(.j C /.F.J.J.P.oXsXpXhXsXeX,XU.Z.[.I.U.U.P.}.,X6XoX@XtXuX6X<X#XG.j Z A.D.J.J.Z.}.sXpXiXuX<X,X].F.",
"Y.R.P.I././.<X4XOX+XeXyXeX6X5X_.< - M.D.A.A.U.'.gXyXkXkX4X=X/.A.Y.Y.L.Y.].(.<X4XOXOXeXiXeX6X5X_.< - M.U.A.A.].I.iXyXlXkX4X,X/.N.",
"l.l.v.M.- ; ).#XC V fXrX+XR.Z.D.= 9 /.`.m * (.@X6XuXdXfXpXaXC < c.b.n.Q.- m ).#XC V fXrXE.R.Z.D.$ 9 /.G.m * G.@X<XhXdXfXiXwXC < ",
"B.B.b.V.& f 9X8XC m wXwX+XU.P.Z., = !.!.f < OX.XeXtXgXjXrXwX0 , C.B.b.V.& 9 9X8XC N wXwX+X].D.A.= , !.C.1 < ].XX6XtXgXjXeXwX0 , ",
"> 5 % = a A j k P P D g f - (.^.t 3 = = : $ V.B.N m /.(.0 k u u > 5 % = s A D k T P D k 0 M (.^.5 e & & : $ c.B.N M /.(.0 b a u ",
"t 4 @ @ l c d 5 R I S i 9 * H.D.= e @ + > = B C.1 - ^.~.f g l w 5 4 @ @ s b d i I I U i d * `.D.= i @ + > = B C.1 - !.~.d h l l ",
"{  .r r a v | | H c O...4.4.l q ` | s s u y % $   o = , P I F G  . .r r s v | | b c ..X.4.4.w q ..{ v s u y % $ # o 5 d P T c G ",
"] ..# : n / X...G n #.-.w.q.y g ] ..n v u s + X + . : e P T J  .' ..# # v ~ ' ..G n #.-.w.q.y g ' ` n G q s # : O . # : T T G K ",
"{ v b z q.q.~ v t t @.+.*.*.n n X.X.4 r e t # 3 a c l c i i F b n n c ~ w.q./ b e e @.+.*.*.v n X.X.6 e e e e # l c c F i i b b ",
"/ J n ..e.q.) x 4 8 ' $.%.&...K @...4 3 y 4 4 2 v l v v p p l z / v { ( q.w.^ n 4 8 ' $.=.&.{ K @...4 3 4 4 4 2 v z n v p p s c ",
"X...v / =.7.4.4.F v / / { O.d.f.K J c v 4.4.y.8./ / q.y.q.4.{ x } ..b n ;.%.q.4.J v / / { Y d.f.| J s n 4.q.w.q.n / q.y.q.4.{ n ",
"&.X.( / $.%.e.y.K J / / { Y g.h.K J v ( 4.e.p.w.J / u.0Xu.y.( x #.@.n ( *.$.y.y.J n / / { Y g.h.| | v ( q.e.u.w.J ( u.0Xr.e.( x ",
"v / X.X.*.#.) / z ^ 8.9.r.q.4.3.*.+.x z ( ' $.#.p p *.=.%.=.v v v v @.X.*.$.~ x x ^ 8.9.r.q.6.3.1.@.v z ` ` #.#.y y *.%.%.=.x v ",
"x n +.X.*.o.( ^ v ( e.r.0Xu.=.*.*.&./ n z n X.@.y p &.=.*.*.J n b n +.X.*.#.( x n ( e.r.0Xu.=.$.*.&.( z v v +.@.y p &.=.*.*.J n ",
"v v y 6 v x ..+.H b ..{ *.*.{ ..X.X.v l 6 6 v x ....&.X.{ / n v b n 6 p v z X...H b ..{ *.*.( ..X...n c 4 4 c n ....&.&.( / n v ",
"n n 4 4 b v +.+.( x n n *.@.x x X.+.v u 3 3 c x X.&.#.X./ v { / { n r 4 b v X.&.( x n v *.@.x x &.+.v c   3 v x X.&.X.X./ z { J ",
"0.e.J n #.#.^ n X.+.t t v x n n r y 3 e c c z z J { n v J n q.i.r.e.J n X.[ ^ n o.O.t t v x n c 4 t 3 e c l l v J { n v n / q.i.",
"0Xt.Y H ..X.( { #.+.y 4 / ^ / z 4 3 4 6 p v l v ( ^ ( ..v / e.r.0X6.Y K O.X.( J X...t 4 / ^ / v 3 2 4 6 l v v n / / ( ..v / e.r.",
";.5.g.s.Y J v n #.+.n / q.w.u.q.v ( 4.4.&.+.p y q.q.q.4.7 7 &.=.;.5.g.s.Y J v n #.&.n / q.w.u.q.J { 4.4.*.X.p 6 q.8.e.4.6 6 &.=.",
";.3.d.f.L F { / +.X./ ( u.u.p.i.( #.q.q.=.+.u i u.r.u.e.7 y { X.;.3.d.s.L F { ( +.+.( ( u.u.u.r./ X.;.q.=.+.h g u.r.u.y.7 y { X.",
"#.+.Y E i y X.X.J n x x =.=.8.7.t.q.[ #.&.,.Q W *.=.*.*.l h i y ' +.O.E u y ..' n n v x ;.=.8.8.u.w.-.[ &.,.Q R *.=.*.1.l l y y ",
"X.X.{ n 6 7 X.*.l l / ^ &.&.;.8.u.u.#.#.X.O.Q W *.2.&.*.J F e t X.X.{ { 6 7 X.*.l l / ( &.&.;.;.r.u.[ #.+.<.Q ! *.*.&.*.J F e 4 ",
"{ X.8.u.u.q./ p t p ( X.{ { @.*.%.;.q.q.....H H c n / / l c l v { X.8.u.u.4./ l u p ( X.{ { +.$.%.8.q.e...{ F H b n / ( p c a c ",
"{ X.r.i.p.u.v c e y } &.n J +.&.;.%.r.y.~ { v v v v ~ / l v v z K X.i.a.p.u.v c e y X.+.n J +.*.;.=.u.u.~ / v n b v / ( z v v z ",
"w.q.;.;.;.;./ n ' ( n v n J b H J { *.*.@.+.v v i p 6.2.p y l J 8.q.;.4.;.;./ n ( ..n n n n K L J { *.*.&.+.z v y p 4.1.p t b J ",
"w.y.4.=.;.=.v { X.+.n l ( n c J z z *.*.+...}  .p p 4.4.p 6 v { q.u.4.*.;.=.x J X.X.v l { { c K z z @.*.+.} { / 6 p 4.4.l 6 n n ",
") ( 1.4.$.*.+.@.x n 6 p 4.4.( v 4 3 G v p l 4.q.u.4.' ( ....x x ( ) *.=.$.=.X.+.{ n y 7 4.4./ J 4 4 J v p 7 4.q.u.q.) / ..{ n x ",
"( v +.&.#.=.&.*.v l 6 s q.q.( v r r c h t p 4.u.y.y.) n @.O.n / ( x @.&.#.=.&.@.v c p z q.e.^ x r i c c t p 4.r.q.y.) / ,...n x ",
"/ { n ( q.q.~ v 4 6 +.X.=.*.x J ' ..y t e o y 4 v v v v t e b n v { { ( t.q.~ v 4 y { X.=.*./ c ....t t e o y 4 z v v v t e v v ",
"v n v ( t.q.) ~ 4 4 @.+.#.@.O.Y &.+.4 3 y y 4 4 v s / n p a c c v n v / y.q.) / 4 6 +.&.&.X.O.Y @.@.4 3 y t 4 4 v v ~ v y p b v ",
"*...{ { $.=.q.;.{ c n v { O.d.s.| | c n 4.q.e.e.J { q.q.t.6.n { +...{ ( $.=.q.;.J c { x ..O.d.f.K | c n 4.q.e.e.v { q.u.y.6.n n ",
"X...J ( *.%.e.q.v n J n O.Y g.j.{ n z ~ w.a.i.9.J x r.i.r.u.( ~ X.+.n n $.%.r.q.v v { n ..O.g.h.K n v ~ w.w.i.w.J x r.i.r.e.( x ",
"J { X.X.*.@.` n n x u.w.a.i.=.1.@.@.( z ..( &.*.u y 2.$.;.$.x n n / X.X.=.+.{ / { v u.r.i.r.=.1.@.@.{ v ..( #.*.u i 1.$.8.%./ n ",
"b J ..X.*.+.../ x x q.w.p.u.*.@.*.@.x v c n +...6 p *.=.=.o.v b n { ..X.*.X.} / n / t.y.p.u.=.1.*.+.n v v n +...6 p *.=.=.$.v c ",
"b l 4 4 v / +.+.( n { { &.#.....#.X.v b 3 4 J J X.X.&.X.x n n { J c 4 4 z / X.X./ n { { &.#.{ { #.X.v b 3 4 n n X...&.X./ / n J ",
"( { 6 4 v ~ X.&.x { b J ,.@.n v X.X.c h 3 3 c n X.X.&.@.J v { / ( { 6 4 v ~ X.&.x n c J ,.+.n z X.+.c h 3 3 c n X.X.@.@.J v { / ",
"w.t.n n @.X.( x &.+.4 4 v n v x 4 4 4 e b c z l n v v n c n y.r.9.q.n n @.+.{ / &.+.4 4 v x x x 4 4 3 4 c l l l n x v n c n y.r.",
"p.u.O.K @.X.( x &.+.4 4 { / ^ / e 4 4 4 v v z x { / ( ..v n u.i.qXu.O.K O.+.n v #.+.6 4 { / / / e 4 4 4 v v l v { ( ) X.c n u.i.",
"=.5.g.d.J n / { &.@.n / y.u.u.q.J { 4.4.=.X.y u y.e.e.4.p p #.#.%.5.d.d.K v n { X.@.v / y.e.u.q.J { 4.4.=...t i t.e.r.4.p y X.#.",
"4.<.g.h.H v { n &.X.~ ^ u.r.p.u...) q.w.$.@.h g u.r.r.e.7 y ..&.4.<.h.h.D n ( n +.+./ ^ u.i.p.u...) q.w.$.+.u S e.r.i.u.6 i ..#.",
"X.X.| K t 4 @.X.n v ~ ~ *.:.;.;.r.u.X.{ 1.>.E W *.4.%.$.v c 3 t X.@.J K r 4 *.X.n z x / *.*.;.;.r.u.X.} *.>.E ! *.4.$.*.v l t 4 ",
"+.....{ p s ..+.F c x / o.*.;.;.r.q.*.&.+.@.E W @.&.$.*.v l i 4 X.X...{ p p ..@.b c x ( &.*.;.8.r.q.*.&.+.@.E W 1.&.$.*.v l y 3 ",
"{ } e.r.e.4./ c 3 y ....( ~ #.%.=.;.q.q.) / H D v { / / c l l c { } e.e.e.6.n c 3 y ....( ~ #.=.%.;.q.q.) { H D v n / / l c l c ",
") #.w.r.0Xy.x c 6 p { ..( / +.+.=.4.u.u.) / c H c c / / v v c v ^ X.r.r.0Xu.v c 6 p { ..( / +.+.;.4.u.u.) / c b c l / n v v c v ",
"e.q.8.%.q.=./ x ' ( { n v v K K z / #.=.#.X.n v y 6 6.3.6 y c v q.q.q.%.7.=.z n X.{ { n x n K K z / #.=.&.+.x z y p 4.4.y 6 v v ",
"e.e.q.=.2.*.( ( X.X.n l ( / v F c n +.&.+...( ^ l l 4.1.p p c ( e.q.4.=.q.2.( x X...n l ( / F H c x +.&.+...^ ^ s ~ 4.2.p y v / ",
"( ( &.*.*.*.X.X./ v t p q.q...H e 4 v c y l 4.r.t.4.' ) ..@.v v / X.*.*.*.&.#.+./ v t p q.q...F e 4 v c y l 4.w.q.q.) ( ..+.v v ",
"{ n *.*.X.&.&.1.v J i p q.8.^ n e 3 b c i y y.i.u.u._ ) { ..{ x { { $.$.$.*.*.&.v J i p q.8.) n e 3 b c t y y.i.u.u._ ) ..O.n x "
};
