/* XPM */
static char *_e81ecea5f384684d702b7cd95742fc47LO6mPzuQ9WPlWIG[] = {
/* columns rows colors chars-per-pixel */
"64 64 256 2 ",
"   c #B5756A",
".  c #A86C79",
"X  c #AD7477",
"o  c #B67979",
"O  c #B06C70",
"+  c #BC837B",
"@  c #B79579",
"#  c #BEA177",
"$  c #CA957C",
"%  c #C6967C",
"&  c #D2937D",
"*  c #C98B7C",
"=  c #C9A17D",
"-  c #F3CD7C",
";  c #7836FA",
":  c #6F6EF2",
">  c #7061E9",
",  c #99748C",
"<  c #AE798C",
"1  c #AC7388",
"2  c #B47B8C",
"3  c #BA7C8C",
"4  c #B57886",
"5  c #AC7896",
"6  c #B47C93",
"7  c #B47D9B",
"8  c #B77899",
"9  c #A9678D",
"0  c #BD5EB6",
"q  c #A977A7",
"w  c #B77AA6",
"e  c #AB76BB",
"r  c #B37CB6",
"t  c #B67BB8",
"y  c #B36DB3",
"u  c #9A69B7",
"i  c #CB7594",
"p  c #D356A5",
"a  c #E84DAB",
"s  c #C67BAB",
"d  c #C47BB9",
"f  c #D071B3",
"g  c #E671AC",
"h  c #EC5396",
"j  c #A038E9",
"k  c #B054D0",
"l  c #9971D3",
"z  c #A575C9",
"x  c #B67BC4",
"c  c #B978D6",
"v  c #AC6CD3",
"b  c #9472EF",
"n  c #AE73EC",
"m  c #9B54E7",
"M  c #CE73D0",
"N  c #EC7BCF",
"B  c #D774E8",
"V  c #D260D3",
"C  c #6E8CF0",
"Z  c #72A9E9",
"A  c #5C9BE8",
"S  c #74D1F5",
"D  c #BB8384",
"F  c #BB848B",
"G  c #BD8A8C",
"H  c #B88389",
"J  c #BA9987",
"K  c #AA879D",
"L  c #B58293",
"P  c #BB8393",
"I  c #BD8A94",
"U  c #BB839B",
"Y  c #BD8B9C",
"T  c #B5859A",
"R  c #BB9598",
"E  c #AC9291",
"W  c #9C94B6",
"Q  c #AA86A8",
"!  c #BC8CA3",
"~  c #B584AB",
"^  c #B888A9",
"/  c #BD93AC",
"(  c #B894A7",
")  c #A88ABA",
"_  c #BC8DB4",
"`  c #BD8DBC",
"'  c #B786B8",
"]  c #BE92B4",
"[  c #B592BA",
"{  c #BF90BD",
"}  c #B698B7",
"|  c #AB98B0",
" . c #B2A3AF",
".. c #C48C8C",
"X. c #C68A87",
"o. c #D58C86",
"O. c #C69485",
"+. c #CB9484",
"@. c #C5938C",
"#. c #CA948B",
"$. c #C99A89",
"%. c #D19383",
"&. c #D59589",
"*. c #C38D93",
"=. c #CB8C95",
"-. c #C38D9B",
";. c #C48696",
":. c #C59393",
">. c #CA9493",
",. c #C5939B",
"<. c #CA949B",
"1. c #CA9A99",
"2. c #D5919B",
"3. c #EA9596",
"4. c #CBA596",
"5. c #F5AE8E",
"6. c #C48BA3",
"7. c #C88AAA",
"8. c #D58BA6",
"9. c #C493A2",
"0. c #CA94A2",
"q. c #C896AA",
"w. c #D596A7",
"e. c #C28DB3",
"r. c #C28CBC",
"t. c #C989B8",
"y. c #D585B9",
"u. c #C392B5",
"i. c #C192BD",
"p. c #C995B7",
"a. c #D998BB",
"s. c #EF86B2",
"d. c #CFABB2",
"f. c #EDACB6",
"g. c #DED9B2",
"h. c #9C87D9",
"j. c #968CD2",
"k. c #A887C7",
"l. c #BC8DC3",
"z. c #B988C8",
"x. c #BC93C2",
"c. c #B695C5",
"v. c #A686D7",
"b. c #B78AD8",
"n. c #A896D7",
"m. c #B498D1",
"M. c #92AFD2",
"N. c #A8A7D6",
"B. c #B4B3D3",
"V. c #9C8CE6",
"C. c #9798E8",
"Z. c #9998F8",
"A. c #918FF2",
"S. c #A887E7",
"D. c #B586E7",
"F. c #A996E8",
"G. c #B596EA",
"H. c #A88AF6",
"J. c #AB97F6",
"K. c #B798F9",
"L. c #B182F8",
"P. c #95B5F8",
"I. c #8FAEF0",
"U. c #A7AAE9",
"Y. c #A6AAF9",
"T. c #B8A8F8",
"R. c #A8B9F9",
"E. c #B8B8F8",
"W. c #B1B1EA",
"Q. c #C38EC2",
"!. c #C587C9",
"~. c #C292C1",
"^. c #C895C7",
"/. c #D997C8",
"(. c #D698D7",
"). c #CD8CD4",
"_. c #EE91D1",
"`. c #D8A9DA",
"'. c #D2AED2",
"]. c #E6A9DA",
"[. c #E9B7DD",
"{. c #F3B1CD",
"}. c #C69AE7",
"|. c #D595E9",
" X c #CB91F0",
".X c #E696E7",
"XX c #F094EE",
"oX c #C7A6E8",
"OX c #D6A7E6",
"+X c #D4B9E9",
"@X c #C9A5F9",
"#X c #C7B7F9",
"$X c #D9B6FA",
"%X c #CEB2ED",
"&X c #E3A8E9",
"*X c #F8ABEB",
"=X c #E7BAE8",
"-X c #F9B9E9",
";X c #EDB1F6",
":X c #9AD7D2",
">X c #B3D1CF",
",X c #B2E8D8",
"<X c #94CCF3",
"1X c #B9C7E7",
"2X c #A8C7F7",
"3X c #B8C8F8",
"4X c #A7D3F8",
"5X c #BAD7F9",
"6X c #AED3E7",
"7X c #95E4F1",
"8X c #B3EFF1",
"9X c #9DECD6",
"0X c #CBCCD6",
"qX c #F8C6D7",
"wX c #EECED5",
"eX c #D1F4D2",
"rX c #ECECD8",
"tX c #D8C9E8",
"yX c #C9C7F9",
"uX c #D7C8F8",
"iX c #C8D7FB",
"pX c #D7D8FB",
"aX c #CED0EA",
"sX c #E8C6E9",
"dX c #F6C6E6",
"fX c #EAD7E7",
"gX c #F5D7E7",
"hX c #E7C9FC",
"jX c #F7C6F8",
"kX c #E6D9F9",
"lX c #F6D9FA",
"zX c #C8E8F8",
"xX c #D7E6F9",
"cX c #C9F6F9",
"vX c #D6F6F7",
"bX c #CFF0EA",
"nX c #E4E7E7",
"mX c #FAE7EA",
"MX c #E9F9EA",
"NX c #FDFBED",
"BX c #F8F7E8",
"VX c #E8E8F8",
"CX c #FEE4FD",
"ZX c #F4EBFE",
"AX c #F8E7F9",
"SX c #ECFCF4",
"DX c #ECF5FD",
"FX c #E7F7F9",
"GX c #F3F3F4",
"HX c #FDF3F4",
"JX c #FCFDF4",
"KX c #F3F4FD",
"LX c #FDF4FD",
"PX c #F5FDFD",
"IX c #FDFCFD",
"UX c #F4FCF3",
/* pixels */
"{ { { { { { { { x.` l.[ e.r.z.i.~.~.~.{ ` ` ` ` { { { { { { { { { { { { { { { { ` ` ` ` { { { i.{ r.x.r.r.{ r.u.{ ` ` ~.` ` ` i.",
"{ { { { { { { { x.r.{ { r.i.~.` ` ` { i.i.i.~.~.{ { { { { { { { { { { { { { { { ~.i.i.{ { { { { ` Q.x.r.~.x.t.u.` ` ` ` ~.` ` u.",
"{ { { { { { { { _ r.` { ` ` { Q.` { { { ` ` { { { { { { { { { { { { { { { { { { { ` ` ` { i.i.i.i.r.' ~.~.' r.i.` ` ` l.~.{ { { ",
"{ { { { { { { { ` u._ ' ~.{ ' ` { { { { i.` ` ` { { { { { { { { { { { { { { { { i.r.` ` { i.{ ` ~.' { ~.` ` Q.Q.i.{ ` { ~.~.` ` ",
"{ { { { { { { { l.x.i.` z.{ / Q.` { i.~.~.~.~.~.{ { { { { { { { { { { { ` ` { { ~.i.~.~.~.~.{ ` r.` ^.` ` ^.Q.l.~.~.i.{ { x.~.` ",
"{ { { { { { { { } v.!.q.' z.u.~.{ { i.i.Q.` ` ` { { { { { { { { { { { { ` { { { ` ` ` ` ~.~.~.{ r.x.~.' ~.Q.) z.~.~.~.{ ` { ~.` ",
"{ { { { { { { { N.G.z.e.i.x.^._ { i.i.` ` ' ' r { { { { { { { { { { { { { { { { t t ' ` r.~.~.{ Q.' r.` ^.t.^.m.l.l.~.i.` ` { { ",
"{ { { { { { { { A.VX=X).] ! ).l.{ ` { ` ' ' r r { { { { { { { { { { { { { { { { t t ' ` ` ~.` ` r.[ Q.r.r./.lXoX' l.~.~.` ` { { ",
"{ ` ` ~.x.{ u.!.M f.LX].d Q.~.c._ !.p.x f p.y r t.i.] [ [ x.^.Q.l.` r.r.r.~.x.[ q 5 !.M ~ u.p.!.Q.) ^.z.^.rXgXB ).,._ l.^.` l.] ",
"{ ` ` ` l.{ e.z.XX[.dXVX#XV.!.9.} l.r ~ [ ) r q ` { _ r.x.c.{ r.{ u._ ` r.~.` ` x q z.( ' ' c.c.^.[ d .XhXKX{.].D.e.` l.~.{ l.` ",
"{ ` u.` l.u.u.!.*XrX_.jXVXE.S.x _ ` ' r.' y d Q ' [ ` t.~.[ _ _ ] ] _ ` ~.~.r.` w q z ' z.~ _ ( ~ )._.fXLX_.-XpXn { ~.` _ ] ~.` ",
"{ { u.u.l.u.u.!._.mXjX=X=XVXuXK.v v ) d t ^ d q ' } { t.Q.{ _ ] ] ] { ` ~.i.r.e.q ~ y ~ ' t.d 0 x ;XkXgX{.qXmXT.n { ~.` _ u.~.` ",
"{ { u.u.` _ e.!.XXgXCXlX=XbXFXVXK.G.Z k.e ) ' q s [ } r.r.Q.r.[ u.i.~.{ ] u._ _ q e.e.r e k M XXhXnXpXjXdXmXAX#Xn / x.` ` ] ~.u.",
"{ _ ] u.` u.u.!..XgXlXvXGXvXDXMXGXxXS 2XG.n x e t._ } } ` Q.Q.[ ` { x.{ ] ] _ ` r z v.v.oXn $XAXLXvXkXfXPXlXZXE.c / { ` l._ i.] ",
"] _ ] ] x.i.u.z.B $XiXbXKXMXHXSXUXSX1XxXkX#X}.v m.' u.} _ t.{ { _ ` ` e.u.u.x.c.z b #XuXZX#XVXIXIXGXFXNXDXVX0XZ.c ( { { ` _ { ] ",
"{ { ] _ ` ] _ e b tX*X*XZXIXGXJXPXPX=XVXKXIXVX2XP.z.t.} _ u.} u.] { r.e.u.] x.b.J.yXLXJXPXiXVXIXSXJXLXrXcXE.yXT.n / { ] ] ] i._ ",
"] u.t.R } Q.' q C.cXwX{.-XjXpXMXHXPXnXY.VXPXLXSXaXh.p.{ c.e.( ~.'.^ i.e.e.u.c.H.xXIXSXGXzXiXDXPXPXMXuXyX8XaXvX6Xv ! u.] / t.t.[ ",
"[ z.u.Q.{ b.u ' j.P.bXnXVX-XgXlXJXPXLX XAXUXKXJXuXv ^ ( q.7.' '.sX! r.6.] ^ ~  XUXLXJXHX3XpXIXJXSXFXsXuXDXeX>XS.x q z.b.( } ! e.",
"( ,.} i.M }.v.S.c m P.:X5XkXbXkXtXpXFX#XFXLXIXGXuXb ~ / a.a.'.wXqXd.d.^.p.t x |.UXGXPXZX5XbXrXeXnXxXfXcX,XB.j.b k.j.T.H.u.).t._ ",
"] =.k.( M @X5X3X&X).H.N.U.E.}.|.`.oXW.6X<XiXIXJXiXb w ! '.'.'.z.!.(.d.[.w.w v G.KXIXDXU.P.6X>X:X2XU.U.8X,X}.Z.Y.E.#XT.S.7.d p.^ ",
"r t.' | c.J.3XzXxX0XsXfXiXT.B -XdX=X&X+XU.4XbXHXxXM.s 7 wX'.m.G.G.K.q.{.q.5 z K.LXVXuXV.Y.E.E.3XE.<XP.3XxXkXiXxXiX=X).S.x.! Q Q ",
"~ K 7.} :X2XyXuXI.R.lXnX#XE.L.hXLXmXCXAXVXcX3XVXGXI.M 7.{.b.+XhX#XaXF.^./.w c uXSX1X#XkXZXZXkXIXHX4X6XW.hXnX%XoX#XsX%XZ.b.e.q 7 ",
"~ , w { <X,XpXuXcXpXsXfX;XGXE.K.VXHXIXMXJXUXR.bXIXE.).f.a.G.wX`.K.iXY.) f.f.(.GXSX2XuXPXBXJXNXNX0XU.xXuX-XgXjXkXyXzX8XI.' w q ;.",
"5 ~ 5 ^ N.C P.5X8X8X$XwXkXxXiXJ.+XlXGXHXLXKX6XeXSXmX=XwXt.A.sX.X+X3XW.z wXdX{.LXVXR.uXPXLXGXBXpX`.+XcXVXqXqX;X+X#X4X7XI.6.q ) w ",
"_ ! 6 u.' ) aXvXGXVXSXFX0X+XhXGXT.K.tXsXZXHXU.,XbXDXW.`./.V.ZXkXaXmX@X~.[.|.fXkX+X6X6XLXgXsX'.I.vXGXzX8XxXmXVXZXvXzXN.) [ ! T / ",
"w 6.6 7 ' ) M.:XI.3XaX%XuXLXAXsXaXT.oXW.yXUX;XOXiXMXBXOX[.).V.zXCX;Xy.'.`.kXGXiX1X$XFXfX/.[.|.aXzXvXSXKX#XyX#X XF.n.) Q 7 w ^ Q ",
"9 7 5 8 s w Q W : @XmXIXPXkX#XpXZX%XKXJX'.lXCX`.B.iXbX5X0X+Xn W.wXk s.-X;XfXbX3X+XsXAX].=XUXhXhXLX7X8XAXJXBXfXD.m z ~ P 6 8 w q ",
"! , , , 5 i s w s C.5XkXdXgXKXSXFX}.ZXJXjX).gXmX;X/.R.R.7XF.f qXrXOXf s._.*XB.6XsXmXs.(.IXBX9XiXUXUXMX0XlXiX<Xk.Q w 5 8 8 9 9 6 ",
"q.T ^ ( K Q ^ ~ < W z v (.tXpXZXVX%XiXGXsX|.'.{.gXBXnXxXVX$XV sXNXlXOXZXdXsXZXVXqXw.f./.HXPX8X8XFXhXkXW.b b ) P ! T L Y 7.8 5 Y ",
"! q.7.6.( K K ~ e.' K ` !.r u n }.oXbXJXHX/.AX{.3.f.yXmXIX&Xf /.MXPXHXlXLXwXf.a.{.rXsXwXIXnX8X7XP.b b.} t.i P ^ r 7 I ,.! ~ 5 < ",
"9.9.8 3 6.7.6.6.6.K , ! <.,.q f l D.zXDXUXs.{.KXZXnXmXqX{.OXM M sXCXmX%X6XHXMXmXGXmXh.zXPXMX,XI.( 1 ;.L E 5 7.I 6.6./ ~ w w 2 o ",
"6 6 L T 8 U q.-.i 7 o 6.w ^ 5 G k.N.eXaXlX*Xf.g.BXFXhX3.5./.m g N fX_.T.U.].KXBXfX|.}.pXFX,X4Xb ..7 Q ( ! 8 5 U R 9.^ < F i . i ",
"2 1 6 6 L < 6 6 T ! 5 5 ^ 7 < ,.n.U.eXaX.X|.LX].B f ).f._.v p 0 g %XI.c  X|.v.z._.GXkXC.8X9X5Xh.Y 6 ^ w 1 U 6.6 2 < P L 6 6 1 < ",
"2 . 6 6.2 L Y < T ! 5 5 w 7 6 ,.} P.aX5XT.*XkXlXn {.f.M { y.h i W C Z ~.x K.E.H.=XVXuXZ.iX5X#Xn.9.< U ^ 6 6 6.U 6 2 2 < Y U < 1 ",
". 1 2 -.L 6 < 6 L Y 6 5 8 7 6 ,.Y I.3X>XyXXX5X4XG.8.8.M p.v p f.!.A c j.u.D.j.S 8X(.pXZ.%X;XG.l.9.6 U ^ 7 6 6.U 6 < L L q.6 1 3 ",
". 4 . L q.q.2 < L Y L 6 5 8 P ,.8.I.yX'.&X$XDX<XA.c _ 1.t.V v F.!.p z A.6.u.[ <XS CXZX X;XXXXXy.,.T 7 5 6 U 6.6 < L -.-.q.1 . F ",
". . 4 I 0.-.9.6 P ,.T L < < P ,.0.j.2XY. XVXJXuXB R R 9.8.M ; C : m m c q.q.I c.4XSXZX`.XX&XN y.,.Y 6 1 6 -.0.L < 9.9.-.9.P . . ",
"4 . X I ,.,.q.1 Y ,.Y P 2 1 I ,.q.k.I.B.iXHXIXCXb ] &.J w.h.m k s.e v W :.R ( n.5XBXIXmX.X].N / ,.Y 1 6 Y -.0.-.2 ,.,.,.,.P 4 . ",
"o F 3 *.<.-.-.P ,.,.,.-.P 1 -.,.,.l.b >XSXIXPXFXT.7.E ,.l.L.sXN 3.&.!.F./ 1.,.n xXBXSXIXxX.Xg  .<.-.1 U -.,.,.,.2 I :.0.,.2 F 4 ",
"o ..X F 0.,.P 2 ,.,.,.-.-.< 0.,.:.~ F.iXPXIXLXUX5Xm.8.$.j.T.rXi 5.5.c.A.8.-.9.H.VXJXIXGXvXT.d <.,.,.1 Y -.<.:.,.P I <.:.I 2 -.4 ",
"3 X o I :.<.3 F 1.:.,.,.L F ,.<.8.=.z.3XPXIXJXSXfXM 9.2.k.$XmX_.3.- e l p.7./ P.DXNXJXLXvXH.t.,.:.,.L F -.<.:.1.H 3 ,.1.-.2 1.2 ",
"4 o o I :.2.3 G <.:.,.,.H F <.,.@.q.) #XFXIXLXPXgXM I :.l.$XKX&Xp 5.f v ( <.W 2XIXMXUXJXuXS.( <.,.,.P F -.<.,.:.F 3 ,.:.;.F ,.6 ",
"X o X I @.<.4 I :.,.,.I H I <.:.J 9.e.|.MXIXIXIXZXF.I 4.d @XDX}.k g 5.d w.o.h.3XLXUXPXSXE.D.E ,.,.:.*.F -.<.1.:.*.4 <.:.;.;.:.P ",
"O o o I :.=.2 I *.1.*.H F :.<.:.@.R 8.y.fXUXJXZXxXZ.w 4.t @XIX.Xk y 5.f w.+.M sXnXUXIXAXJ.z.:.,.,.:.:.F F *.<.....3 :.:.;.F :.P ",
"O o o F 1.*.3 F *.<.G o *.<.:.,.=.R o.8.F.MXIXkXyXT.x @.z.$XKX*Xa a.d t 2.0./.dXsXLXNX;XM 9.>.=.:.:.:.G 4 ..:...F 4 G :.=.3 1.3 ",
"X   o F 1...3 H *.<.H o >.1.:.<.<.R 2./ b 5XIXDX=XT.k.@.z.@XKXOXa 5.c.C.2.0._.;XlXIXvXW.s >.,.@.:.:.:.:.D G *.>.D 4 F :.=.3 1.3 ",
"X   o G 1.X.3 H :.F D G >.>.:.<.,.@ q.,.b.oXVXIXdXn.[ 1.t.K.KXT.j o.8.b.#.J N [.LXKX4XM.,.#.,.@.>.:.>.>...F ..>.F 4 G :.=.3 :.3 ",
"X   o :.1...3 G <.4 D >.>.:.<.,.>.% J o.2.!.+XLXZXC.] @.8.Z.GX@Xm g h f = e.B [.HX6XZ.9.&.&.R #.:.@.:.>.:.H X.>...4 :.@.=.X.@.3 ",
"o X o >.>.>.+ >.D D ..:.>.:.:.:.:.#.:.#.X.7.).jXKXI.q.J 8.A.FXoXm _.a u.#.,.j.iXFXF.' >.<.>.% 0.@.@.@.:.>...D D ..o >...>.H *.F ",
"  O o #.>...D X.D X.@.@.>.:.:.:.:.@.@.>.#.<.^ (.FX<X( J &.b.ZX@Xj f b l.* 2.l xXaXn.! #.,.:.% <.@.@.@.@.>.@.X.D X.o ....>.H *.F ",
"    o #.#.X.D D G @.>.:.@.:.>.:.@.O.@.-.<.$.G ' yXiXl.@.%.b.ZXT.; v C c...q.F.uXN.( #.o.,.$.@ =.@.@.@.@.>.>...G X.o G ..>.D *.D ",
"  o + #...D X.D X.#.>.#.@.#.1.@.@.@.$.@.<.$.$./ x.;XD.7.o.V.xXW.>  XZ q.1.n.3X}.[ I & %.>.$.O.>.@.#.@.@.>.1.>...X.+ + ..>.+ ..3 ",
"    + #.#.D ....@.#.#.@.#.>.#.@.@.@.$.% >.#.$.:.X.a.n.u.&.j.iXE.: S.C.,.J B.R.7.:.O.$.#.#.#.@.$.@.$.#.@.#.>.>.#...D + ..>.+ X.3 ",
"    + #.>.X.#.#.#.#.#.@.#.#.#.O.#.:.$.% #.=.>.% & *.} @.$ ) iXE.: b n % G 4.( #.& +.@.@.%.o.#.@.#.#.#.@.@.#.#.#.#.O.X.@.>.D X.D ",
"    X.#.#.@.#.#.#.#.#.#.#.#.#.#.+.@.@.+.%.>.<.% >...&.% % | 5XE.A A.v # ,.o.& J & #.@.O.+.%.#.@.#.#.#.#.#.#.O.#.#.#.+.+.#.X.D o ",
"    +.#.@.#.#.#.@.#.#.#.#.#.#.#.+.#.*.@.$ #.=.+.J o.% R 3.( E.R.A Z M.X.#.8.#.$.>.:.O.% $.+.+.X.#.#.O.#.$.#.O.+.+.O.#.+.#.X.+ o ",
"  + +.+.+.+.#.#.+.+.+.+.+.+.+.+.+.+.+.#.#.+.+.+.O.O.% % +.0.b.H.A M. .@.& & +.% +.+.+.#.#.+.+.+.+.+.+.+.+.+.+.+.#.#.#.#.#.%.* o ",
"+ * +.+.+.+.+.+.+.+.+.+.+.+.+.+.+.+.+.+.+.+.+.+.+.+.O.+.%.>.e.c.W } 1.#.o.&.#.$.+.+.+.+.+.+.+.+.+.+.+.+.+.+.+.+.+.O.O.$.#.+.+.* ",
"+.+.%.+.+.+.+.+.+.+.+.+.+.+.+.+.+.+.+.+.+.+.+.+.& +.#.#.+.+.O.@.&.&.+.+.#.>.#.$ +.+.+.+.+.+.+.+.+.+.+.+.+.+.+.+.+.+.+.+.+.+.+.% ",
"+.+.+.+.+.+.+.+.+.+.+.+.+.+.+.+.+.+.+.+.+.+.+.+.& +.#.#.+.& $ $ $ $ % O.$.+.$ $ +.+.+.+.+.+.+.+.+.+.+.+.+.+.+.+.+.+.+.% +.&.&.% ",
"+.+.+.+.+.+.+.+.+.+.+.+.+.+.+.+.+.+.+.+.+.+.+.+.+.+.O.+.+.+.+.+.@.O.O.$.+.+.$ $ +.+.+.+.+.+.+.+.+.+.+.+.+.+.+.+.+.+.+.+.&.%.X.#.",
"+.+.+.+.+.+.+.+.+.+.+.+.+.+.+.+.+.+.+.+.+.+.+.+.+.+.+.+.+.+.#.#.#.#.&.%.%.+.+.#.+.+.+.+.+.+.+.+.+.+.+.+.+.+.+.+.#.+.+.#.X.o   X.",
"+.+.+.+.+.+.+.+.+.+.+.+.+.+.+.+.+.+.+.+.+.+.+.+.#.+.+.+.+.+.+.+.+.%.%.+.$ +.+.#.+.+.+.+.+.+.+.+.+.+.+.+.+.+.+.+.+.+.+.+.X.  O X.",
"+.+.+.+.+.+.+.+.+.+.+.+.+.+.+.+.+.+.+.+.+.+.+.+.+.+.%.%.+.+.% $ +.+.@.O.O.+.$ $ +.+.+.+.+.+.+.+.+.+.+.+.+.+.+.+.$ +.$ $ %.o.X.%."
};
