/* XPM */
static char *result[] = {
/* columns rows colors chars-per-pixel */
"64 64 170 2 ",
"   c black",
".  c #000001",
"X  c #010001",
"o  c #010002",
"O  c #010102",
"+  c #020102",
"@  c #020103",
"#  c #030103",
"$  c #030104",
"%  c #030204",
"&  c #040204",
"*  c #070408",
"=  c #08040A",
"-  c #09040A",
";  c #0A050C",
":  c #0B050C",
">  c #0D070F",
",  c #0E0710",
"<  c #130A16",
"1  c #150B18",
"2  c #190D1D",
"3  c #1A0E1E",
"4  c #1C0E20",
"5  c #1D0F21",
"6  c #1D0F22",
"7  c #1E0F22",
"8  c #1E1022",
"9  c #1F1023",
"0  c #201024",
"q  c #201124",
"w  c #201125",
"e  c #211126",
"r  c #221226",
"t  c #221227",
"y  c #231228",
"u  c #231328",
"i  c #241329",
"p  c #25132A",
"a  c #27142C",
"s  c #28152E",
"d  c #2A1630",
"f  c #2C1732",
"g  c #2C1733",
"h  c #2D1833",
"j  c #2D1834",
"k  c #321A39",
"l  c #331B3A",
"z  c #391E41",
"x  c #3B1F43",
"c  c #3C1F44",
"v  c #3C2045",
"b  c #3D2045",
"n  c #41224A",
"m  c #42234B",
"M  c #45244E",
"N  c #472550",
"B  c #472651",
"V  c #482652",
"C  c #4B2755",
"Z  c #4B2855",
"A  c #4B2856",
"S  c #4C2856",
"D  c #4D2957",
"F  c #4D2958",
"G  c #4F2A59",
"H  c #502A5B",
"J  c #512B5C",
"K  c #522B5D",
"L  c #542C5F",
"P  c #552D60",
"I  c #552D61",
"U  c #562D61",
"Y  c #562D62",
"T  c #572E63",
"R  c #582E63",
"E  c #582F64",
"W  c #5C3169",
"Q  c #5E326A",
"!  c #5E326B",
"~  c #61336E",
"^  c #62346F",
"/  c #633470",
"(  c #643572",
")  c #653572",
"_  c #663674",
"`  c #673675",
"'  c #6B3879",
"]  c #6D3A7C",
"[  c #6E3B7D",
"{  c #6F3B7E",
"}  c #733D82",
"|  c #7B418B",
" . c #7D428E",
".. c #814593",
"X. c #874899",
"o. c #88489A",
"O. c #8F4CA2",
"+. c #934EA7",
"@. c #944EA8",
"#. c #9851AD",
"$. c #9A51AE",
"%. c #9F54B4",
"&. c #AB5BC2",
"*. c #AD5BC3",
"=. c #AC5CC4",
"-. c #B660CE",
";. c #B661CE",
":. c #B761D0",
">. c #BB63D4",
",. c #C066DA",
"<. c #C367DD",
"1. c #C368DD",
"2. c #C368DE",
"3. c #C468DE",
"4. c #C468DF",
"5. c #C568DF",
"6. c #C569DF",
"7. c #C569E0",
"8. c #C669E0",
"9. c #C669E1",
"0. c #C769E1",
"q. c #C76AE1",
"w. c #C76AE2",
"e. c #C86AE2",
"r. c #C86AE3",
"t. c #C96AE3",
"y. c #C96BE3",
"u. c #C96BE4",
"i. c #CA6BE4",
"p. c #CA6BE5",
"a. c #CB6BE6",
"s. c #CB6CE6",
"d. c #CC6CE7",
"f. c #CC6DE8",
"g. c #CD6DE8",
"h. c #CD6DE9",
"j. c #CE6DE9",
"k. c #CE6DEA",
"l. c #CE6EEA",
"z. c #CF6EEB",
"x. c #D06EEC",
"c. c #D16FED",
"v. c #D26FEE",
"b. c #D270EE",
"n. c #D370EF",
"m. c #D470F0",
"M. c #D571F1",
"N. c #D571F2",
"B. c #D671F2",
"V. c #D672F2",
"C. c #D672F3",
"Z. c #D772F3",
"A. c #D772F4",
"S. c #D873F5",
"D. c #D973F6",
"F. c #DA74F7",
"G. c #DA74F8",
"H. c #DB74F8",
"J. c #DB74F9",
"K. c #DC75F9",
"L. c #DC75FA",
"P. c #DD75FB",
"I. c #DE76FB",
"U. c #DF76FC",
"Y. c #DF76FD",
"T. c #E077FE",
"R. c #E177FF",
"E. c #E67AFF",
"W. c #EC7DFF",
"Q. c #ED7EFF",
/* pixels */
"                                                                                                                                ",
"                                                                                                                                ",
"                                                                                                                                ",
"                                                                                                                                ",
"                            o & $ $ $ $ $ $ $ $ $ $ $ $ $ $ $ $ $ $ $ $ $ $ $ $ $ $ $ $ $ $ $ $ % o                             ",
"                          X                                                                         X                           ",
"                        O   l { ( _ _ _ _ _ _ _ _ _ _ _ _ _ _ _ _ _ _ _ _ _ _ _ _ _ _ _ _ _ _ ( [ k   O                         ",
"                        &   ] Q.Z.K.L.L.L.L.L.L.L.L.L.L.L.L.L.L.L.L.L.L.L.L.L.L.L.L.L.L.L.L.K.A.W.'   &                         ",
"                        $   / A.1.3.<.<.<.<.<.<.<.<.<.<.<.<.<.<.<.<.<.<.<.<.<.<.1.1.3.5.8.4.1.1.C.~   $                         ",
"                        %   ) K.9.N 3 y e e e e e e e e e e e e e e r r t u p i r q 5 2 1 < V 9.H.^   $                         ",
"                        %   ) K.8.a                                                 : p F 5 0 r.H.^   $                         ",
"                        %   ) K.9.j   # X X X X X X X X .           X - 7 x T } O.=.1.r.E.! 5 p.H.^   $                         ",
"                        %   ) K.9.f   O                 X , s M ~  .$.;.8.j.Z.F.M.c.g.e.D.L 5 p.H.^   $                         ",
"                        %   ) K.9.f   O             +   m 9.e.c.D.S.n.z.d.p.e.w.r.u.p.q.H.U 5 p.H.^   $                         ",
"                        %   ) K.9.f   O             #   G A.u.u.w.w.r.u.p.p.p.s.p.p.p.w.H.Y 6 p.H.^   $                         ",
"                        %   ) K.9.f   O             @   S n.r.p.p.s.p.s.s.s.s.s.s.s.p.w.H.P 4 p.H.^   $                         ",
"                        %   ) K.9.f   O             @   D m.t.p.s.s.s.s.s.s.s.s.s.s.p.w.H.E w p.H.^   $                         ",
"                        %   ) K.9.f   O             @   D m.t.p.s.s.s.s.s.s.s.s.s.s.p.p.j.:.*.w.H./   $                         ",
"                        %   ) K.8.f   O             @   D m.t.p.s.s.s.s.s.s.s.s.s.s.s.s.u.v.B.0.F./   $                         ",
"                        %   ) K.9.f   O             @   D m.t.p.s.s.s.s.s.s.s.s.s.s.p.p.j.:.*.w.H./   $                         ",
"                        %   ) K.9.f   O             @   D m.t.p.s.s.s.s.s.s.s.s.s.s.p.w.H.E w p.H.^   $                         ",
"                        %   ) K.9.f   O             @   D m.t.p.s.s.s.s.s.s.s.s.s.s.p.w.H.P 4 p.H.^   $                         ",
"                        %   ) K.9.f   O             @   D m.t.p.s.s.s.s.s.s.s.s.s.s.p.w.H.Y 6 p.H.^   $                         ",
"                        %   ) K.9.f   O             @   D m.t.p.s.s.s.s.s.s.s.s.s.s.p.w.H.U 5 p.H.^   $                         ",
"                        %   ) K.9.f   O             @   D m.t.p.s.s.s.s.s.s.s.s.s.s.p.w.H.U 5 p.H.^   $                         ",
"                        %   ) K.9.f   O             @   D m.t.p.s.s.s.s.s.s.s.s.s.s.p.w.H.U 5 p.H.^   $                         ",
"                        %   ) K.9.f   O             @   D m.t.p.s.s.s.s.s.s.s.s.s.s.p.w.H.U 5 p.H.^   $                         ",
"                        %   ) K.9.f   O             @   D m.r.p.s.p.p.s.s.s.s.s.s.s.p.w.H.U 5 p.H.^   $                         ",
"                        %   ) K.9.f   O             @   D n.u.s.p.s.p.s.s.s.s.s.s.s.p.w.H.U 5 p.H.^   $                         ",
"                        %   ) K.9.f   O             @   S V.e.r.j.p.s.s.s.s.s.s.s.s.p.w.H.U 5 p.H.^   $                         ",
"                        %   ) K.9.g   O             @   D Z.v d <.f.p.s.s.s.s.s.s.s.p.w.H.U 5 p.H.^   $                         ",
"                        %   ) K.9.g   O             @   H p.X   &.c.u.s.s.s.s.s.s.s.p.w.H.U 5 p.H.^   $                         ",
"                        %   ) K.9.g   O             @   A P.W J n.u.p.s.s.s.s.s.s.s.p.w.H.U 5 p.H.^   $                         ",
"                        %   ) K.9.f   O             @   C Y.+.X.A.r.s.s.s.s.s.s.s.s.p.w.H.U 5 p.H.^   $                         ",
"                        %   ) K.9.f   O             @   Z U.@.o.A.r.s.s.s.s.s.s.s.s.p.w.H.U 5 p.H.^   $                         ",
"                        %   ) K.9.g   O             @   Z I.^ K n.u.p.s.s.s.s.s.s.s.p.w.H.U 5 p.H.^   $                         ",
"                        %   ) K.9.g   O             @   H p.    &.c.u.s.s.s.s.s.s.s.p.w.H.U 5 p.H.^   $                         ",
"                        %   ) K.9.g   O             @   F N.z 9 ,.h.p.s.s.s.s.s.s.s.p.w.H.U 5 p.H.^   $                         ",
"                        %   ) K.9.f   O             @   S V.r.6.h.p.s.s.s.s.s.s.s.s.p.w.H.U 5 p.H.^   $                         ",
"                        %   ) K.9.f   O             @   D n.u.d.p.s.p.s.s.s.s.s.s.s.p.w.H.U 5 p.H.^   $                         ",
"                        %   ) K.9.f   O             @   D m.r.p.s.s.p.s.s.s.s.s.s.s.p.w.H.U 5 p.H.^   $                         ",
"                        %   ) K.9.f   O             @   D m.t.p.s.s.s.s.s.s.s.s.s.s.p.w.H.U 5 p.H.^   $                         ",
"                        %   ) K.9.f   O             @   D m.t.p.s.s.s.s.s.s.s.s.s.s.p.w.H.U 5 p.H.^   $                         ",
"                        %   ) K.9.f   O             @   D m.t.p.s.s.s.s.s.s.s.s.s.s.p.w.H.U 5 p.H.^   $                         ",
"                        %   ) K.9.f   O             @   D m.t.p.s.s.s.s.s.s.s.s.s.s.p.w.H.U 5 p.H.^   $                         ",
"                        %   ) K.9.f   O             @   D m.t.p.s.s.s.s.s.s.s.s.s.s.p.w.H.Y 6 p.H.^   $                         ",
"                        %   ) K.9.f   O             @   D m.t.p.s.s.s.s.s.s.s.s.s.s.p.w.H.P 4 p.H.^   $                         ",
"                        %   ) K.9.f   O             @   D m.t.p.s.s.s.s.s.s.s.s.s.s.p.w.H.E w p.H.^   $                         ",
"                        %   ) K.9.f   O             @   D m.t.p.s.s.s.s.s.s.s.s.s.s.p.p.j.:.*.w.H./   $                         ",
"                        %   ) K.8.f   O             @   D m.t.p.s.s.s.s.s.s.s.s.s.s.s.s.u.v.B.0.F./   $                         ",
"                        %   ) K.9.f   O             @   D m.t.p.s.s.s.s.s.s.s.s.s.s.p.p.j.:.*.w.H./   $                         ",
"                        %   ) K.9.f   O             @   D m.t.p.s.s.s.s.s.s.s.s.s.s.p.w.H.E w p.H.^   $                         ",
"                        %   ) K.9.f   O             @   S n.r.p.p.s.p.s.s.s.s.s.s.s.p.w.H.P 4 p.H.^   $                         ",
"                        %   ) K.9.f   O             #   G A.u.y.w.e.y.i.p.p.p.s.p.s.p.w.H.Y 6 p.H.^   $                         ",
"                        %   ( J.8.f   o             +   m 9.r.v.F.A.b.l.d.u.w.w.r.u.p.0.G.U 5 p.H.^   $                         ",
"                        %   ( H.7.f   o                 X , d B ( ..%.>.r.x.D.S.n.z.g.r.H.I 5 u.F.^   $                         ",
"                        %   ` R.a.h   O                               ; y n Q | #.-.2.3.I.R 6 k.T.)   %                         ",
"                        X   8 m c >                       . o @ # X               * 1 i x 3 = b m 7   X                         ",
"                                                                        X + $ +                                                 ",
"                            X @ +                                                   X X + X   + @ X                             ",
"                                                                                                                                ",
"                                                                                                                                ",
"                                                                                                                                ",
"                                                                                                                                "
};
