/* XPM */
static char *_963a80493bc43c1c89a135c6fbe5f15TrAtImc4Vu4PyTOF[] = {
/* columns rows colors chars-per-pixel */
"64 64 6 1 ",
"  c None",
". c #562E2A",
"X c #3A474E",
"o c #804B3A",
"O c #B37351",
"+ c #DA9F71",
/* pixels */
"                                                                ",
"                                                                ",
"                                                                ",
"                                                                ",
"                                                                ",
"                                                                ",
"                                                                ",
"                                                                ",
"                                                                ",
"                 XXXXXXXXXXXXXXXXXXXXXXXXXXXXX                  ",
"                 XXoooooooooooooooooooooooooXX                  ",
"                 XXoooooooooooooooooooooooooXX                  ",
"                 XXoooooooooooooooooooooooooXX                  ",
"                 XXoooooooooooooooooooooooooXX                  ",
"                 XXoooooooooooooooooooooooooXX                  ",
"                 XXoooooooooooooooooooooooooXX                  ",
"                 XXooooo...............++oooXX                  ",
"                 XXooooo..OOO..OOO..OOO++oooXX                  ",
"                 XXooooo..OOO..OOO..OOO++oooXX                  ",
"                 XXooooo..OOO..OOO..OOO++oo+XX                  ",
"                 XXooooo..OOO..OOO..OOO++oo.XX                  ",
"                 XXooooo..OOO..OOO..OOO++oo.XX                  ",
"                 XXooooo..OOO..OOO..OOO++oo.XX                  ",
"                 XXooooo..OOO..OOO..OOO++oo.XX                  ",
"                 XXooooo..OOO..OOO..OOO++oo.XX                  ",
"                 XXooooo..OOO..OOO..OOO++oo.XX                  ",
"                 XXooooo..OOO..OOO..OOO++oooXX                  ",
"                 XXooooo..OOO..OOO..OOO++oooXX                  ",
"                 XXooooo..OOO..OOO..OOO++oooXX                  ",
"                 XXooooo..+++++++++++++++oooXX                  ",
"                 XXoooooooooooooooooooooooooXX                  ",
"                 XXoooooooooooooooooooooooooXX                  ",
"                 XXoooooooooooooooooooooooooXX                  ",
"                 XXoooooooooooooooooooooooooXX                  ",
"                 XXoooooooooooooooooooooooooXX                  ",
"                 XXoooooooooooooooooooooooooXX                  ",
"                 XXoooooooooooooooooooooooooXX                  ",
"                 XXooooo...............++oooXX                  ",
"                 XXooooo...............++oooXX                  ",
"                 XXooooo..OOO..OOO..OOO++oooXX                  ",
"                 XXooooo..OOO..OOO..OOO++oo+XX                  ",
"                 XXooooo..OOO..OOO..OOO++oo.XX                  ",
"                 XXooooo..OOO..OOO..OOO++oo.XX                  ",
"                 XXooooo..OOO..OOO..OOO++oo.XX                  ",
"                 XXooooo..OOO..OOO..OOO++oo.XX                  ",
"                 XXooooo..OOO..OOO..OOO++oo.XX                  ",
"                 XXooooo..OOO..OOO..OOO++oo.XX                  ",
"                 XXooooo..OOO..OOO..OOO++oooXX                  ",
"                 XXooooo..OOO..OOO..OOO++oooXX                  ",
"                 XXooooo..OOO..OOO..OOO++oooXX                  ",
"                 XXooooo..+++++++++++++++oooXX                  ",
"                 XXoooooooooooooooooooooooooXX                  ",
"                 XXoooooooooooooooooooooooooXX                  ",
"                 XXoooooooooooooooooooooooooXX                  ",
"                 XXoooooooooooooooooooooooooXX                  ",
"                 XXoooooooooooooooooooooooooXX                  ",
"                 XXXXXXXXXXXXXXXXXXXXXXXXXXXXX                  ",
"                                                                ",
"                                                                ",
"                                                                ",
"                                                                ",
"                                                                ",
"                                                                ",
"                                                                "
};
