/* XPM */
static char *_42484fafded4c9fab235e93a218ef875zXDa1TiFaABcGta[] = {
/* columns rows colors chars-per-pixel */
"50 50 203 2 ",
"   c None",
".  c #000000",
"X  c #0C0204",
"o  c #050802",
"O  c #06070B",
"+  c #130303",
"@  c #180906",
"#  c #170906",
"$  c #091705",
"%  c #101F06",
"&  c #061312",
"*  c #151415",
"=  c #1D1D1D",
"-  c #120D16",
";  c #2F000B",
":  c #340413",
">  c #3B0C1B",
",  c #132209",
"<  c #172B08",
"1  c #1E360D",
"2  c #182D1B",
"3  c #142F1C",
"4  c #213F0C",
"5  c #140427",
"6  c #0F2920",
"7  c #1C2020",
"8  c #163D2C",
"9  c #16322E",
"0  c #212121",
"q  c #2B2B2B",
"w  c #282728",
"e  c #2E312C",
"r  c #333434",
"t  c #3C3A3B",
"y  c #303838",
"u  c #460908",
"i  c #5A0C0C",
"p  c #48061C",
"a  c #520E1E",
"s  c #5A1211",
"d  c #760F0F",
"f  c #681516",
"g  c #7B1719",
"h  c #510E2C",
"j  c #7E0B38",
"k  c #7E0A36",
"l  c #463434",
"z  c #25410F",
"x  c #304B1E",
"c  c #335B17",
"v  c #386619",
"b  c #194935",
"n  c #15402C",
"m  c #2F4D3D",
"M  c #2B0C45",
"N  c #2A0B4B",
"B  c #2E1244",
"V  c #3E3747",
"C  c #300E63",
"Z  c #3D157C",
"A  c #37117D",
"S  c #58104C",
"D  c #710C4F",
"F  c #680E55",
"G  c #6F1350",
"H  c #731251",
"J  c #720F4C",
"K  c #643554",
"L  c #401166",
"P  c #450A7C",
"I  c #480979",
"U  c #500B70",
"Y  c #461574",
"T  c #49167A",
"R  c #571673",
"E  c #533B6B",
"W  c #453374",
"Q  c #325849",
"!  c #25654B",
"~  c #297355",
"^  c #2B7559",
"/  c #2A6F53",
"(  c gray28",
")  c #565B59",
"_  c #575556",
"`  c #744C4C",
"'  c #654B53",
"]  c #566659",
"[  c #516547",
"{  c #626262",
"}  c #686A6A",
"|  c #7B7B7B",
" . c #747676",
".. c #881818",
"X. c #941B1A",
"o. c #B61F1F",
"O. c #940E2D",
"+. c #840D36",
"@. c #8A0F36",
"#. c #870E39",
"$. c #910E3A",
"%. c #910E30",
"&. c #8E1235",
"*. c #941335",
"=. c #9D1533",
"-. c #941439",
";. c #9C1938",
":. c #9F1A29",
">. c #A91C2A",
",. c #BB1F2F",
"<. c #A61A33",
"1. c #AC1A32",
"2. c #A41A37",
"3. c #B31C31",
"4. c #BD1F31",
"5. c #842727",
"6. c #883323",
"7. c #AE2121",
"8. c #B72225",
"9. c #A5233A",
"0. c #B82836",
"q. c #BC3039",
"w. c #C11F31",
"e. c #C32323",
"r. c #CE2727",
"t. c #C4222D",
"y. c #CB242D",
"u. c #D3262C",
"i. c #DC2728",
"p. c #DE2A2A",
"a. c #D82727",
"s. c #C52431",
"d. c #D92630",
"f. c #E92B25",
"g. c #E32B2A",
"h. c #EB2D2B",
"j. c #E62723",
"k. c #F32F2D",
"l. c #F82F2F",
"z. c #E4332E",
"x. c #E73931",
"c. c #FE3030",
"v. c #EE4336",
"b. c #EA4C3D",
"n. c #F04737",
"m. c #F34C39",
"M. c #F64936",
"N. c #F9553D",
"B. c #FC593F",
"V. c #F4583F",
"C. c #FF663F",
"Z. c #841E57",
"A. c #821E59",
"S. c #891D52",
"D. c #862658",
"F. c #A62C48",
"G. c #8F3363",
"H. c #953564",
"J. c #EB5341",
"K. c #FD5E42",
"L. c #FF6344",
"P. c #FF6946",
"I. c #508F23",
"U. c #539726",
"Y. c #5AA228",
"T. c #5EB239",
"R. c #61AE2C",
"E. c #69BC2F",
"W. c #64B52C",
"Q. c #68BD33",
"!. c #67BF39",
"~. c #67B634",
"^. c #68A936",
"/. c #6DC32E",
"(. c #6CCA2B",
"). c #6FD427",
"_. c #6DC432",
"`. c #71CB33",
"'. c #70C730",
"]. c #74D234",
"[. c #72D52D",
"{. c #36956E",
"}. c #36986F",
"|. c #3B996A",
" X c #359370",
".X c #399B76",
"XX c #3FA06E",
"oX c #3EA57B",
"OX c #3DA57B",
"+X c #5FB640",
"@X c #5BA345",
"#X c #4A1881",
"$X c #431682",
"%X c #521984",
"&X c #4C0E81",
"*X c #838282",
"=X c #8A8C8C",
"-X c #989798",
";X c #908888",
":X c #A6A6A6",
">X c #B7B7B7",
",X c #CDCDCD",
"<X c gray83",
/* pixels */
"                                                                                                    ",
"                                                                                                    ",
"                                                                                                    ",
"                                                  . . . . . .                                       ",
"                                                  . . . . . .                                       ",
"                                                  $ , , , % ,                                       ",
"                              w . . . . . . . . 1 '._._._._.E.$ . . .                               ",
"                              w . . . . . . . . 1 './././._.E.$ . . . :X                            ",
"                              e . o o o o . . . 1 _.Q.Q.Q.Q.~., . o . :X                            ",
"                        0 * * U.W.R.R.R.E.c . . 3 XX|.|.|.|.|.T.R.R.W.x - o *X                      ",
"                        . . . Y.`._._._.].v . . 6 .X X X X X{.!./._.].4 . .  .                      ",
"                        O . . Y.`._././.].v . . 6 .X X X}.}.}.!.'._.].z . . |                       ",
"                  r t m / ~ ~ 1 < < V E E [ U.I.U.+XT.@XW W W 2 < < < m ^ ~ Q t r  .                ",
"                  . . . {.OX.X& . . N &XP ] [.'._././.^.Y I Y O . . . ! oXoXb . . t                 ",
"                  . . . {.OXOX$ . . N #XP ] ).(.(.(.).~.T T Y O . . . ! oXoXb . . t                 ",
"                  =X-X=Xb 8 8 B M M S H D K ] ) ) ) ) _ G H G B M M M 9 n 8 ] -X=X>X                ",
"                        X . . L %X#XJ O.O.F P I I I P U @.%.@.R #XT %X5 . . |                       ",
"                        O . . C Z A D +.+.F A Z Z Z Z Y +.+.+.Y Z Z $X5 . . |                       ",
"                        > : : D.H.G.F.q.q.F.A.Z.Z.Z.A.S.1.1.1.S.A.Z.D.h : ; '                       ",
"                  . . . @.-.$.N.C.C.L.L.P.M.j.f.f.f.f.f.g.g.g.f.f.f.f.3.$.;.p . . t                 ",
"                  . . X +.@.@.J.L.K.K.K.L.v.i.p.p.p.p.p.p.p.p.p.p.p.g.<.+.-.p . . (                 ",
"                  . . X +.+.+.J.L.L.L.L.L.n.i.p.p.p.p.p.p.p.p.p.p.p.g.<.k $.p . . (                 ",
"                  . . X ;.2.;.b.B.N.N.N.B.v.i.p.g.z.z.z.p.p.p.p.p.p.g.0.;.2.a . . (                 ",
"                  . . @ V.L.L.z.i.p.p.p.p.p.p.i.x.L.L.B.p.p.p.p.p.p.i.m.L.L.6.. . (                 ",
"                  . . @ K.L.L.z.i.p.p.p.p.p.p.i.x.L.L.B.p.p.p.p.p.p.i.m.L.P.6.. . (                 ",
"                  . . # V.K.K.z.p.p.p.p.g.p.p.i.x.K.K.N.p.p.p.p.p.p.i.m.K.L.6.. . (                 ",
"                  . . X &.-.-.u.g.i.m.K.K.v.i.g.y.-.-.;.p.p.p.p.p.p.g.1.-.2.a . . (                 ",
"                  . . X +.@.+.y.g.i.m.L.L.n.i.g.t.+.+.*.p.g.p.p.p.p.g.<.+.$.p . . (                 ",
"                  . . X +.#.+.u.g.p.N.L.L.n.i.g.t.+.+.*.g.g.g.g.g.g.g.<.+.$.p . . (                 ",
"                  . . + t.y.y.<.=.=.2.9.9.s.g.p.a.y.y.t.=.=.=.=.=.=.=.,.y.d.f . . (                 ",
"                  . . + a.h.g.*.+.+.+.+.k 1.g.p.p.g.g.u.+.+.+.+.+.+.+.t.h.k.g . . (                 ",
"                  . . . g.k.h.*.+.+.@.@.+.3.h.g.g.g.g.a.@.@.@.+.+.+.j y.k.c.d . . t                 ",
"                      ;Xf i s >.4.0.=.+.+.=.3.1.1.1.1.1.@.@.@.3.4.,.w.g s i `                       ",
"                        O . . 8.h.h.1.+.@.+.+.+.+.+.+.+.@.@.&.a.g.g.k.u . . |                       ",
"                        . . . e.l.k.<.j +.+.@.@.@.@.@.@.+.+.+.g.k.h.c.u . . }                       ",
"                        } { { 5.....:.1.1.=.@.@.@.@.@.&.1.1.1.........` } _ :X                      ",
"                              q . . X.k.h.,.+.@.@.@.+.*.g.h.p.+ . . .                               ",
"                              0 . . X.l.k.4.j +.+.+.+.*.h.h.g.+ . . . :X                            ",
"                              ) q y 5.o.7.>.=.=.=.=.=.=.7.7.7.l y r w >X                            ",
"                                    ) . . f k.g.g.g.h.e.. . .                                       ",
"                                    _ . . f k.g.g.g.h.e.. . .                                       ",
"                                    { . & f i.r.r.r.a.8.* & *                                       ",
"                                          *X. X X X . w                                             ",
"                                          =X. . . . . 7                                             ",
"                                          *X. . . . . =                                             ",
"                                                                                                    ",
"                                                                                                    ",
"                                                                                                    ",
"                                                                                                    ",
"                                                                                                    "
};
