/* XPM */
static char *d41e1e96fcdb49ec8a4888088e248aac5umUvTfbMOQDLRP2[] = {
/* columns rows colors chars-per-pixel */
"64 64 219 2 ",
"   c None",
".  c #030102",
"X  c #0B0203",
"o  c #040A04",
"O  c #0B0509",
"+  c #060A0A",
"@  c #0C0B0B",
"#  c #070804",
"$  c #130204",
"%  c #1C0303",
"&  c #140A00",
"*  c #14050A",
"=  c #130A0D",
"-  c #1A0A0C",
";  c #1D0908",
":  c #071409",
">  c #15160D",
",  c #140D11",
"<  c #1D0D14",
"1  c #0B1412",
"2  c #0C1914",
"3  c #141314",
"4  c #131B19",
"5  c #1B1C1C",
"6  c #1D1614",
"7  c #230203",
"8  c #2C0302",
"9  c #240D03",
"0  c #23060B",
"q  c #2A0509",
"w  c #3A0005",
"e  c #3B0109",
"r  c #370606",
"t  c #281708",
"y  c #2D0F13",
"u  c #310712",
"i  c #22141A",
"p  c #381011",
"a  c #32260D",
"s  c #2C1B22",
"d  c #281A21",
"f  c #311C26",
"g  c #1B2426",
"h  c #222222",
"j  c #2B2C2B",
"k  c #292727",
"l  c #33252A",
"z  c #2D332F",
"x  c #2F2E33",
"c  c #3D2730",
"v  c #392E34",
"b  c #2D3130",
"n  c #343434",
"m  c #3C3D3D",
"M  c #3D3638",
"N  c #48060C",
"B  c #570A0A",
"V  c #491016",
"C  c #591016",
"Z  c #4F0A14",
"A  c #600E19",
"S  c #690819",
"D  c #720E16",
"F  c #62121F",
"G  c #751415",
"H  c #483C04",
"J  c #591723",
"K  c #6B0D24",
"L  c #791428",
"P  c #462C37",
"I  c #43363C",
"U  c #49343B",
"Y  c #33443E",
"T  c #544600",
"R  c #7D6618",
"E  c #4A3C42",
"W  c #553B46",
"Q  c #3E4545",
"!  c #3E534C",
"~  c #444444",
"^  c #4A4A4A",
"/  c #574A4E",
"(  c #4D5351",
")  c #545354",
"_  c #5A5B5A",
"`  c #545958",
"'  c #4E554D",
"]  c #65555C",
"[  c #614D56",
"{  c #5E655D",
"}  c #745763",
"|  c #685F62",
" . c #606060",
".. c #646867",
"X. c #6B6D6D",
"o. c #696468",
"O. c #746B74",
"+. c #6D7474",
"@. c #737373",
"#. c #7C7C7C",
"$. c #777878",
"%. c #746167",
"&. c #8F1318",
"*. c #890B21",
"=. c #881527",
"-. c #95172A",
";. c #8C1C32",
":. c #A61629",
">. c #B3192D",
",. c #B9162B",
"<. c #AE1832",
"1. c #89222D",
"2. c #A52230",
"3. c #B62535",
"4. c #DF1D2C",
"5. c #D51E2B",
"6. c #C21C32",
"7. c #CB1B35",
"8. c #C91633",
"9. c #DD1C33",
"0. c #DB1836",
"q. c #C11A2B",
"w. c #E11B2D",
"e. c #E61B2A",
"r. c #EA1C33",
"t. c #E91936",
"y. c #F21D33",
"u. c #F61A37",
"i. c #DD242D",
"p. c #D8292A",
"a. c #C92732",
"s. c #D32036",
"d. c #DF2534",
"f. c #DE2836",
"g. c #D3233B",
"h. c #DA2836",
"j. c #E2232D",
"k. c #E1292F",
"l. c #E8252A",
"z. c #E62234",
"x. c #EC2232",
"c. c #E42A36",
"v. c #EE2B33",
"b. c #EB2239",
"n. c #ED2C3A",
"m. c #E4263A",
"M. c #F3233B",
"N. c #F82638",
"B. c #F0232A",
"V. c #8C7A1C",
"C. c #F71D40",
"Z. c #D32943",
"A. c #E22140",
"S. c #F22342",
"D. c #F82343",
"F. c #886C77",
"G. c #86797E",
"H. c #82646E",
"J. c #E1D31B",
"K. c #D9CC26",
"L. c #857E90",
"P. c #7F8382",
"I. c #838384",
"U. c #8D8C8C",
"Y. c #878787",
"T. c #9A858B",
"R. c #85938E",
"E. c #888897",
"W. c #9F8F90",
"Q. c #8F9392",
"!. c #949394",
"~. c #9C9B9C",
"^. c #9A979A",
"/. c #AC959B",
"(. c #A19AA2",
"). c #98ACA3",
"_. c #A5A4A5",
"`. c #A4ACA9",
"'. c #ACABAB",
"]. c #A2A7AD",
"[. c #ACB0AF",
"{. c #ABB7B5",
"}. c #B3B3B3",
"|. c #B7BABA",
" X c #BCBEBD",
".X c #C2BCBE",
"XX c #C1A9B1",
"oX c #BEC1BE",
"OX c #BFC2C1",
"+X c #C1C3C3",
"@X c #CBCBCB",
"#X c #C3CAC8",
"$X c #CAD2CF",
"%X c #C7D0C9",
"&X c #CBCBD9",
"*X c #CDD3D3",
"=X c #D5D6D5",
"-X c #DCDDDD",
";X c #D8D9D9",
":X c #DBE0DC",
">X c #D9E5E4",
",X c #E4E5E5",
"<X c #EBECEC",
"1X c #E7E6E9",
"2X c #EFF2E9",
"3X c #FDFFED",
"4X c #F5FDEE",
"5X c #FFEEF4",
"6X c #EEF3F1",
"7X c #EFFFFD",
"8X c #F5F5F5",
"9X c #FCF5F5",
"0X c #F4FCF5",
"qX c #FDFDF5",
"wX c #F4F6FB",
"eX c #FDF6FB",
"rX c #F5FDFB",
"tX c #FEFEFE",
"yX c #E7E3F2",
/* pixels */
"                                                                                                                                ",
"                                                                                                                                ",
"                                                                                                                                ",
"                                                                                                                                ",
"                                                                                                                                ",
"                                                                                                                                ",
"                                                                                                                                ",
"                                                                                                                                ",
"                                                                                                                                ",
"                                                                                                                                ",
"                                                                                                                                ",
"                                                                          % N 8 %                 * X *                         ",
"                          X                                           > N ,.0.g.=.8         = . . h ) ( @ <                     ",
"                      . h ~ h 2 .                                     N 7.M.i.x.S.2.8     . 1 _ `.:XrXrX$..                     ",
"                    . Q ;X8X6X*XQ.^ 3 .                           = 7 3.u.4.c.j.N.r.=.X 2 @.;X8X0XtXtXtX$X5 s                   ",
"                    @ #XtXtXtXtXtX8X+X..5 . # . . . . # o o + 1 1 X -.0.f.z.y.u.l.r.Z.N Y rXeXtXtXeXtXtXtX( X                   ",
"                  O ` 8XtXtXtXtXtXtXtXtX@XX.m _ U._.|.+X X+X@X@X) 7 g.A.S.y.p.>.>.6.M.G 6 *XeXtXrXtXtXtXtXI.o                   ",
"                  . Y.tXtXtXtXtXtXtXtXtXtXtX8XtXtXtXtXtXtXtXtX<Xj G c.4.z.t.C # . 9 K e $ ! +.&X5XrX9XtXtX/..                   ",
"                  . {.tXtXtXtXtXtXtXtXtXtXtXtXtXtXtXtXtXtXtXtX@X- :.j.y.x.=.$ A -.X X q A B 7 g _.1X{.R.@.Q +                   ",
"                  # $XtXtXtXrXeXtXtXtXtXtXtXtXtXtXtXtXtXtXtXtX!.$ q.y.b.w.p u y.1.X F 6.r.r.a.B 1 g O 7 e 8 u * y               ",
"                  # %XtXeXtXtXtXtXtXtXtXtXtXtXtXtXtXtXtXtXtXtX@.0 s.z.d.r.V - &.8 r 7.M.k.p.N.4.r o :.t.z.w.9.,.V               ",
"                  . `.tXtXtXtXtXtXtXtXtXtXtXtXtXtXtXtXtXtXtXtX@.7 9.j.j.v.:.q 9 X L z.j.M.b.w.v.*.& =.8.b.n.l.k.-.X             ",
"                  . ^ G.=XtXtXtXtXtXtXtXtXtXtXtXtXtXtXtXtXtXtX`.O ,.M.i.i.S.:.N X *.N.j.y.C.m.c.;.. $ y >.r.r.u.>.;             ",
"                  = . O .XtXtXtXtXtXtXtXtXtXtXtXtXtXtXtXtXtXtX1Xz N s.S.u.j.n.>.# D x.p.d.b.b.z.D % L X B h.f.M.:.o             ",
"                  l . X.tXeXtXtXtXtXtXtXtXtXtXtXtXtXtXtXtXtXtXtX).- w =.*.=.A w . ; 3.y.c.n.t.6.0 B s.q V 0.j.h.J               ",
"                  * n ;X8XtXtXtXtXtXtXtXtXtXtXtXtXtXtXtXtXtXtXtXwX`.) > # : k { ^.k 8 -.g.8.-.8 . 7 C X S x.N.0.8               ",
"                %.. ~.tXtXeXtXtXtXtXtXtXtXtXtXtXtXtXtXtXtXtXtXtXtXtX<X=XoX@X<XeXtX@X' # 7 % X % K 9 & C 7.B.i.*.0               ",
"                < n ,XrXtXtXtXtXtXtXtXtXtXtXtXtXtXtXtXtXtXtXtXtX7XrXtXtXtXtXtXtXtX5XrX{.!.~.( * 8.5.5.z.x.j.3.7                 ",
"                . #.tXtXtXtXtXtXtXtXtXtXtXtXtXtXtXtXtXtXtXtXtXtXtXtXeXtXtXtXeXtXtXtXeXtXtXeX#X5 D a.l.e.D.7.V o                 ",
"              E @ |.tXtXtX8XtXtXtXtXtXtXtXtXtXtXtXtXtXtXtXtXtXtXtXqXtXtXrXtXtXtX0XrXtXtXrXrXtXW.* N >.7.=.e . .                 ",
"              < j <XtXtXtXtXtXtXtXtXtXtXtXtXtXtXtXtXtXtXtXtXtXtXrXtXtXtXtXtX9XtXtXtXtXtXtX9XtX9X].x $ $ : _ Y.= M               ",
"              . ` tXtXtXtXtXtXtXtXtXtXtXtXtXtXtXtXtXtXtXtXtXtXtXtXtXtXtXtXtXtXeXtXtXtXrXtXtX7XtX0X1X{.~.%XqX>Xj 4               ",
"              . I.tXtXtXtXtXtXtXtXtXtXtXtXtXtXtXtXtXtXtXtXtXtXtXtXtXtXtXtXtXtXtXtXtXtXtXtXtXtXtXtXtXtXtXtXtX8X~ @               ",
"              . _.tXtXtXtXtXtXtXtXtXtXtXtXtXtXtXtXtXtXtXtXtXtXtXtXtXtXtXtXtXtXtXtXtXtXtXtXtX8XtXtXtXtXtXtXtXtX ..               ",
"              .  XtXtXtXtXtXtXtXtXtXtXtXtXtXtXtXtXtXtXtXtXtXtXtXtXtXtXtXtXtXtXtXtXtXtXtXtXtXtXtXtXtXtXtX<X}.I.j # < l k l W F.  ",
"            3 + ~ #._.-XtXtXtXtXtXtXtX8XtXtXtXtXtXtXtXtXtXtXtXtXtXtXtXtXtXtXtXtXtXtXtXtXtXtXtXtXtXtXtX8X) 3 3 @ . l | o.] [ F.  ",
"  W O , i d O . @ 5 3 U.tXtXtXtXtX-X_ m '.tXtXtXtXtXtXtXtXtXtXtXtXtXtXtXtXtXtXtXtXtX8XP.n `.tXtXtXtXtX8X@X@X1X ..               ",
"              .  .1X1X<XtXtXtXtXtXY.. . m <XtXtXtXtXtXtXtXtXtXtXtXtXtXtXtXtXtXtXtXtX'.# @ j 1XtXtXtXtXtXtXtXtX ..               ",
"              . _ tXtXtXtXtXtXtXtXX.. # 5 -X8XtXtXtXtXtXtXtXtXtXtXtXtXtXtXtXtXtXtXtX#.. . 5 ;XtXtXtXtXtXtXtXtX~ 1               ",
"              s j 1XtXtXtXtXtXtXtX@.. . n <XtXtXtXtXtXtXtXtXtXtXtXtXtXtXtXtXtXtXtXtX!.. . j ,XtXtXtXtXtX8X_.Y.h =               ",
"              P O #.!._.6XrXtXtXtX@X^ n '.tXtXtXtXtXtXqXqXtX&XE.E.|.8XtXtXtXtXtXtXtX,X_ j _.tXtXtXtXtXtX6XX.5 . . # O k [       ",
"          G.I , . . j #.9XtXtXtX8XtX8X<XtXtXtXtX3XeXtXqXqX'.t H H t O.wXtXtXtXqXtXtXtX8X<XtXtXtXtXtXtXtXtXtX$.. / G.T.O.}       ",
"        P < v ^ 3 3 |.tXtXtXtXtXtXtXtXtXtXtXtXtX3XtXwXrXtX) T K.J.V.a >XtXtXtX3XtXtXtXtXtXtXtXtXtXtXtXrXtX1XE X                 ",
"                  . ..rXtXtXtXrXtXtXtXtXtXtXtXtXtXeXtXqXtXL.t R V.a E wXrXtXtXtXtXtXtXtXtXtXtXtXtXtXtX8X8X~..                   ",
"                  E + R.$XU.!.rXtXtXtXtXtXtXtXtXtXtXqXqXtXyX(./ I O.yXeXtXqXtXtXtXtXtXtXtXtXtXtXtX8X;X~ ~ 4 .                   ",
"                  T.O . 4 3 #.tXtXtXtXtXtXtXtXtXtXrXtXeXtXqXqXtX4X4XqXeXtXtXtXrXtXtXtXtXtXtXtXtXtXtXrX+.# . . d F.              ",
"                XXU X . . _ <XtXtXtXtXtXtXtXtXtXtXtXtXtX2XtXtXtXtXtXtXqX9XtXtXtXtXtXtXtXtXtXtXtXtX8XtXU.. <     X s H.          ",
"              } O         . ) @XtXtXtXtXtXtXtXtXtXtXtXtXtXtXtXqXqXtXtXqXqXtXtX3XtXtXtXtXtXtXtXtXtX8X@.. i         M -           ",
"            c ,             . 5 I.<XtXtXtXtXtXtXtXtXtXtXtXtXtXtXtXtXtXtXtXtXtXtXtXeXtXtXtXtXtX9X{.~ . c                         ",
"                              i . h #.-X8XtXtXtXtXtXtXtXtXtXtXtXtXtXtXtXtXtXtXtXtXtXtXtXtX<X`._ @ .                             ",
"                                  = . 5 m P.|.1XtXtXtXtXtXtXtXtXtXtXtXtXtXtXtXtX8X6X;X[.+.b o . s                               ",
"                                        X O . 5 ~ _ #.^.}.oXOX X X XoXOX+X[.!.#.) n , . . X I                                   ",
"                                              f = O . . . . . O @ O . # O . . . X , d                                           ",
"                                                                                                                                ",
"                                                                                                                                ",
"                                                                                                                                ",
"                                                                                                                                ",
"                                                                                                                                ",
"                                                                                                                                ",
"                                                                                                                                ",
"                                                                                                                                ",
"                                                                                                                                ",
"                                                                                                                                ",
"                                                                                                                                "
};
