/* XPM */
static char *_843b7fa781349d2816a9446844c466arEXMFOeW1V7WZrY1[] = {
/* columns rows colors chars-per-pixel */
"64 64 238 2 ",
"   c #1D152D",
".  c #2F1934",
"X  c #481F3D",
"o  c #201D40",
"O  c #332249",
"+  c #25285A",
"@  c #372857",
"#  c #2B2E68",
"$  c #33316C",
"%  c #383678",
"&  c #47244B",
"*  c #54264C",
"=  c #492A59",
"-  c #592B58",
";  c #652D59",
":  c #722F5F",
">  c #462E63",
",  c #522F63",
"<  c #49326A",
"1  c #583269",
"2  c #483779",
"3  c #583775",
"4  c #663369",
"5  c #773468",
"6  c #673A78",
"7  c #773B78",
"8  c #863C77",
"9  c #883971",
"0  c #92407F",
"q  c #3A3C88",
"w  c #443C84",
"e  c #493D87",
"r  c #573D84",
"t  c #413F95",
"y  c #6A3D83",
"u  c #763D85",
"i  c #6D3C92",
"p  c #3C4295",
"a  c #4C408D",
"s  c #57418D",
"d  c #464498",
"f  c #584598",
"g  c #6A428B",
"h  c #7A4289",
"j  c #674696",
"k  c #784897",
"l  c #484AA8",
"z  c #574CA9",
"x  c #4B4FB1",
"c  c #4B51B8",
"v  c #5451B4",
"b  c #5953B8",
"n  c #664CA6",
"m  c #794CA5",
"M  c #6850AD",
"N  c #7750AC",
"B  c #694CB7",
"V  c #6854B8",
"C  c #7756BA",
"Z  c #6938D4",
"A  c #753DD9",
"S  c #733CEF",
"D  c #4C57C4",
"F  c #5858C7",
"G  c #595DD4",
"H  c #685AC7",
"J  c #765CC8",
"K  c #7540DA",
"L  c #665DD4",
"P  c #5961DA",
"I  c #6863DC",
"U  c #7A63D7",
"Y  c #7943E8",
"T  c #7747F3",
"R  c #7349F1",
"E  c #754AFD",
"W  c #7B4BFC",
"Q  c #5D66E6",
"!  c #5E6EF7",
"~  c #5F6FF9",
"^  c #6568E9",
"/  c #7968E4",
"(  c #736BEE",
")  c #7C6CEE",
"_  c #646DF5",
"`  c #6C6EF5",
"'  c #656DF9",
"]  c #6A6DFB",
"[  c #736DF3",
"{  c #7A6DF1",
"}  c #7669FD",
"|  c #6472FE",
" . c #6C73FE",
".. c #6B7CFF",
"X. c #7473FD",
"o. c #7974FA",
"O. c #7B73FE",
"+. c #833E93",
"@. c #884387",
"#. c #974488",
"$. c #874896",
"%. c #964998",
"&. c #A64B96",
"*. c #AF4B94",
"=. c #AB4E9A",
"-. c #B34E9A",
";. c #884DA4",
":. c #974DA1",
">. c #8951AA",
",. c #9A52A8",
"<. c #914EB4",
"1. c #8658BA",
"2. c #9758B9",
"3. c #AA53A7",
"4. c #B854A7",
"5. c #A94EB2",
"6. c #A959B7",
"7. c #B85AB6",
"8. c #C656A9",
"9. c #C85CB8",
"0. c #D55DB7",
"q. c #DB61BE",
"w. c #E160BD",
"e. c #875CC7",
"r. c #975DC4",
"t. c #945FD0",
"y. c #A95DC2",
"u. c #B85BC3",
"i. c #8B60CE",
"p. c #9A61CC",
"a. c #8865DA",
"s. c #9965D7",
"d. c #A962CB",
"f. c #B662CA",
"g. c #A867D8",
"h. c #AC69DD",
"j. c #BD66D2",
"k. c #B867D6",
"l. c #B369DC",
"z. c #BB6ADB",
"x. c #8345E5",
"c. c #8446EB",
"v. c #8C49EC",
"b. c #894AF4",
"n. c #844CFB",
"m. c #8B4CFA",
"M. c #944CF5",
"N. c #994EF5",
"B. c #954DF9",
"V. c #8551F5",
"C. c #8756FE",
"Z. c #8A54F9",
"A. c #8C54FC",
"S. c #9354FB",
"D. c #9B51FA",
"F. c #A750F0",
"G. c #8569E7",
"H. c #8D6AE6",
"J. c #836CEC",
"K. c #8C6CEB",
"L. c #936AE5",
"P. c #9B6BE4",
"I. c #9865EC",
"U. c #926CEA",
"Y. c #9B6DEA",
"T. c #8A6FF1",
"R. c #866DF9",
"E. c #936DF1",
"W. c #8872F7",
"Q. c #8373FC",
"!. c #8B73FB",
"~. c #9571F4",
"^. c #9C71F4",
"/. c #9775FC",
"(. c #A36BE3",
"). c #AA6BE2",
"_. c #A46EEB",
"`. c #AB6EEA",
"'. c #B36DE4",
"]. c #BB6DE3",
"[. c #B56FE9",
"{. c #A470EE",
"}. c #AC70EE",
"|. c #BA71EC",
" X c #A573F5",
".X c #B574F4",
"XX c #C65CC8",
"oX c #CD5ED5",
"OX c #C763CA",
"+X c #D963C5",
"@X c #D467CF",
"#X c #DC66CD",
"$X c #C566D7",
"%X c #CC67D2",
"&X c #C468D6",
"*X c #CC68D4",
"=X c #C36ADB",
"-X c #CC6BDB",
";X c #D464D3",
":X c #D468D3",
">X c #DB69D3",
",X c #D863D9",
"<X c #D46CDB",
"1X c #DB6CDB",
"2X c #E466CA",
"3X c #EB66C9",
"4X c #E966CA",
"5X c #F167C9",
"6X c #F369CD",
"7X c #E36AD4",
"8X c #EC6AD3",
"9X c #E46DDB",
"0X c #EB6DDA",
"qX c #F46BD2",
"wX c #F96DD7",
"eX c #FC70DD",
"rX c #C25EE2",
"tX c #C36DE3",
"yX c #CA6EE2",
"uX c #D66DE1",
"iX c #C671EA",
"pX c #D671E7",
"aX c #CE74F1",
"sX c #EB6DE2",
"dX c #B18CFF",
"fX c #BFA1FF",
"gX c #C4A6FC",
"hX c #C5A9FE",
"jX c #C9ADFE",
"kX c #CEB3FF",
"lX c #D7C4FF",
"zX c #D9C7FF",
"xX c #DDCEFF",
"cX c #E0CFFF",
"vX c #E2D2FF",
"bX c #F4EFFE",
"nX c #F6F1FF",
"mX c #FAF6FF",
/* pixels */
"} C.C.C.C.V.C.C.V.C.C.C.C.V.V.C.C.C.V.Z.A.Z.V.A.A.A.A.A.A.A.V.A.A.A.A.A.A.A.A.S.S.A.A.S.S.S.V.Z.S.S.S.S.S.S.S.S.S.S.S.S.S.S.D.rX",
"C.kXbXbXnXnXnXnXnXnXnXnXnXnXnXnXnXnXbXbXbXnXnXnXnXnXnXnXnXbXnXnXnXnXnXnXnXnXbXbXnXnXnXnXnXnXnXnXbXnXbXnXnXbXnXbXbXnXbXbXbXbXfXN.",
"C.nXvXgXjXjXjXjXjXjXjXjXjXjXjXjXjXjXjXjXkXjXjXjXjXjXjXjXjXjXjXjXjXjXjXjXjXjXkXkXjXjXjXhXjXjXjXjXjXjXjXjXjXjXhXjXjXjXjXjXhXnXxXM.",
"C.nXfXS W E Z R W E E W W W W W W W n.W Z T n.n.n.n.n.n.m.Y A m.c.A b.m.m.A A A A M.M.x.v.M.Z M.M.M.M.N.v.A x.x.F.N.F.M.S zXxXv.",
"C.nXhXW ] ] ^ d l [ O.O.O.Q.Q.Q.!.!.J 2 V E.K.U.U.U.Y.Y.Y._.3 t.`.s.).).'.r.<.<.y.].z.k.aXh h uX$X*X*XuX%.3.OX& #X+XXX$XM.xXxXY ",
"V.nXhXE ' ~ | _ p % d l v b b b z e e J T.H.K.U.U.L.P.P.P.`.1.= r..X'.h.l.l.z.=X=X&X-XpX$.- *X:X:X>X>X0X#.#.-.* 9 9 9 +.c.xXcXK ",
"V.nXhXE ' ~ _ '  .^ x d d w e d b U W.T.G.K.K.U.U.L.L.P.P.P.}.1.= g g.|.iXiXtXtXiXyXu.4 & OX<X%X>X:X9.9.#.+X+X3X+X3X5XoXN.xXxXv.",
"C.nXhXE ' ~ ' _ _  .X.X.O.O.O.Q.Q.W.J.W.!.K.K.U.U.L.P.P.P.P.(.`.).k 1 3 3 y k $.6 1 - $.<X<X%X:XXX%.7.#.=.0X3X3X3X6XwX;XM.xXxXN.",
"C.nXhXE ' ~ ' ' ' ' ` ` [ ( ( ) ) ) W.M e H.H.H.L.L.P.P.{.}.(.(.).[.g.2.>.>.$.,.>.6.&XuX*X*X*X:X7.4 @.9.7X9.8X-.*.3X-.oXv.cXxXN.",
"C.nXhXE ' ~ ' ' ' ' ` [ [ { { { ) W.J $ f M /.~.^.^.P.{.N k _.(.).h.).'.].].tXtXyX=X$X$X*X*X*X>X7.- - %.7X&.=.2X3Xq.*.,XN.xXxXN.",
"C.nXgXR ' ~ ' ' ' ' ` [ [ { { { Q.W.2 e M e f f j C Y.N 3 > p.`.).).h.l.l.l.z.z.j.=X&X$X*X*XOXsX- . &.>X7X=.8 2XqX4.8 oXN.xXxXN.",
"C.nXgXY ' ~ ' ' ' ' ` [ [ { { { a w M J.K.a.U C 2 < @ > N 3 e.`.).).h.l.l.].k.j.yX6.j.-X*X*X1X%.7 7.&.#X0X+X8XwXeX0.#.,XN.xXxXN.",
"Z.nXhXE ' ~ ' ' ' ' ` [ [ { { % z ) W.K.K.K.E.E.^. Xa.i.j < s.`.).).h.h.].2.1 6 1 6 6 6.<X%X<X3.4 #.=.=.&.#.#.0 5 ; ; u M.xXxXv.",
"C.nXhXE ' ! _ _ ' ' ` [ [ O.w z !.J.J.K.K.K.K.U.L.L.Y.Y.{.j p.`.).).h.'.k.= y.d.h yXy.4 f.<X%X<XXX3.3.4.4.4.4.-.-.-.8.XXN.xXxXN.",
"C.nXhXE  .| |  . .' ` [ o.H % Q.) J.J.T.K.K.H.U.U.Y.P.P.{.N 3 }.h.h.'.r.O 6 2.h =X$.h ,.h <X%X:X>X9X7X7X7X8X8XqXqXwXqX,XN.xXxXN.",
"C.nXhXE l # D P P  .` ` O.d z Q.I U !.@ e /.U.U.U.L.P.P.P.P.< s.`.h.[.1 = 2.;.1 f.u 1 $Xu f.<X:X:X:X@X7X7X#X3X2X3X3X5X;XN.xXxXN.",
"C.nXhXZ l P + # $ F X.( O.w F Q.I f J.f V G.C H.a.  C  Xs._.3 r.`.h.h.k 6 k aX2.f.j.u.pX$.6.<X:X:X@X9X9.4.wXq.3X8X3X5X;XN.xXxXN.",
"C.nXhXA P c P | _ % ` ` O.w b Q.V V J.!.!.J   a.Y.M C N (.(.3 p.`.h.'.>.g.k.$.u k ,.-X-X%.3.<X:X@X9X%.- ; - 8 5 q.6X3X;XN.xXxXN.",
"C.nXgXW l $ Q D l l v X.X.F w Q.L / J.T.C f n C a. Xn 1._.i.< `.h.[.2.;.l.y >.f.iX:.6.pX%.7.<X%X1X4.4 +X7X@.2X-.; qX5X;XN.xXxXN.",
"C.nXgXE G x _ % d P d X.[ O.w z !.J.J.K.G.V n s L.Y.C C .Xg j }.).g.y l.d., y.k.=Xh f.f.%.<X*X:X:X7 9.5 3.#X#.0.- ; w.,XN.xXxXN.",
"V.nXhXR F x Q Q ^ ^ d X.( [ { % z W.!.T.K.T.~.~.L.L.Y. X1.@ (.(.`.r.g |.l.2.y ;.$.6.yX1 6.<X%X1X7.@.>X* %.4.4 8.4.X 8 sXM.xXxXv.",
"C.nXhXR G D l '  .P d X.[ { { { e % H U T.~.~.~.^. XP.j @ t.`.h.).h.g r.iXaXaXtX=X=X4 :.uX%X%X1X%.3.9X9.#X9.9.wX#.9 *.,XM.xXxXv.",
"C.nXhXE  ...l P X.x F X.[ { { { Q.V w $ 2 f n j j r < 2 s._.(.(.h.`.p.1 6 h $.$.h 4 ,.uX$X*X%X1X%.4.7X7X=.#.0 =.3Xw.-.9XM.xXxXN.",
"C.nXhXA F x l  .Q x ` [ [ { { { ) W.!.K.U V f r s N a.{.Y.P.(.(.).h.'.h.k y 6 7 ;.j.yX$X*X*X*X1X3.3.sX3.4.0X0.&.#.6X#.XXD.xXxXM.",
"V.nXhXE Q P  .x q ' ` [ [ ( { { ) ) J.K.T.~.~./.^.^.Y.P.P.(.(.(.).).g.h.|.iXiXiXyX=X&X$X*X*X*X:X:X%.@X7.#.8X+X-.5 qX0.+.B.xXcXx.",
"V.nXhXR ^ D q p _ ' ` [ o.O.{ { ) J.J.K.T.K.K.H.L.L.P.P.P.(.(.(.).h.[.|.l.l.k.k.z.&X&X-X-X*X*X:X1X3.7 0X3.=.&.8 q.3X6X:.v.cXxXM.",
"C.nXhXY l p P  .' ' ` X.b v { ) ) J.J.T.f @ a.U.U.L.P.P.P.(.(.(.h.'.>.h [.z.].z.=X=X-X6 4 *X*X:X:X9X&.@.7X8XeXeXeXeX8.:.D.xXxXN.",
"C.nXhXE  .| | _ _ ' X.F % w v Q.) J.!.V 2 2 e /.L.U.P.P.P.(.(.(.`.p., y ;.l.y.f.f.yXh h 7 3.<X:X:X@X9X3.7 #.=.&.0 5 5 oXB.xXxXN.",
"C.nXhXE ' ! ' ' _ ` X.q L b + Q./ / !.2 U V @ /.E.L.P.P.P.(.(.g..Xm , ;.6 6 6 = O & - $.4 :.1X:X:X:X@X9X+X&.8 8 8 *.5X,XN.xXxXN.",
"C.nXhXE ' ~ ' _ _  .` d b z o e e w 2 e z f   V C Y.P.P.P.(.(.}.p.3 >.'.l.k.].f.f.f.j.u.$.3.uX%X:X:X>X#X7X0XwXwXwXwX5X;XN.xXxXN.",
"C.nXhXE ' ~ ' |  .^ G l ( ( / I / / U J.U a.s f @ 2 Y.P.P.P.}.k 3 p.'.l.l.z.l.z.=X=X&X-X-X4 3.1X:X:X>X#X#X2X3X2X3X3X3X;XN.xXxXv.",
"V.nXhXE ' ~ | Q x F d F O.{ { { W.W.J.J.T.K./.V   < {.P.P.}.1.> `.`.h.l.l.l.z.z.z.=X$X$X<X3.& :X:X>X>X#X#X7X0.8X3X3X5X,XB.xXxXv.",
"c.mXhXE ' ! | x q D ^ [ ^ O.z V / L J H U G.H.a.M @ L.Y.P.(.< p.`.g.h.[.].l.l.k.=X=X&X$X$XuX- 3.1X:X>X#X0X=.; &.wX6X3XXXM.xXxXN.",
"V.nXhXE ' ~ | G + + b [ b I / ) L z !.M n K.K.s . O Y.P._.1.3 }.).[.[.3 y iXiXtXz.. $.pXOXpX4 @.9X@X>X#X8X5 #.5 9 #.5 u v.xXxXv.",
"C.nXhXE ' !  .+ + G ` ` d d { Q.b z T.J V K.K.a.J @ N _.{.m j .Xr.k '.6 k ].1 >.tX$.,.:.OXpX4 %.1X@X#X>X0X- &.9.8.0.3X;XD.xXxXN.",
"C.nXhXE ' | c p c F X.X.L [ O.!.V z !.K.K.K.U.H.a.@ s {._.k j }.g.k r.|.].l.1 >.=XpXy.h *X<X- 7.>X:X>X#X8 #.8X8XqX6X5X;XN.xXxXN.",
"C.nXhXE ' | l q D c v b b v z a 2 % e z @ f M n r j P.P._.1.< .X1.k h.l.l.h k 6 h =X&X,.-X6.- 1X:X:X7X; #.0X2X2X2X3X3X;XN.xXxXN.",
"C.nXgXE ' ~ | D l l x v v F H b b b H J.U a.a.H.^.^.P.P.P._.> m .X).h.l.l.d.d.y.j.=X&XpXuX- 3.1X@X9X#.7 eX#X2X8XqX3X3X;XN.xXxXN.",
"C.nXgXR ] ~ '  . .X.X.X.X.o.O.Q.Q.Q.W.K.T.K.K.U.L.L.P.P.P.(.s.> j '.|.'.'.].].tX=X=XpXf.& h uX%X:X>X4 9.7X2X8X8.-.5XwX9XN.xXxXM.",
"C.nXgXR ] ~ ' _ _ ` ` ` [ { { ) ) ) J.K.J.K.~.~.^.Y.P.P.P.(._.`.3 = m d.d.d.z.z.f.6.h & $.uX%X:X>X9.8 7X#X+XeX8 * wX#.%.D.xXxXv.",
"V.nXgXE ' ~ _ _ _ ' X.[ [ { { { ) ) J.K.T.U n s r e.^.P.P.(.(.(.[.2., = , 3 6 1 = 1 h j.pX%X*X:X>X7.@.0X+X@.4.8X2XqX#.u D.xXxXv.",
"C.nXhXE ' ~ |  . .' I X.[ { { { ) J.J.T.z f C e.J > i.{.P.(.(.(.h.[.|.h.l.k.d.d.j.yXpX$X$X*X*X:X>X9.#.7X7X&.=.8X8X8.#.%.x.xXxXN.",
"C.nXhXE ' | P q l % # q ( [ { { ) J.W.f n /.f 2 ~.r > n _.(.(.(.).h.h.l.[.z.tX=X=X&X&X$X*X<X*X:X:X>X%.+X7X=.+X8X3X3X8.XXN.xXxXN.",
"V.nXhXE ] ! # P d l X.l q [ { { ) W.V z /.G.2 f L.e.L.< i._.(.(.).).h.[.>.3 2.tXz.=X&X$X-X7.*X:X:X>X9.=.#XeX8X2X2X3X6X,XN.xXxXM.",
"V.nXhXE ] # q _ G X.d b v z O.) ) W.V / T.K.K.U.s 2 i.< s.(.(.(.).h.'.r.3 2., =Xz.z.&X-X6 & 7 1X:X:X>XOX&.&.0.8XeXeX6X;XM.xXxXc.",
"C.nXgXW t + G l % ^ # d o.d ( { { / f G.U V n J n n e.O i._.(.(.h.h.[.g >.d.. j.=XyXpX,.4 f.& :X:X:X#X7X2X=.; ; 5 5 : +.c.xXxXN.",
"C.nXhXE q % D Q x  .^ I O.l L { { / e K.n J a.2 L.a.r > k }.g.`.`.'.g.k >.;.= k h 7 @.4 ,.6.. :X1X@X#X#X7X0X8X9.-.-.0.XXN.xXxXN.",
"C.nXhXE F c P _ c l G X.o.v H O.{ J.a K.V a./.C j i.j @ e._._.1.N p.>.>.|.].].f.f.y.$.3.%.%.. :.7.1X#X#X#X2X2X8XqXqX6X,XN.xXxXN.",
"C.nXhXE c ~ G q c ^ v F O.F I { ) W.a U U z C a.2 Y.e.C _.P.}.g g d.d.'.[.l.d.z.tX-XyX-X-X*X:.@.* @.9X#X#X2X2X2X3X3X3X,XN.xXxXN.",
"C.nXhXY G | $ Q X.X.v G ( z o.) ) W.V f /.a.f 2 M L.n Y.P.(.(.j O , g.2.>.].g d.y.j.:.f.-X*X1X@.. #.9X#X#X2X2X8XqX8XwXXXM.xXxXN.",
"C.nXhXA _ | D p l x x O.q v O.) ) J.W.a M /.~.H.^.a.j Y.P.}.1.  g p.'.r.6 d.z.tX$.6.j.:.6.<XOXOX4 @.0X#X#X2X8X+X5 5 5 +.c.xXxXN.",
"C.nXhXZ ' | | ^ Q ^ X.l d O.( { ) J.K.K.2 2 a.~. XC r {._.e.r r.j 2.|.r.k d.z.f.u j.j.@.6.<X6.- . %.9X#X#X2XwX5 *.0.9 ,XD.xXxXN.",
"C.nXhXY t D Q _ _ P d d o.{ { { ) J.J.K.T.f @ < r 2 i.Y._.i.r >.r.p.p.d.].iXiXtX6 =XyX-X-X<X:XOX- 8 9X#X7X2X#.* 0.*.5Xu.x.cXxXN.",
"C.nXhXE G # + % q p F X.[ { { { ) J.J.J.K.!.K.J V L.Y.P.P._.s.N k k g 6 6 y 6 6 7 h 6.u ,.u.f.OX@.& 7X#X7X=.8 4.-.5 8.5.A cXxXN.",
"C.nXhXE  .| Q Q _  .X.` [ { { { ) ) K.!.K.H.K.~.^.Y.P.P.P.(.(.`.[.[.'.h.d.y.2.;.h h y.h 7 $.:.@.7 7.>X#X7X4.8 8 qX-.w.,Xv.xXxXM.",
"C.nXhXE ' ! | | ' ' I [ [ ( ( ) ) J./ V K.K.K.U.L.L.P.P.P.(.(.(.h.h.h.l.'.].tXtXyXyX$XuXuX<X<X1X9X>X#X#X7X4.9.+X8.#.#.5.B.xXxXM.",
"C.nXhXE ' ~ ' _  .x # F O.O.Q.Q.Q.W.a 2 M ~.H.U.U.L.P.P.P.(.(.(.).h.'.[.l.l.z.z.z.j.&X-XuX%X%X%X@X:X#X>X#X#.2X&.8 4.3XXXc.cXxXN.",
"C.nXhXE ' ~ ' _ ' # l d v d a w f e a V e /.H.U.U.L.P.P.P.(.(.(.h.'.p.>.].l.z.z.z.j.yX:.h :X*X:X:X:X#X9X#.4.wX5 8.wXwXu.c.cXxXN.",
"C.nXhXE ' ~ '  .P # F G v F z 2 e f V 2 a /.H.U.L.L.L.P.P.(.(.(.).g.1 3 2.iXz.z.=XpX,.4 4 6.<X:X:X:X>X#X8 +X8X0.9 0 *.5.D.xXxXN.",
"C.nXhXE } ] ] L z L } } R.R.R.!.!.!.R.J.B a.E.I.I.I.I.I.I.P.P.P._.e.i e.j m i i i m y 2.;.<.tXz.=X$X$X-X;.u.,X,X,XXXXXrXM.xXxXN.",
"C.nXgXS n.W T A n.n.W n.n.n.n.W W n.n.n.T Y n.n.n.n.n.n.n.m.m.m.m.c.Y b.b.Y c.Y Y A c.c.Y b.B.m.M.M.M.B.b.Y M.M.M.B.B.b.S zXxXN.",
"C.mXbXlXzXzXzXzXzXzXzXzXzXzXzXzXzXzXzXzXzXzXzXzXzXzXzXzXzXzXzXzXzXzXzXzXzXzXzXzXzXzXzXzXzXzXzXzXzXzXzXzXzXzXzXzXzXzXzXzXlXmXxXN.",
"C.gXzXzXzXzXzXzXzXzXzXzXzXzXzXzXzXzXzXzXzXzXzXzXzXzXzXzXzXzXzXzXzXzXzXzXzXzXzXzXzXzXzXzXzXzXzXzXzXzXzXzXzXzXzXzXzXzXzXzXzXzXdXF.",
"} W W W W Y W W W n.T A n.n.n.n.T Y n.n.n.T Y n.n.n.n.n.n.m.Y n.m.m.m.m.m.m.m.m.m.m.m.m.m.B.Y b.B.M.B.B.M.M.M.M.M.M.M.M.M.N.F.oX"
};
