/* XPM */
static char *_3bdecbfcd314e4fa83c53fb06dc65f047jLAq1HYnhHqVkn[] = {
/* columns rows colors chars-per-pixel */
"64 64 5 1 ",
"  c #8F3A36",
". c #9F4440",
"X c #B0524F",
"o c #C0A0A1",
"O c #D2B5B7",
/* pixels */
"XXXXXXXXXXXXXXXXXX..ooXXXXXXXXXXXXXXXXXX..ooXXXXXXXXXXXXXXXXXX..",
"XXXXXXXXXXXXXXXXXX..ooXXXXXXXXXXXXXXXXXX..ooXXXXXXXXXXXXXXXXXX..",
"XX................  OOXX................  OOXX................  ",
"XX................  OOXX................  OOXX................  ",
"XX................  OOXX................  OOXX................  ",
"XX................  OOXX................  OOXX................  ",
"XX................  OOXX................  OOXX................  ",
"..                  oo..                  oo..                  ",
"..                  oo..                  oo..                  ",
"ooOOOOOooooooOOOOOooooooOOOOOooooooOOOOOooooooOOOOOooooooOOOOOoo",
"ooOOOOOooooooOOOOOooooooOOOOOooooooOOOOOooooooOOOOOooooooOOOOOoo",
"XXXXXXX..ooXXXXXXXXXXXXXXXXXX..ooXXXXXXXXXXXXXXXXXX..ooXXXXXXXXX",
"XXXXXXX..ooXXXXXXXXXXXXXXXXXX..ooXXXXXXXXXXXXXXXXXX..ooXXXXXXXXX",
".......  OOXX................  OOXX................  OOXX.......",
".......  OOXX................  OOXX................  OOXX.......",
".......  OOXX................  OOXX................  OOXX.......",
".......  OOXX................  OOXX................  OOXX.......",
".......  OOXX................  OOXX................  OOXX.......",
"         oo..                  oo..                  oo..       ",
"         oo..                  oo..                  oo..       ",
"ooOOOOOooooooOOOOOooooooOOOOOooooooOOOOOooooooOOOOOooooooOOOOOoo",
"ooOOOOOooooooOOOOOooooooOOOOOooooooOOOOOooooooOOOOOooooooOOOOOoo",
"XXXXXXXXXXXXXXXXXX..ooXXXXXXXXXXXXXXXXXX..ooXXXXXXXXXXXXXXXXXX..",
"XXXXXXXXXXXXXXXXXX..ooXXXXXXXXXXXXXXXXXX..ooXXXXXXXXXXXXXXXXXX..",
"XX................  OOXX................  OOXX................  ",
"XX................  OOXX................  OOXX................  ",
"XX................  OOXX................  OOXX................  ",
"XX................  OOXX................  OOXX................  ",
"XX................  OOXX................  OOXX................  ",
"..                  oo..                  oo..                  ",
"..                  oo..                  oo..                  ",
"ooOOOOOooooooOOOOOooooooOOOOOooooooOOOOOooooooOOOOOooooooOOOOOoo",
"ooOOOOOooooooOOOOOooooooOOOOOooooooOOOOOooooooOOOOOooooooOOOOOoo",
"XXXXXXX..ooXXXXXXXXXXXXXXXXXX..ooXXXXXXXXXXXXXXXXXX..ooXXXXXXXXX",
"XXXXXXX..ooXXXXXXXXXXXXXXXXXX..ooXXXXXXXXXXXXXXXXXX..ooXXXXXXXXX",
".......  OOXX................  OOXX................  OOXX.......",
".......  OOXX................  OOXX................  OOXX.......",
".......  OOXX................  OOXX................  OOXX.......",
".......  OOXX................  OOXX................  OOXX.......",
".......  OOXX................  OOXX................  OOXX.......",
"         oo..                  oo..                  oo..       ",
"         oo..                  oo..                  oo..       ",
"ooOOOOOooooooOOOOOooooooOOOOOooooooOOOOOooooooOOOOOooooooOOOOOoo",
"ooOOOOOooooooOOOOOooooooOOOOOooooooOOOOOooooooOOOOOooooooOOOOOoo",
"XXXXXXXXXXXXXXXXXX..ooXXXXXXXXXXXXXXXXXX..ooXXXXXXXXXXXXXXXXXX..",
"XXXXXXXXXXXXXXXXXX..ooXXXXXXXXXXXXXXXXXX..ooXXXXXXXXXXXXXXXXXX..",
"XX................  OOXX................  OOXX................  ",
"XX................  OOXX................  OOXX................  ",
"XX................  OOXX................  OOXX................  ",
"XX................  OOXX................  OOXX................  ",
"XX................  OOXX................  OOXX................  ",
"..                  oo..                  oo..                  ",
"..                  oo..                  oo..                  ",
"ooOOOOOooooooOOOOOooooooOOOOOooooooOOOOOooooooOOOOOooooooOOOOOoo",
"ooOOOOOooooooOOOOOooooooOOOOOooooooOOOOOooooooOOOOOooooooOOOOOoo",
"XXXXXXX..ooXXXXXXXXXXXXXXXXXX..ooXXXXXXXXXXXXXXXXXX..ooXXXXXXXXX",
"XXXXXXX..ooXXXXXXXXXXXXXXXXXX..ooXXXXXXXXXXXXXXXXXX..ooXXXXXXXXX",
".......  OOXX................  OOXX................  OOXX.......",
".......  OOXX................  OOXX................  OOXX.......",
".......  OOXX................  OOXX................  OOXX.......",
".......  OOXX................  OOXX................  OOXX.......",
".......  OOXX................  OOXX................  OOXX.......",
"         oo..                  oo..                  oo..       ",
"         oo..                  oo..                  oo..       "
};
