/* XPM */
static char *_f41acaa916e4f53dc5a315910595f9a89dBHGVfXVDrEMq7[] = {
/* columns rows colors chars-per-pixel */
"64 64 161 2 ",
"   c #030303",
".  c #0A0A06",
"X  c #060609",
"o  c #08070C",
"O  c #07080B",
"+  c #0B0B0C",
"@  c #10110E",
"#  c #0E0E11",
"$  c #0E0E18",
"%  c #100F15",
"&  c #0F1112",
"*  c #131313",
"=  c #16151A",
"-  c #18171D",
";  c #17181B",
":  c #1B1B1D",
">  c #201F1B",
",  c #1D1D22",
"<  c #1E1E29",
"1  c #201F25",
"2  c #201F2D",
"3  c #1F2025",
"4  c #222225",
"5  c #282925",
"6  c #25242A",
"7  c #28272D",
"8  c #27282C",
"9  c #2C2C2D",
"0  c #31312F",
"q  c #262631",
"w  c #282734",
"e  c #2C2C33",
"r  c #2E2D39",
"t  c #302F35",
"y  c #312F3C",
"u  c #2F3035",
"i  c #333333",
"p  c #383836",
"a  c #34333B",
"s  c #38373D",
"d  c #37383D",
"f  c #3B3B3B",
"g  c #363541",
"h  c #383743",
"j  c #3B3B43",
"k  c #3D3C49",
"l  c #403F45",
"z  c #434343",
"x  c #484846",
"c  c #43434C",
"v  c #48474C",
"b  c #4A4A4B",
"n  c #50504E",
"m  c #474653",
"M  c #494752",
"N  c #4A4A53",
"B  c #4E4E5A",
"V  c #504F56",
"C  c #504F5D",
"Z  c #535354",
"A  c #53535C",
"S  c #5C5C5C",
"D  c #61615F",
"F  c #565661",
"G  c #585661",
"H  c #5B5B63",
"J  c #5D5C6A",
"K  c #636364",
"L  c #666668",
"P  c #6C6C6C",
"I  c #70706E",
"U  c #6E6E73",
"Y  c #737373",
"T  c #7B7B7B",
"R  c #838383",
"E  c #85848A",
"W  c #8C8C8C",
"Q  c #91918F",
"!  c #8C8C90",
"~  c #939393",
"^  c #969699",
"/  c #98979C",
"(  c #9C9C9C",
")  c #A0A09E",
"_  c #9E9EA1",
"`  c #A1A1A1",
"'  c #A3A3A3",
"]  c #A4A4A3",
"[  c #A7A9A8",
"{  c #A9A9A9",
"}  c #ABABAB",
"|  c #ACADAF",
" . c #AFAFAF",
".. c #ACACAC",
"X. c #B5B5B7",
"o. c #B7B7B7",
"O. c #B4B4B4",
"+. c #B4B4B4",
"@. c #B6B6B8",
"#. c #BCBCBC",
"$. c #BBBBBB",
"%. c #C3C3C3",
"&. c #C4C4C2",
"*. c #C4C4C4",
"=. c #C8C8C6",
"-. c #C6C6C8",
";. c #C9C9CB",
":. c #C8C8C8",
">. c gray81",
",. c gray80",
"<. c #CBCBCB",
"1. c #CECDD2",
"2. c #D0CFD5",
"3. c #D1D1D3",
"4. c LightGray",
"5. c #D3D3D5",
"6. c #D3D3D3",
"7. c #D6D8D7",
"8. c #D4D3D8",
"9. c #D7D7D9",
"0. c #D7D9D8",
"q. c #D8D8DA",
"w. c #D9D9DB",
"e. c gray86",
"r. c #D9DADC",
"t. c #DBDBDD",
"y. c #DBDDDC",
"u. c #DDDDDD",
"i. c #DCDCDE",
"p. c #DBDBDB",
"a. c #E1E2DD",
"s. c #DFDEE3",
"d. c #DEDEE0",
"f. c gray89",
"g. c #E0E0E2",
"h. c #E5E5E3",
"j. c #E4E4E6",
"k. c #E4E5E5",
"l. c #E9EAE6",
"z. c #E7E9E8",
"x. c gray91",
"c. c #EBEDEC",
"v. c #ECECEC",
"b. c #F0F1EC",
"n. c #EDEDF1",
"m. c #F1F1F1",
"M. c #F3F3F3",
"N. c #F6F7F2",
"B. c #F4F4F5",
"V. c #F3F3F3",
"C. c #F9F9F7",
"Z. c #F9FAF6",
"A. c #F7F7F9",
"S. c #F7F6FA",
"D. c #F8F8F8",
"F. c #F9F9F9",
"G. c #FBFBFB",
"H. c #FDFDFD",
"J. c #FEFFFF",
"K. c white",
"L. c #FDFDFC",
/* pixels */
"i i i 9 9 i i 9 p p 9 i i p p p p 9 e : : 4 , e p i f i 9 i i p i 9 i 9 p p 9 i e 9 p i p i p 9 0 i 0 9 i i i i 9 i i p 9 i i i ",
"p 9 p p 9 i 9 p p f 9 z i : 4 9 5 * X * X X * X * b p 9 p p p 5 i p i i i p x i i p 9 i p i i p z 9 i p f i i * * 9 9 i 9 i i i ",
"9 i 9 i i 9 i p b p p i * * ; X X 5 : T +.>.E p i * z K T p p S x p p x p i Y T 9 9 i b p 9 i b I D Z p p p : + 4 4 * ; p i 9 p ",
"9 i i i p p f p i p f 9 p L * Z : 9 9 P S P 4 f ` p * b T i K W x ^ z b S 4 Y T i Z 9 L Q 9 p p p T b p f 5 X * * X 4 9 p 9 p 9 ",
"i p 9 9 x b p p Y ^ L p z + 5 * 9 ( W ` W  .~ ~ F.T   9 S K } p K ( x +.W 4 , ; A ~ 9 R v.` W &.;.K p b z 9 * + X + : + 4 i i i ",
"p p p x ( S x i b e.^ 9 X f ~ * Y H.H.H.F.H.F.H.5.v o * ; z B.-.H.[ Y c.( 5 4 p e x T A.H.V.x.H.H.u.r.+.f z > X + 4 9 4 : p 9 i ",
"9 9 f Z S ~ } Z P F.M.%.~ #.f.` ( d.4.5.e.e.;.L 4 = ; o 5 j 8.d.7.0.y.r. .4 4 a 7 , 5 U e.r.9.4.4.e.f.k.~ f 5 X p p 4 9 p p 9 p ",
"i p p 9 Z P Z R ` 4.M.H.>.4 9 i p 5 e 5 : 4 e t 5 e * o 9 1 5 5 9 4 9 9 : 9 4 : 7 9 9 e 5 * 9 9 9 5 9 , S } + * p : X * : * 9 i ",
"i i p p x b x 5 b u.N.C.+.4 j e a e 3 6 e s a s 4 4 4 # 9 1 9 e e e 9 e 4 4 , : : ; 5 p s p 6 6 a a j 7 b h.  9 i X ; * ; : 5 i ",
"i i p p p x p K ^ B.b.F.-.6 s e - 6 a j j e e 6 4 5 ,   9 4 ; , : : : * 4 X o # # X X X * i s e 4 e g t Z ) @ z 9 X * * ; * * 4 ",
"i 9 p p i f f +.n.M.l.H._ , j 6 , u 5 a e e e , 1 e i - - ; o + X + X 5 X , , 6 : 9 ; + X o : p ; , 6 7 4   T E : + + * ; * ; p ",
"p i f p f b 9 Z A.F.v.B.b e e 3 6 6 9 9 u 6 e 6 4 , , ; O + o + * X Z (   e , , e i 6 7 7 , * o + o # o   p L j p ;   * i p p p ",
"i i p i p L Y P ( #.H.B.A e s , - e a 6 4 d j 9 9 : X o ; + X +   x f. .  9 4 , 4 : - t k 7 1 6 4 & 9 9 : ( >.H 9 * + 9 i 9 9 i ",
"i p ; 9 5 5 z R S [ B.H.V 6 a , 6 - e e j e 9 : * o # * 9 : *   f u.H.$.X 5 , i 5 p 5 , a s a a 9 3 e k :  .e.L z * X p f p p i ",
"i 9 ; 5 X i p i 9 ) F.M.A e i ; e e 8 e , ; ; ; + X * * 4 ; X * ` x.x.S   + # ; ; * 4 7 t a s j , - a a :  .#.b b * X 9 f p i 9 ",
"p : * 9 * i * * p R B.H.Z 6 a : r s e 8 + X & . + * X + X # % ^ M.B.;.x P + # + .   + * 5 : * 4 ; , e j 6 ` H.} 9 + * i p i i i ",
"p : X * * : * z p n f.H.A 6 a , r j : X + 5 9 + 4 ; : - 9 o 4 u.x.v.v.F.;.+ * . + : o * o O # * + + 5 p : _ H.[ +   * f p * 5 p ",
"9 p * X * * p x 5 Z F.+., j t ; a , X * e j : X : 3 i 9 6 5 W G.H.H.F.H.$.o & * + 8 e 5 5 # ; # + * + + * 4 9 *   p Y p * + 9 5 ",
"p i p 4   * 9 S ] e.H.+.: a a : , X * 7 9 5 + X 1 8 e 6 9 s x.4.~ ` %.H.K o 3 9 X + s e e : : 9 9 * * , # o   X   P T : * 9 * + ",
"9 i p z 4 X X L H.H.H.O.1 j 1 * + * ; e 6 ; * . 9 9 a 6 , p S 0 i 9 5 Y i # 5 i : + * 5 = a : , a - 9 j 7 p -.%.%.R b ; * + > i ",
"p 9 i p f : X X z b Z p * : # O + 9 ; 4 e , * + i 9 j e 6 , b ' -.=. .Z 5 4 4 e 9 , o * : ; 5 = e - w i i j B.H.F.S 9 4 X X ; : ",
"9 p p z p f R P X X   X o # o * = 9 5 5 7 , + * e e a e 4 p >.$.` [ O.6.^ 6 q a 9 a # + ; 5 5 : s 5 6 a e j x.B.T p K   X * * * ",
"p p i p 9 Y 4.H.4.L 4 9 # = : 5 e , 5 9 9 6 # ; 6 j 6 e 6 p E S x x Z W R , 5 a 6 p s # o , , ; e e 1 p i f H.H.~ P :   p f 9 9 ",
"i f p b z ( v.x.B.H.N.Y 5 p 5 4 g 6 , 9 9 , O 4 a a - e 6 7 z b K S z x b 4 8 e j 6 j e * o o o ; = * 4 - 5 Y T R * * Y b f i i ",
"i f f b ;.S ( T K ` k.v 7 a 6 4 d a 6 6 7 + X > k 6 1 e 5 : Z Y S Y P v p 5 6 e r s 9 p i 5 3 , - o + @ X X         p E p p i i ",
"9 i W Y x.p * ; _ : #.A e g , 4 a a a j 4 X * t e e e 6 9 i P b ; 5 P L 9 e 6 6 , j , ; 3 s a s a 6 ; * * + * * + + X X 4 p p i ",
"p z b f K R 4 ; K 9 k.N 6 a , , g a a i * o ; - 6 h , e 1 t U x * : S P i , 9 6 6 6 , 5 ; 6 r a y 6 ; + # + T u.;.>.b   + 4 f i ",
"9 p 9 * ; Y #.*   -.C.b e g , 6 a a p 4 X + 5 , e s 6 7 9 4 S Y b K Y b 9 e 6 e 1 , 4 : : - y y a 5 # + e 4 _ H.F.F.( 4 + X : p ",
"i 9 5 ; * X S b + e.H.b e r , 9 a e 6 * X * 5 6 , p 6 e 7 5 p S P P b f b 5 , e 5 , 6 5 e - a r e % o 4 j = ^ H.>.Y Z 9 X + * 9 ",
"i p * + * 9 P * * f.v.f e a ; i s 9 + X * 5 4 ; , i , 6 4 p P x x f x P P 4 8 9 , 6 : o ; : a j , + ; 9 a 6 / F.;.f p 4 X * * 5 ",
"9 p i i 4   Z R # ~ o., p s , : * * X # * : * + # o # o 5 f ;.] R R ^ 4.[ 5 ,   # o o * X * 4 i 4 X * 9 a 7 H v.H.~ 9 * * ; * * ",
"i 0 i : X Z X : o * z 9 7 ; * + + X ; 5 9 # . + ; ; 4 ; # ; I &.6.6.;.R p * ; 3 , 5 4 + * : X ; @ @ * 5 s y e x.M.S * * 9 X : * ",
"i i 5 9 K H.(   # + X + X + X * , 9 e 9 * o : t e 6 l : # : b 9 b b z p b X o i e k j a 6 5 6 ; X ; - 6 d i d k.H.P X p 9 + 5 p ",
"9 p p z ` f.H.[ X X * ; 5 * ; 9 9 4 # * X : s e , t e 4 , * S P Y L R x.S o 3 6 e 6 e j e 4 t , X * : 9 i 9 d x.B.M.L p z ; 4 p ",
"i p p p p P R Y P + X * 4 9 : 9 5 : + + ; i 7 , , 6 6 7 , X : F.H.F.H.+.  6 5 , 4 6 8 6 9 , i 4 + + o , a e p j.B.H.R 9 p 4 4 p ",
"i i 9 p f 9 P Z $.` + + X * * 4 * + % ; : a ; 6 e , 5 9 * o x M.F.x.F.x.b 6 6 , ; 4 6 , e # , - X : # * i a s n.M.F.^ 9 9 9 p 9 ",
"9 i p p i 5 p S ..H.Y ; : X # # O * ; i , 6 , 5 7 i , 7 #   ^ H.v.F.~ [ K , 6 < , 6 6 , e - 4 # * p 4   : e p 2.F.u.+.S z p f p ",
"p i i b R P  .>.l.M.z e p 4 : 4 4 5 4 9 - 9 , e , , 4 4 o 9 6.F.v.M.i * ; 9 5 , 4 e 5 - i 9 4 X - a 9 o * i 4 E H.f.Y K f f 5 p ",
"9 p L 9 S L ;.F.M.M.s e a , 4 p 4 4 6 , e s , 6 5 = 6 # o e v.v.x.B.`   + 5 4 i 6 1 , 6 p , o * q a 9 + X 4 , E H.B.4.Y p p p 9 ",
"i z f T e.+.k.B.B.M.l i e 6 , s e 6 6 6 s a e 4 - 6 ; + * j v.x.M.e.x X + X # 9 a , 6 u : # : i g a 5 ; * + o ! H.M.>.P p p 9 i ",
"i i p T M.H.x.x.x.v.l e i : 6 a r g e a g e h g i ; # # 5 j v.v.0.S   * X ; : o * + * + # e a a a g 4 : : *   W H.v.R Z i 9 X 4 ",
"i i 9 : S b 5 9 5 5 o : 5 * 9 a d e s s e j a e : # * : 5 f k.v.Y   * * X 9 , : # : : , a e a a g r 6 , 9 *   K H.B.b S p X i 9 ",
"i : * X     X       o X X X : 5 4 4 5 6 9 - ; s 4 o 4 9 9 ; Y } ; X + X X 4 4 e e e M m g a g y r g a - 9 5 X X $.H.v.v.z X Z ; ",
"4 X   ; 4 ~ -.#.;.T # ; * * X # & X X o o e M s , 4 e = 5 - X * X * X & X 9 4 5 7 , , c A k y y r r a : 5 a 4 o ; Y %.#.p f * ; ",
"* + 4 9 S >.H.B.H._ - j 7 ; 4 6 & # , , c c e r 5 e , * i , + * + X * * X ; = : e 6 , q e c B N k w s , 5 p e ,         X + * * ",
"* X i L P W u.H.F.^ 1 j e : g r j c A k r e m y : 6 a 5 7 - X X . * + X + + # - : ; z s s e a s G M V , 6 i j e ^ } ` P ; * * * ",
"*   S [ f x } O.H.^ , a e : c m M j 6 , e F a g 6 ; e 6 5 4 o * + + X + + 9 , # # = e N g c s - # , e ; : ; 5 8 x.H.( p i z 9 i ",
"@ ; i i b ( T f a.^ , s 4 6 j < 6 , e c H e k g e , , , e , o + + + @ * X 5 5 : 6 6 c w B y e B c z 5 # o + o X z R S 9 p p p 9 ",
"4 9 : i S x ( 4.H.^ , s 5 , 6 a a m B m q a J 2 e 6 j ; e ; * X X * + + X 9 , - k 6 k c 6 A a , c M A 3 6 6 ; o     @ i i p p i ",
"4 : : b b f e.F.M.Y 6 s 6 : k N c c e , a H r k 6 j A # 9 :   * * X + * o 5 , 5 A q e A 6 q G k , , a 5 3 a i 3 L b   ; p i 9 f ",
"0 9 p Y T 4.B.B.z.a a j , , a j , , 6 m A e s c , M j = u : + + + X + + + e : : J k < c m e 6 N A g j e , a p 6 ( F.Z   ; f p i ",
"i 0 b i Y F.B.M.k.s t a 4 e j a a s M M , e A e e c e , 5 : + + * @ * + o 9 , 6 A k q w A k r , j g j 6 1 i h 6 P H.O.+ X 4 9 i ",
"i z b b %.;.;.F.x.i e s - ; a e g k c e e m k < s A 6 , e :       X X X o 9 6 - h A r e e N k g j h s , : i s - Y H.$.4 + ; p i ",
"9 p p f Z K ( u.v.x s k p i l s , - 6 a j G e e k M q 6 8 5 9 9 9 p 9 p 9 6 5 , k A y a q s s e 6 , 6 j i z l e ~ F.P 9 X * i i ",
"i p p p i : Z k.C.H.A.B.G.v.M.n._ ^ v i k , 4 a F c 6 e 3 v v.B.B.M.M.H.$.9 3 e < A k j 5 , i e P E @.B.v.M.n.n.H.( : 5 * X * 9 ",
"i p p z f R ( L ( #.1.5.>.v.M.B.G.H.x.k.[ R Z 9 c $ 6 e : z B.B.M.M.B.G.#.: 6 u , , c 8 U ! #.n.n.H.F.B.M.M.B.M.k.Y 9 9 X * * * ",
"9 i 9 Z L R Y i i p 9 R  .u.H.$.P 6.M.H.H.H.v.x.+.Y K ; i -.M.M.M.F.>. .>.x * 9 T T ;.f.F.H.B.B.v.M.M.$.F.x.Y S f f i * * * : + ",
"i i 5 p p p 9 f p p b ( x.-.R T i K E $.;.M.n.e.e.H.v.e.} k.H.v.B.x.b b ` x.e.6.v.F.F.H.v.x.-.M.F.H.~ 9 L u.^ 9 9 i p * : * * * ",
"p 9 p f 9 f f p x 9 S u.#.p 9 9 p i i p z L P P p ;.H.$.9 ( F.B.H.R i p i ( T S P $.H.x.H.+.Y P O.E 5 i 5 p Y S 9 p p * 9 ; 4 9 ",
"i 9 p p 9 f p p z 9 Z ~ p p z f p f f i z p i f 9 S O.p 9 f [ 4.~ i f i p 9 i p i f -.H.-.f 9 p 4 5 p i p p 5 9 9 z 9 + 4 X 5 i ",
"i p i i i i 9 p p 9 p p i i p i p p p f p p p p p p i i p p : p 9 f p z 9 p f 9 z 9 z ( p p 9 f p z p i p f 9 b p x i 5 9 : i p ",
"9 9 9 i 9 i p 9 i p i i i i 9 i 9 i 9 f 9 p p i p p 9 f i i p i p p 9 9 i p i f p p 9 9 e i p p p p 9 i 9 p p 9 p p p p i 9 9 i ",
"i i i i i 9 i p 9 p 9 9 p 9 9 i 9 p 9 p i i 9 e 9 p p p 9 9 i i 9 p i i 9 i i i p p f i f i i 9 t i i i f p 9 i i 9 i p 9 p 9 i ",
"i i 9 9 p i 9 9 i i i 9 9 9 p i i i i 9 p 9 i i i i 9 i 9 i i 9 p 9 i i i i 9 i 9 i i p i i 9 i i 9 p i 9 p 9 i i i 9 i i i i i "
};
