/* XPM */
static char *_fa7809a6c7342d7d8af9771be71918bHn2rvl8t3HUTRG3i[] = {
/* columns rows colors chars-per-pixel */
"64 64 239 2 ",
"   c #000000",
".  c #0B0304",
"X  c #0E050A",
"o  c #0E0A04",
"O  c #140506",
"+  c #130609",
"@  c #1E090A",
"#  c #180808",
"$  c #1D1207",
"%  c #090A11",
"&  c #060A11",
"*  c #140A11",
"=  c #1A0913",
"-  c #1B0B19",
";  c #19111B",
":  c #210A09",
">  c #2A0B0C",
",  c #350D0E",
"<  c #26140A",
"1  c #35150D",
"2  c #230C14",
"3  c #230C1B",
"4  c #2B0F1B",
"5  c #280D14",
"6  c #360F13",
"7  c #2C101E",
"8  c #3C1212",
"9  c #32101A",
"0  c #361119",
"q  c #2D0E2A",
"w  c #2D0F26",
"e  c #2B1121",
"r  c #2E1129",
"t  c #231321",
"y  c #331123",
"u  c #33122B",
"i  c #3B142C",
"p  c #3B1729",
"a  c #3D1633",
"s  c #3E1935",
"d  c #371431",
"f  c #441212",
"g  c #45151D",
"h  c #4E171E",
"j  c #4A1716",
"k  c #55181E",
"l  c #5C1A1D",
"z  c #521916",
"x  c #4F0D10",
"c  c #6A1D1C",
"v  c #631B1C",
"b  c #7E1218",
"n  c #710F1A",
"m  c #4A2714",
"M  c #583115",
"N  c #6E2D1D",
"B  c #441624",
"V  c #44162E",
"C  c #49162D",
"Z  c #4B1A2D",
"A  c #471A29",
"S  c #511B2D",
"D  c #5A1827",
"F  c #411733",
"G  c #431935",
"H  c #4B1B35",
"J  c #451A38",
"K  c #4C1C39",
"L  c #491730",
"P  c #531D35",
"I  c #5A1E36",
"U  c #531E3B",
"Y  c #5A1F3A",
"T  c #681C2B",
"R  c #731728",
"E  c #4B222E",
"W  c #5A232E",
"Q  c #4C2437",
"!  c #532435",
"~  c #5B2233",
"^  c #56213E",
"/  c #5C213C",
"(  c #582C35",
")  c #58363C",
"_  c #64202E",
"`  c #6A262E",
"'  c #77272A",
"]  c #69322A",
"[  c #632135",
"{  c #6C2135",
"}  c #63223C",
"|  c #6C243D",
" . c #672C34",
".. c #732435",
"X. c #7C2634",
"o. c #742C36",
"O. c #73263E",
"+. c #7A273C",
"@. c #7B283F",
"#. c #772C38",
"$. c #663A39",
"%. c #763535",
"&. c #7D332A",
"*. c #7C451E",
"=. c #774439",
"-. c #6B463A",
";. c #562140",
":. c #5D2343",
">. c #632442",
",. c #6C2641",
"<. c #6C2A43",
"1. c #732740",
"2. c #762841",
"3. c #7B2940",
"4. c #783242",
"5. c #6E5046",
"6. c #684942",
"7. c #940E0E",
"8. c #87121B",
"9. c #971116",
"0. c #970F10",
"q. c #A61213",
"w. c #B91612",
"e. c #A30F0F",
"r. c #B4201E",
"t. c #862724",
"y. c #952C28",
"u. c #963828",
"i. c #832A3D",
"p. c #8C2C3D",
"a. c #862933",
"s. c #932C3D",
"d. c #9C2E3F",
"f. c #922C35",
"g. c #8C3534",
"h. c #84363A",
"j. c #8A3539",
"k. c #863B36",
"l. c #993736",
"z. c #B6382F",
"x. c #A52E39",
"c. c #A63539",
"v. c #B63738",
"b. c #A5362C",
"n. c #9A1820",
"m. c #C43C35",
"M. c #C83A36",
"N. c #D63D39",
"B. c #834C1E",
"V. c #864436",
"C. c #984736",
"Z. c #835035",
"A. c #985638",
"S. c #8F4F24",
"D. c #A6472B",
"F. c #A74836",
"G. c #B64837",
"H. c #A6573A",
"J. c #B95837",
"K. c #B44D2D",
"L. c #9C623C",
"P. c #AA663D",
"I. c #BC6C3A",
"U. c #BD713F",
"Y. c #B66E2D",
"T. c #C44B34",
"R. c #CA4C34",
"E. c #C7493A",
"W. c #D9433A",
"Q. c #D74B37",
"!. c #C75837",
"~. c #D85837",
"^. c #CD522C",
"/. c #E14E37",
"(. c #E65B33",
"). c #E85E33",
"_. c #E65B39",
"`. c #E35535",
"'. c #CB6337",
"]. c #D96538",
"[. c #D8783B",
"{. c #CA692E",
"}. c #EA6434",
"|. c #ED6B35",
" X c #EA643A",
".X c #ED6D3A",
"XX c #E36838",
"oX c #ED733B",
"OX c #EA7739",
"+X c #F17436",
"@X c #F47B37",
"#X c #F2793B",
"$X c #F06C34",
"%X c #842B41",
"&X c #8B2C41",
"*X c #922E42",
"=X c #9B2F40",
"-X c #8A3441",
";X c #9B3041",
":X c #983E42",
">X c #A63440",
",X c #954742",
"<X c #975943",
"1X c #854E40",
"2X c #AB4642",
"3X c #B24640",
"4X c #8F654A",
"5X c #BB6B41",
"6X c #AF7043",
"7X c #C76345",
"8X c #C87943",
"9X c #DC7944",
"0X c #D27955",
"qX c #E77746",
"wX c #EA6E41",
"eX c #E4843E",
"rX c #F7873B",
"tX c #FA923A",
"yX c #ED903E",
"uX c #BA9260",
"iX c #D48D4C",
"pX c #E78845",
"aX c #F48843",
"sX c #E7974A",
"dX c #F99847",
"fX c #FBA74C",
"gX c #E4A450",
"hX c #E9AB54",
"jX c #F5AB57",
"kX c #FDB655",
"lX c #EDB255",
"zX c #C09960",
"xX c #F1B16D",
"cX c #FFC35C",
"vX c #D1C17F",
"bX c #FCCD71",
"nX c #EFD98A",
"mX c #FED78C",
"MX c #FFE68E",
/* pixels */
"  . f &.~.u.8                       o 1 t.~.aXkXD.1                         : f ~.aX'.N ,                         8 b. Xb.j .   ",
"  8 T.aXD.1 1 @                     . @ z ~.fXfXu.O                         . z pXqXt.N 1 .                     @ 1 t._.aXT.8   ",
". y.dXfXR.K.u.O                       j R.dXcXkX].f                         : !.kXaXQ.~.z                       O u.OXaXkXdXy.o ",
"# G.gXgX[.pXJ.O                       ] pXhXhXhXiXv                         l [.gXgXsXpXv                       O J.sXgXhXgXG.# ",
"A o.j.j.j.j.o.B .                   2 [ h.j.j.j.h.W 2                     2 T #.j.j.j.h.W 2                   . B o.j.j.j.j.o.A ",
"~ 2.3.*Xd.*X2.S .                   5 | 2.%Xd.d.%X| 5                     5 | %X*Xx.d.3.| 5                   . S 2.&X=Xx.%X2.~ ",
"* G :.>.,.>.H * X + + + + X X X X O + 7 ;.:.>.,.:.7 X + + O + + + + O + + X 7 :.,.,.,.;.e + + X X X X + + + + X * H >.,.1.>.G * ",
"e P | 2.} } / 7 4 0 S 9 9 4 4 B A 0 9 p | | } | ,.p 2 0 g ' g 7 0 g X.D 0 2 p 2.O.} | 1.p 9 0 A B 4 4 9 9 S 0 4 7 / { } 2.| P e ",
"Z %X*X*X&X*X&XB   O _ .       y B   = | &X*X&X*X*X| =   . Z .     . / y   = ..*X=X*X*X*X..=   B y       . _ O   B &X=X*X&X*X&XS ",
"@.| O.O.} { O.{ 7 4 I y 3 3 3 p p 2 B { { { } [ ..{ B = - i 3 = - 3 a u = B ..{ { { { ....A 2 p p = - 3 y I 4 7 { +.+.+.| X.O.{ ",
"O.O.O.O.U U | O.O.O.O.O.O.| | } | | | O.| / K U | | } U H } | H U O.| } Y I | I G U O.| O.| | O.| U U O.O.O.O.O.O.| U U O.| | / ",
"@.| / >.K K / ,.>.} } >.1.@.| } >.^ :.>.:./ U U / ;.:.>.:.} / H H P H U >.>.U / U U / :.>.:.^ >.} U K >.>.} } >.,./ K K >.:.} { ",
"1./ / } Y / / } ^ G K / @.@.| / U H J ^ / Y / / } } U U K u i H P H P / } } } / / / Y / U J U } } Y F H U H G ^ } / / Y } Y U } ",
"| } O.2.1.O.1.1.| K >.1.,.,.1.1.| | K | ,.,.1.1.| O.P i H P U / } / / / } } | | 1.,.,.1.| K | 1.1.O.| O.| } H | ,.1.O.@.@.@.O.| ",
"Y K ^ ^ U H U ^ U H U ^ U K U ^ K U K U K H U ^ Y / } | | O.O.| | O.O.| } } Y Y ^ H K ^ U H U ^ U H U ^ ^ U H U U U U } } } } U ",
"} | | O.U U | O.O.O.O.O.O.U U | O.| | | p w H } | | O.@.@.@.@.O.| @.@.@.@.O.| | } P H } O.O.O.O.>./ } O.O.O.O.O.O.| U U O.O.O.O.",
"} } / >.K K / ,.>.} } >.>.U U } >.U H U P Y / } O.O.@.@.@.@.2.O.O.2.@.@.@.@.@.O.} / } / } / U } } / } >.>.} } >.,./ K K >./ U | ",
"} H P } Y / / } ^ G U } } Y / } } H H / | | | } O.2.3.i.i.i.X.j.a.X.i.i.i.3.2.O.} O.| | / K u H / / Y } ^ K a H U / / Y } / V U ",
"| O.@.@.@.@.2.2.| H } O.1.1.1.| / U } | | O.@.O...X.T h k 6 8 m < @ 6 k h T X...O.@.@.O.| } K / 1.1.,.,.1.>.K } ,.2.@.1.1.O.} Y ",
"| O.@.@.| } ,.1.| } } ,.,.>.,.^ H } } | O.3.X.' g O .     f c   O j       . @ l _ i.%X%XO.} } J K ^ U ,.,.| } ,.,.1.@.1.,.,./ Y ",
"@.@.@.O.K U | 2.1.1.[ } | Y K K Y } | 2.%X+.6 : 8   . ,   c m.f   j # .       M < l i.%X%X| / U H H Y 1.1.O.1.1.2.| } } 1.,.1.| ",
"O.| 1.} H K U ^ U G u i V i G Y } } | %Xi.9   . , . . t.m f M.m.c > . m o   . z l O 9 +.3.| } } Y G H ^ ^ H H H U U K H ^ U U / ",
",.| @.O.O.O.O.O.} H ^ ,.| K / | | @.| ..9   : # 8 ' 8 8 B.: t.N._.T.c 8 : l y.z.f     9 { | 3.O.| / } O.O.} H P } O.| | O.O.| O.",
"O./ } >.>.} } >.} H / >.^ K } | O.%Xi.h     O <   t.z.O . # : j R. X_.c v Q.W.j         h @.%X@.| } Y | } U F } :.} } O.O.O.| } ",
"Y U / } / I / } / Y / } U / | | i.p...+       O c m.t.> c z.z.j z ~.rXG.v ~.Q.j         + ..p.i.O.| / U } / I / I Y K Y } } } } ",
"| 1.,.1.O.O.O.2.1.1.O.1./ | | @.p.s.h       . t.N.y.l x.G.#XrXR.b.OXwXc.y.~.$Xm.f         h s.p.3.| | / 1.O.1.1.2.| U P 1.1.O.@.",
"/ U K H F K U ^ ^ K K U U | | @.2...#       f N.m.c b.X.A.kXrX`.aXaX/.a.X.~.rX.XR.8       # ..2.@.O.| U U K K ^ ^ U H G ^ U Y O.",
"O.} Y H H O.O.O.| H } } / | @.@.i.D         ' _.~.z.T V 6XdX}.oXfXdX_.a.V l.OXrX#Xy..       D i.@.3.O./ / ^ H | O.O.O.O.O.O.| | ",
"} | O.O.| } >.:.} H U U } 2.%X%Xs.6       O z..XG.P _ J.fXdXpXsXhXsXoXQ.c._ ! 5XoXm.#       6 s.%X%X%X| Y / H } >.} } >.>.} U P ",
"} } } } Y K / / / Y U J | %X3.@.X.O       O z.R.~ q C.dXhX<X) ( ( ) 5XOX#XA.r ~ m.y..       O X.@.3.%XO.H J K / } / H K } / U H ",
"} } ,.1.Y U | 2.1.| U K / | } } [ @ .       B ~ %.A.eXsX<Xi u u u C {  .iXlXL.o.I g       . @ [ } } | } K K U O.O.| U U 1.,.1.| ",
"i ;.:.:.H K U ^ U U ,.,.,.1.,.2.,.+.{ O   . u u ( hXiX$.D { i u W _ p q $.iXlX( u u .   O { +.,.2.,.2.3.3.3.| U U U K H ^ U U / ",
"d ;.>.:.^ O.O.| / K 2.p.s.*X&X=Xp.i.k     . S u E P.$.q r D _ =.H...W V u $.P.E u S .     k i.p.=X&X*Xs.p.2.^ >.| O.O.O.O.O.| O.",
"G U >.>.>.>.,.>.} G H U @.&X%X=XD O .       8 ' J.V.q p W p &.C.! V _ &.D q V.G.' 8       . O D ;X%X&X@.U U :.>.>.:.} O.O.O.| } ",
"d G U >.:.:.^ ^ K Y Y K @.:X:X=Xl             m Z.E V %.( S ` V q u r i ` V E Z.m             l =X:X:X@.K } ,.P F G G Y } } / / ",
"d G G / >.>.,.1.,.1.O.Y %X3X:X>Xk               X u F.P.5.G r r u r s 5.P.F.u X               k >X:X3X%XK } 1.| | Y H U ,.>.^ H ",
"u a G H U ;.^ U U K K U -X7X7X2Xk               . y x..XjXzX6.u u 6.zXjX.Xx.y .               k 2X7X7X-XK H K ^ ^ U K H :.:.;.u ",
"u a G s a K U / } H } H p.qXdXv.k                 3 C m..XaX-.q q -.pX Xm.C 3                 k v.dXqXp.K ^ H | O.O.| :.:.>.^ F ",
"u d a a H } ,.>.} H } U #.C.A.g.g                 X w T M.l.i 5.5.i l.m.T w X                 g g.A.C...Y / H } >.>.>.:.>./ J a ",
"u H K Y >.>.,.} / Y ^ K [ F Y I g                   - i X.i -.hXhX-.i ' i -                   g I Y F [ K U Y U / / :.>.>.K s d ",
"H :.>.Y K :.>.1.1.2.| K O.P H +.k                 = u $. .i U.oXoXU.i  .$.u =                 k +.H P O./ O.1.,.1.,.>.>.U G s u ",
"i ;.>.G a :.>.^ U K H K 2.| P *Xl                 e s ) s i c.c.c.c.i s ) F e                 l *XP | 2.U K K ^ ^ U K J G G a u ",
"u H >.K U ;.U Y | H ^ K @.%X@.;Xl                 = H F u q i i i i r u G H =                 l ;X@.%X@.U / H | O.} U F a G a u ",
"u u K U J G s H Y H U K i.s.&X>Xv                   g C.Q Q ) i s s ) ! C.g                   v >X&Xs.i.U U H } >.,.>./ H a d u ",
"u u u d G H G J U Y / U @.%X%X;Xl                   3 C.5X4X( 4XuXQ 4X8XC.3                   l ;X%X%Xi.K J G U } >.:.:./ :.;.F ",
";.U G a K Y U | } } O.} i.&X&X>Xl                 . a o.XXsXZ.uXxXZ.5XXXo.a .                 l >X&X&Xi.H U ,.1.1.>.:.G H >.:.F ",
"H U ,.| s.p.d.1.Y F ;.U 2.&Xs.;Xl                 . u H G..XJ.]. XJ.].G.H u .                 l ;Xs.&X2.K H K ^ ^ >.:.J F >.U u ",
"i Z C { v.N.W.i.T H ;.U 3.%Xp.x.l                   + u p.!.] F.v.k.g.g.r +                   l x.p.%X2.K ^ H } K H K K ^ ;.a u ",
"F i n q.M._.+XR.q.R :.U O.%X%Xc.v                     =  .V.E C.a.o.~ k.*                     v c.%X%X2.Y ^ H U G s G G J a u u ",
";.C 9.w.~.@XrXXXw.9.} ^ @.%X&Xv.v                       *.A.( V.a.l.E N               $ < $   v v.p.%X2.U / Y / K J G s i u a H ",
"G ..r.w.^.dXfX[.w.n.>.^ @.&X%Xx.' # O . .           o m {.Y.S.Y.S.OXu.{.M $ $ $ < N B.J.J.J.B.D.x.%X%X@.} | H Y :.;.U U K U ;.;.",
"u a.Q.'.jXcXcXjXR.v.| K p.d.s.v.~.T.D d p N *.*.B.*.D.].rX#XXXoXXXoX.X.XXX!.!.!.]._.Q.i.P ..XXXXv.s.s.p.^ :.G U >.>.>./ :.U a u ",
";.s._.fXbXMXMXbXdX~.P K p.%XF.].oXR.H s Q g.Q. X#XoXW.N.Q.`.}.}.}.}.}.}.|.|._..XaXOX%.K a H T.oX'.'.'.l.:.:.K G U :.U i d u u u ",
":.*X~.cXnXvXvXnXfX~.U ^ >.:.C.OX|.g.a s H k.v.wXqXwXQ.`.`.(.).(.(.(.(.(.).).}.#XdX5XQ G G a g.|.+XrXtXH.:.:.:.^ G H a u u u u K ",
":.>.2XbXnXvXvXbXaXE.>.:.:.>.2.~.~.~ s G G J o.XXqXoX(.).|.@X+X+X).(.).}.}.(.(.|.yX=.J G G a ~ ~.).~.F.h.>.:.:.:.;.K H u i H K ^ ",
"F K #.0XxXmXmXxXG.%X>.,.,.>.U F.~.P s J s J K K.).}.XXOXtXrX|.}.(.(.+XdXdX#X}.|.J.Q H a H s P ~._.c.J G U >.>.:.>.;.J G K K a u ",
"u u u Z h.,X,Xj.O.>./ H K H u C.Q.{ J a a J F A.oXeXV.V.].}.(.).}.@XrXI.yXfXfXfXA.F J a a J { Q.}.l.K G G K } >.:.:.;.J d u i H ",
"u u r ; ; * ; 7 b T 8.D D D Z ]./.x.V u s G ^ 5XpX1Xa a H.@X+X+X+X@X]./ H.@XtXtXA.J G s u V x./.OX4.:.U K s J / >.:.:.;.u i U :.",
"u u ; % % * % % x b 0.b 8.C H J.).W.l.H s a $.pX6Xs a s H.|.}.).(.).F.d %.XX}.}.g.J F F H l.W.).!.<.:.:.:.U K / >.:.:.;.a U :.>.",
"u e % % % x 2 & x b 7.8.9.L a C.|. X Xa.d a / 9XA.H ( 1X9X`.`.`.`.(.H.u ! ]._.`.f.K a d a. X X|.F.>.>.>.>.>.:.:.:.:.:.;.J ^ ;.U ",
"u t % % * b f & , 7.w.q.b F a l.$X'.!.E.{ Z l.#XA.%.eX8X1Xc.N.N.N.`.C.F F.qXpXqXE.P u _ R.!.'.$XC.a U >.} >.>.>.>.>.:.;.G a i u ",
"u t % % % 8 2 % % , e.8.V u u C.|.V.K h.v.M.].I.! $.sX8X^ K i.Q.W.W.f.P 7X<X9XV.G.l.a.G.h.K V.|.F.u u u u G / Y Y / >.K u u u u ",
"u t % % % & % % % * 7.R J F ] XX].~ a P E.`.H.J Q 6X<X8X8X=.Q V.XXwXE.{ E.#.F.P %.].].h.J a ~ ].OXk.Z u u u J G s J ^ H u u u u ",
"u t % % % % % % % * 7.R a J F.@XXXo.a ! ].+XC.d ) 4XG ^ ,X[.I.%.J.+X.Xl.x.G.!.! ! [.C.H G a o.XX@XOX'.C.W r a G G G a u u u u u "
};
