/* XPM */
static char *_17f9480982b436bc0993330e72c1b0dYrCgRDI0hW4GnWcM[] = {
/* columns rows colors chars-per-pixel */
"64 64 156 2 ",
"   c #070707",
".  c #090909",
"X  c gray7",
"o  c gray10",
"O  c #222222",
"+  c gray18",
"@  c #343434",
"#  c #3A3A3A",
"$  c #4F1904",
"%  c #5F1B00",
"&  c #6F1F00",
"*  c #412502",
"=  c #4A2B07",
"-  c #5F370C",
";  c #543C1A",
":  c #6F2306",
">  c #7F2400",
",  c #6B3D08",
"<  c #5F3829",
"1  c #4E3830",
"2  c #653C22",
"3  c #7F3B20",
"4  c #7C4600",
"5  c #73420B",
"6  c #7C4B0E",
"7  c #6D4315",
"8  c #6F4B17",
"9  c #7A4716",
"0  c #7E521A",
"q  c #594423",
"w  c #5F4537",
"e  c #604A27",
"r  c #784C26",
"t  c #7F462F",
"y  c #69512B",
"u  c #645131",
"i  c #67573B",
"p  c #745C3C",
"a  c #424242",
"s  c #4D4D4D",
"d  c #565447",
"f  c #525252",
"g  c #555D5F",
"h  c #5C5C5C",
"j  c #6F5649",
"k  c #7F5C4B",
"l  c #73654F",
"z  c #6A6959",
"x  c #756756",
"c  c #646462",
"v  c #786F6A",
"b  c #6B706F",
"n  c #7F746E",
"m  c gray44",
"M  c #7D7D7D",
"N  c #8F2800",
"B  c #9F2D00",
"V  c #9F330A",
"C  c #AF3100",
"Z  c #BF3600",
"A  c #BF3E0C",
"S  c #C03600",
"D  c #CF3A00",
"F  c #854B00",
"G  c #844D0F",
"H  c #8E5100",
"J  c #87550C",
"K  c #88512B",
"L  c #92562C",
"P  c #8F4E35",
"I  c #975930",
"U  c #9C5C34",
"Y  c #AF4820",
"T  c #A05F38",
"R  c #A36032",
"E  c #CF430D",
"W  c #EF4300",
"Q  c #FF4800",
"!  c #8B6D45",
"~  c #866F4F",
"^  c #9F6F58",
"/  c #867050",
"(  c #887257",
")  c #9F735D",
"_  c #BF724C",
"`  c #AF7058",
"'  c #BF7C5A",
"]  c #8F7263",
"[  c #8D756A",
"{  c #9F7868",
"}  c #8F7B74",
"|  c #C9784D",
" . c #848477",
".. c #8B8478",
"X. c #BF8669",
"o. c #BC907A",
"O. c #D98254",
"+. c #DF8559",
"@. c #EF8F5F",
"#. c #DF8B62",
"$. c #FF9966",
"%. c #75888F",
"&. c #7B8A8F",
"*. c #838383",
"=. c #8B8B8B",
"-. c #968D81",
";. c #8B928E",
":. c #9F938D",
">. c #82979F",
",. c #8A999F",
"<. c #949494",
"1. c #949C9F",
"2. c #9D9D9D",
"3. c #AF978E",
"4. c #AA9E8F",
"5. c #BF9C8F",
"6. c #AF9D94",
"7. c #AFA69B",
"8. c #B0A09A",
"9. c #84A2AF",
"0. c #9CAAAF",
"q. c #95B3BF",
"w. c #A7A7A7",
"e. c #AAA7A5",
"r. c #A4ABAF",
"t. c #AEAEAE",
"y. c #BFAEA7",
"u. c #B3B3B3",
"i. c #BFB6B2",
"p. c #B3BBBF",
"a. c #BDBDBD",
"s. c #C7AEA1",
"d. c #9FC1CF",
"f. c #B4DEEF",
"g. c #C0C0C0",
"h. c #C9C6C2",
"j. c #CCCECE",
"k. c #D4D4D4",
"l. c #DDD8D6",
"z. c #DDDDDD",
"x. c #E9DFDA",
"c. c #D1E6EF",
"v. c #C0EDFF",
"b. c #C8EFFF",
"n. c #CCF0FF",
"m. c #D5F3FF",
"M. c #DFF6FF",
"N. c #E4E4E4",
"B. c #EEEEEE",
"V. c #F1EBE5",
"C. c #E3F7FF",
"Z. c #E7F8FF",
"A. c #EDFAFF",
"S. c #F6F6F6",
"D. c #F5FDFF",
"F. c #FFFFFF",
/* pixels */
"F.F.F.F.F.F.F.F.F.F.F.F.F.F.F.F.F.F.F.F.F.F.F.F.F.F.F.F.F.F.F.F.F.F.F.F.F.F.F.F.F.F.F.F.F.F.F.F.F.F.F.F.F.F.F.F.F.F.F.F.F.F.F.F.",
"F.F.F.F.F.F.F.F.F.F.F.F.F.F.F.F.F.F.F.F.F.F.F.F.F.F.F.F.F.F.F.F.F.F.F.F.F.F.F.F.F.F.F.F.F.F.F.F.F.F.F.F.F.F.F.F.F.F.F.F.F.F.F.F.",
"F.F.F.F.F.F.F.F.F.F.F.F.F.F.F.F.F.F.F.F.F.F.F.F.F.F.F.F.F.F.F.F.F.F.F.F.F.F.F.F.F.F.F.F.F.F.F.F.F.F.F.F.F.F.F.F.F.F.F.F.F.F.F.F.",
"F.F.F.F.F.F.F.F.F.F.F.F.F.F.F.F.F.F.F.F.F.F.F.F.F.F.F.F.F.F.F.F.F.F.F.F.F.F.F.F.F.F.F.F.F.F.F.F.F.F.F.F.F.F.F.F.F.F.F.F.F.F.F.F.",
"F.F.F.F.F.F.F.F.F.F.F.F.F.F.F.F.F.F.F.F.F.F.F.F.F.F.F.F.F.F.F.F.F.F.F.F.F.F.F.F.F.F.F.F.F.F.F.F.F.F.F.F.F.F.F.F.F.F.F.F.F.F.F.F.",
"F.F.F.F.F.F.F.F.F.F.F.F.F.F.F.F.F.F.F.F.F.F.F.F.F.F.F.F.F.F.F.F.F.F.F.F.F.F.F.F.F.F.F.F.F.F.F.F.F.F.F.F.F.F.F.F.F.F.F.F.F.F.F.F.",
"F.F.F.F.F.F.F.F.F.F.F.F.F.F.F.F.F.F.F.F.F.F.F.F.F.F.F.F.F.F.S.V.V.B.F.F.F.F.F.F.F.F.F.F.F.F.F.F.F.F.F.F.F.F.F.F.F.F.F.F.F.F.F.F.",
"F.F.F.F.F.F.F.F.F.F.F.F.F.F.F.F.F.F.F.F.F.F.F.F.F.F.F.F.h.p F H H H r 7.F.F.F.F.F.F.F.F.F.F.F.F.F.F.F.F.F.F.F.F.F.F.F.F.F.F.F.F.",
"F.F.F.F.F.F.F.F.F.F.F.F.F.F.F.F.F.F.F.F.F.F.F.F.F.F.F.F.( H H H H H H 0 z.F.F.F.F.F.F.F.F.F.F.F.F.F.F.F.F.F.F.F.F.F.F.F.F.F.F.F.",
"F.F.F.F.F.F.F.F.F.F.F.F.F.F.F.F.F.F.F.F.F.F.F.F.F.F.F.F.! H H 4 H H H H 4.F.F.F.F.F.F.F.F.F.F.F.F.F.F.F.F.F.F.F.F.F.F.F.F.F.F.F.",
"F.F.F.F.F.F.F.F.F.F.F.F.F.F.F.F.F.F.F.F.F.F.F.F.F.F.F.B.7 H 5 R K 5 4 H l F.F.F.F.F.F.F.F.F.F.F.F.F.F.F.F.F.F.F.F.F.F.F.F.F.F.F.",
"F.F.F.F.F.F.F.F.F.F.F.F.F.F.F.F.F.F.F.F.F.F.F.F.F.F.F.;.H 7 +.$.$.$.| 9 F  .F.F.F.F.F.F.F.F.F.F.F.F.F.F.F.F.F.F.F.F.F.F.F.F.F.F.",
"F.F.F.F.F.F.F.F.F.F.F.F.F.F.F.F.F.F.F.F.F.F.F.F.F.D.n.&.H t ' X.$.) #.U H z Z.F.F.F.F.F.F.F.F.F.F.F.F.F.F.F.F.F.F.F.F.F.F.F.F.F.",
"F.F.F.F.F.F.F.F.F.F.F.F.F.F.F.F.F.F.F.F.F.F.F.F.D.b.v.z H I ^ k +.j ' L H  .v.A.F.F.F.F.F.F.F.F.F.F.F.F.F.F.F.F.F.F.F.F.F.F.F.F.",
"F.F.F.F.F.F.F.F.F.F.F.F.F.F.F.F.F.F.F.F.F.F.F.F.n.v.v.e H 7 @.@.2 +.O.G H i v.v.D.F.F.F.F.F.F.F.F.F.F.F.F.F.F.F.F.F.F.F.F.F.F.F.",
"F.F.F.F.F.F.F.F.F.F.F.F.F.F.F.F.F.F.F.F.F.F.F.D.v.v.v.u H F , = * * 6 H H y v.v.m.F.F.F.F.F.F.F.F.F.F.F.F.F.F.F.F.F.F.F.F.F.F.F.",
"F.F.F.F.F.F.F.F.F.F.F.F.F.F.F.F.F.F.F.F.F.F.F.m.v.v.f.b u 8 H = T - H 6 q d v.v.v.F.F.F.F.F.F.F.F.F.F.F.F.F.F.F.F.F.F.F.F.F.F.F.",
"F.F.F.F.F.F.F.F.F.F.F.F.F.F.F.F.F.F.F.F.F.F.F.b.v.v.&.F.F.l H H H H H  .F.r.f.v.v.A.F.F.F.F.F.F.F.F.F.F.F.F.F.F.F.F.F.F.F.F.F.F.",
"F.F.F.F.F.F.F.F.F.F.F.F.F.F.F.F.F.F.F.F.F.F.F.v.v.&.F.F.F.c F H H H 7 j.F.F.,.v.v.M.F.F.F.F.F.F.F.F.F.F.F.F.F.F.F.F.F.F.F.F.F.F.",
"F.F.F.F.F.F.F.F.F.F.F.F.F.F.F.F.F.F.F.F.F.F.A.f.,.B.F.F.1.B...8 5 i v 1 B.F.B.&.v.M.F.F.F.F.F.F.F.F.F.F.F.F.F.F.F.F.F.F.F.F.F.F.",
"F.F.F.F.F.F.F.F.F.F.F.F.F.F.F.F.F.F.F.F.F.F.j.0.F.F.F.p.a.F.F.F.D.D.3 $ g B.F.F.,.c.F.F.F.F.F.F.F.F.F.F.F.F.F.F.F.F.F.F.F.F.F.F.",
"F.F.F.F.F.F.F.F.F.F.F.F.F.F.F.F.F.F.F.F.F.x.n F.F.F.,.9.j.F.F.F.F.X.& < ,.&.B.F.F.=.i.F.F.F.F.F.F.F.F.F.F.F.F.F.F.F.F.F.F.F.F.F.",
"F.F.F.F.F.F.F.F.F.F.F.F.F.F.F.F.F.F.F.F.F.s._ e.x.>.f.q.F.F.F.F.3.V & y.0.v.>.j.B.] w F.F.F.F.F.F.F.F.F.F.F.F.F.F.F.F.F.F.F.F.F.",
"F.F.F.F.F.F.F.F.F.F.F.F.F.F.F.F.F.F.F.F.F.o.@.x q.v.v.%.F.F.F.3.A % t F.r.v.v.d.c @.@.F.F.F.F.F.F.F.F.F.F.F.F.F.F.F.F.F.F.F.F.F.",
"F.F.F.F.F.F.F.F.F.F.F.F.F.F.F.F.F.F.F.F.F.l.:.F.n.v.v.M g.8.` E > : y.F.1.v.v.v.D.6.[ F.F.F.F.F.F.F.F.F.F.F.F.F.F.F.F.F.F.F.F.F.",
"F.F.F.F.F.F.F.F.F.F.F.F.F.F.F.F.F.F.F.F.F.F.F.F.D.v.=.W D Q E N N { F.F.a.f.v.C.F.F.F.F.F.F.F.F.F.F.F.F.F.F.F.F.F.F.F.F.F.F.F.F.",
"F.F.F.F.F.F.F.F.F.F.F.F.F.F.F.F.F.F.F.F.F.F.F.F.F.A.v S C B C B t F.F.F.B.q.m.F.F.F.F.F.F.F.F.F.F.F.F.F.F.F.F.F.F.F.F.F.F.F.F.F.",
"F.F.F.F.F.F.F.F.F.F.F.F.F.F.F.F.F.F.F.F.F.F.F.F.F.F.[ W Z B B P B.F.F.F.F.1.F.F.F.F.F.F.F.F.F.F.F.F.F.F.F.F.F.F.F.F.F.F.F.F.F.F.",
"F.F.F.F.F.F.F.F.F.F.F.F.F.F.F.F.F.F.F.F.F.F.F.F.F.F.} S S Y { F.F.F.F.F.F.2.F.F.F.F.F.F.F.F.F.F.F.F.F.F.F.F.F.F.F.F.F.F.F.F.F.F.",
"F.F.F.F.F.F.F.F.F.F.F.F.F.F.F.F.F.F.F.F.F.F.F.F.F.F.u.5.s.F.F.F.F.F.F.F.F.t.F.F.F.F.F.F.F.F.F.F.F.F.F.F.F.F.F.F.F.F.F.F.F.F.F.F.",
"F.F.F.F.F.F.F.F.F.F.F.F.F.F.F.F.F.F.F.F.F.F.F.F.F.F.t.c.g.F.F.z.a.F.F.z.g.j.z.F.F.F.F.F.F.F.F.F.F.F.F.F.F.F.F.F.F.F.F.F.F.F.F.F.",
"F.F.F.F.F.F.F.F.F.F.F.F.F.F.F.F.F.F.F.F.F.F.F.F.F.F.&.s.( ! / ; -.p ~ J -.u.t.F.F.F.F.F.F.F.F.F.F.F.F.F.F.F.F.F.F.F.F.F.F.F.F.F.",
"F.F.F.F.F.F.F.F.F.F.F.F.F.F.F.F.F.F.F.F.F.F.F.F.F.F.F.F.F.F.F.F.F.F.F.F.F.F.F.F.F.F.F.F.F.F.F.F.F.F.F.F.F.F.F.F.F.F.F.F.F.F.F.F.",
"F.F.F.F.F.F.F.F.F.F.F.F.F.F.F.F.F.F.F.F.F.F.F.F.F.F.F.F.F.F.F.F.F.F.F.F.F.F.F.F.F.F.F.F.F.F.F.F.F.F.F.F.F.F.F.F.F.F.F.F.F.F.F.F.",
"F.F.F.F.F.F.F.F.F.F.F.F.F.F.F.F.F.F.F.F.F.F.F.F.F.F.F.F.F.F.F.F.F.F.F.F.F.F.F.F.F.F.F.F.F.F.F.F.F.F.F.F.F.F.F.F.F.F.F.F.F.F.F.F.",
"F.F.F.F.F.F.F.F.F.F.F.F.F.F.F.F.F.F.F.F.F.F.F.F.F.F.F.F.F.F.F.F.F.F.F.F.F.F.F.F.F.F.F.F.F.F.F.F.F.F.F.F.F.F.F.F.F.F.F.F.F.F.F.F.",
"F.F.F.F.F.F.F.F.F.F.F.F.F.F.F.F.F.F.F.F.F.F.F.F.F.F.F.F.F.F.F.F.F.F.F.F.F.F.F.F.F.F.F.F.F.F.F.F.F.F.F.F.F.F.F.F.F.F.F.F.F.F.F.F.",
"F.F.F.F.F.F.F.F.F.F.F.F.F.F.F.F.F.F.F.F.F.F.F.F.F.F.F.F.F.F.F.F.F.F.F.F.F.F.F.F.F.F.F.F.F.F.F.F.F.F.F.F.F.F.F.F.F.F.F.F.F.F.F.F.",
"F.F.F.F.F.F.F.F.F.F.F.F.F.F.F.F.F.F.F.F.F.F.F.F.F.F.F.F.F.F.F.F.F.F.F.F.F.F.F.F.F.F.F.F.F.F.F.F.F.F.F.F.F.F.F.F.F.F.F.F.F.F.F.F.",
"F.F.F.F.F.F.F.F.F.F.F.F.F.F.F.F.F.F.F.F.F.F.F.F.F.F.F.N.m h h h =.B.F.=.h g z =.M h h h =.F.F.F.F.F.F.F.F.F.F.F.F.F.F.F.F.F.F.F.",
"F.F.F.F.F.F.F.F.F.F.F.F.F.F.F.F.F.F.F.F.F.F.F.F.F.F.N.+ .   . s k.F.F.s   . g g.s . . . f F.F.F.F.F.F.F.F.F.F.F.F.F.F.F.F.F.F.F.",
"F.F.F.F.F.F.F.F.F.F.F.F.F.F.F.F.F.F.F.F.F.F.F.F.S.j.+   . . f k.F.F.F.s X c z.N.s .   . f F.F.F.F.F.F.F.F.F.F.F.F.F.F.F.F.F.F.F.",
"F.F.F.F.F.F.F.F.F.F.F.F.F.F.F.F.F.F.F.F.F.F.F.S.a.# . . X f j.F.F.F.F.f c l.F.N.s   .   f F.F.F.F.F.F.F.F.F.F.F.F.F.F.F.F.F.F.F.",
"F.F.F.F.F.F.F.F.F.F.F.F.F.F.F.F.F.F.F.F.F.F.F.u.# .   . s j.F.F.F.F.F.w.N.F.F.z.s   .   f F.F.F.F.F.F.F.F.F.F.F.F.F.F.F.F.F.F.F.",
"F.F.F.F.F.F.F.F.F.F.F.F.F.F.F.F.F.F.F.F.F.F.u.# . . . s z.F.F.F.F.F.F.S.S.F.N.*.o   . X u.F.F.F.F.F.F.F.F.F.F.F.F.F.F.F.F.F.F.F.",
"F.F.F.F.F.F.F.F.F.F.F.F.F.F.F.F.F.F.F.F.F.u.# .     a N.F.F.F.F.F.F.F.F.F.B.=.o     . w.S.F.F.F.F.F.F.F.F.F.F.F.F.F.F.F.F.F.F.F.",
"F.F.F.F.F.F.F.F.F.F.F.F.F.F.F.F.F.F.F.S.g.@   . . s S.F.F.F.F.F.F.F.F.F.B.*.X     o t.F.F.F.F.F.F.F.F.F.F.F.F.F.F.F.F.F.F.F.F.F.",
"F.F.F.F.F.F.F.F.F.F.F.F.F.F.F.F.F.F.F.a.# . . . h z.S.F.S.S.F.S.S.F.F.B.*.. . . O 2.S.F.F.F.F.F.F.F.F.F.F.F.F.F.F.F.F.F.F.F.F.F.",
"F.F.F.F.F.F.F.F.F.F.F.F.F.F.F.F.F.F.S.# . .   o *.2.2.2.2.2.2.2.2.N.F.<.. . . X =.B.F.F.N.F.F.F.F.F.F.F.F.F.F.F.F.F.F.F.F.F.F.F.",
"F.F.F.F.F.F.F.F.F.F.F.F.F.F.F.F.F.F.S.. . .   . . . . X X . . X . g.F.s .   . o u.F.F.k.=.F.F.F.F.F.F.F.F.F.F.F.F.F.F.F.F.F.F.F.",
"F.F.F.F.F.F.F.F.F.F.F.F.F.F.F.F.F.F.S.  .     .   . . . .   .   . g.S.f . .   O u.S.k.# f F.F.F.F.F.F.F.F.F.F.F.F.F.F.F.F.F.F.F.",
"F.F.F.F.F.F.F.F.F.F.F.F.F.F.F.F.F.F.S.                .       . . g.F.s . . . O u.z.# . f F.F.F.F.F.F.F.F.F.F.F.F.F.F.F.F.F.F.F.",
"F.F.F.F.F.F.F.F.F.F.F.F.F.F.F.F.F.F.S.M M M M M M M M M s   .     g.F.f . X . O <.a . X f F.F.F.F.F.F.F.F.F.F.F.F.F.F.F.F.F.F.F.",
"F.F.F.F.F.F.F.F.F.F.F.F.F.F.F.F.F.F.F.F.F.F.F.F.F.F.F.S.<.        g.F.w.=.*.=.<.<.=.=.=.t.F.F.F.F.F.F.F.F.F.F.F.F.F.F.F.F.F.F.F.",
"F.F.F.F.F.F.F.F.F.F.F.F.F.F.F.F.F.F.F.F.F.F.F.F.F.F.F.S.<.    . . a.F.F.F.F.F.F.S.F.F.F.F.F.F.F.F.F.F.F.F.F.F.F.F.F.F.F.F.F.F.F.",
"F.F.F.F.F.F.F.F.F.F.F.F.F.F.F.F.F.F.F.F.F.F.F.F.F.F.F.S.<.  .     a.F.F.F.F.F.F.F.F.F.F.F.F.F.F.F.F.F.F.F.F.F.F.F.F.F.F.F.F.F.F.",
"F.F.F.F.F.F.F.F.F.F.F.F.F.F.F.F.F.F.F.F.F.F.F.F.F.F.F.S.<..   .   a.F.F.F.F.F.F.F.F.F.F.F.F.F.F.F.F.F.F.F.F.F.F.F.F.F.F.F.F.F.F.",
"F.F.F.F.F.F.F.F.F.F.F.F.F.F.F.F.F.F.F.F.F.F.F.F.F.F.F.F.S.S.S.S.S.F.F.F.F.F.F.F.F.F.F.F.F.F.F.F.F.F.F.F.F.F.F.F.F.F.F.F.F.F.F.F.",
"F.F.F.F.F.F.F.F.F.F.F.F.F.F.F.F.F.F.F.F.F.F.F.F.F.F.F.F.F.F.F.F.F.F.F.F.F.F.F.F.F.F.F.F.F.F.F.F.F.F.F.F.F.F.F.F.F.F.F.F.F.F.F.F.",
"F.F.F.F.F.F.F.F.F.F.F.F.F.F.F.F.F.F.F.F.F.F.F.F.F.F.F.F.F.F.F.F.F.F.F.F.F.F.F.F.F.F.F.F.F.F.F.F.F.F.F.F.F.F.F.F.F.F.F.F.F.F.F.F.",
"F.F.F.F.F.F.F.F.F.F.F.F.F.F.F.F.F.F.F.F.F.F.F.F.F.F.F.F.F.F.F.F.F.F.F.F.F.F.F.F.F.F.F.F.F.F.F.F.F.F.F.F.F.F.F.F.F.F.F.F.F.F.F.F.",
"F.F.F.F.F.F.F.F.F.F.F.F.F.F.F.F.F.F.F.F.F.F.F.F.F.F.F.F.F.F.F.F.F.F.F.F.F.F.F.F.F.F.F.F.F.F.F.F.F.F.F.F.F.F.F.F.F.F.F.F.F.F.F.F.",
"F.F.F.F.F.F.F.F.F.F.F.F.F.F.F.F.F.F.F.F.F.F.F.F.F.F.F.F.F.F.F.F.F.F.F.F.F.F.F.F.F.F.F.F.F.F.F.F.F.F.F.F.F.F.F.F.F.F.F.F.F.F.F.F.",
"F.F.F.F.F.F.F.F.F.F.F.F.F.F.F.F.F.F.F.F.F.F.F.F.F.F.F.F.F.F.F.F.F.F.F.F.F.F.F.F.F.F.F.F.F.F.F.F.F.F.F.F.F.F.F.F.F.F.F.F.F.F.F.F."
};
