/* XPM */
static char *_e75075086d346b090e7db269acb4e6bedjfPCvCEBEqtfEz[] = {
/* columns rows colors chars-per-pixel */
"64 64 256 2 ",
"   c #050602",
".  c #070904",
"X  c #0B0B04",
"o  c #0C0D09",
"O  c #110E05",
"+  c #120F09",
"@  c #0D1104",
"#  c #0E120B",
"$  c #141205",
"%  c #1B1505",
"&  c #1D1905",
"*  c #14140B",
"=  c #19160A",
"-  c #17180B",
";  c #1B1A0C",
":  c #0E1212",
">  c #141614",
",  c #161912",
"<  c #1C1B13",
"1  c #191917",
"2  c #221C04",
"3  c #221C0C",
"4  c #2A1D0C",
"5  c #351E0E",
"6  c #221E12",
"7  c #271C15",
"8  c #1F200C",
"9  c #1D2116",
"0  c #262105",
"q  c #2B2405",
"w  c #24210C",
"e  c #2B250B",
"r  c #2D290A",
"t  c #322C06",
"y  c #362A0B",
"u  c #342C0B",
"i  c #39330A",
"p  c #3B330B",
"a  c #242213",
"s  c #2B2313",
"d  c #262A13",
"f  c #2A2D14",
"g  c #24221A",
"h  c #292519",
"j  c #2A2A1B",
"k  c #342B14",
"l  c #362917",
"z  c #3A2D1B",
"x  c #2E3215",
"c  c #2E3319",
"v  c #2F3918",
"b  c #323416",
"n  c #3B3413",
"m  c #343916",
"M  c #32361A",
"N  c #353A1A",
"B  c #3C3818",
"V  c #3A3D1C",
"C  c #332E26",
"Z  c #393924",
"A  c #433909",
"S  c #443B0C",
"D  c #442D1D",
"F  c #433C13",
"G  c #453919",
"H  c #543218",
"J  c #443523",
"K  c #493A28",
"L  c #563A28",
"P  c #493C32",
"I  c #683C32",
"U  c #773D3E",
"Y  c #3D411E",
"T  c #3E4322",
"R  c #3B432B",
"E  c #3D4833",
"W  c #4C430E",
"Q  c #52480D",
"!  c #4C4313",
"~  c #474719",
"^  c #42441E",
"/  c #4A441C",
"(  c #4C491C",
")  c #544B14",
"_  c #564917",
"`  c #534C1B",
"'  c #55511C",
"]  c #5B521A",
"[  c #63581D",
"{  c #434621",
"}  c #454A22",
"|  c #4B4D24",
" . c #494828",
".. c #524C23",
"X. c #584827",
"o. c #4C5126",
"O. c #46512B",
"+. c #4D522A",
"@. c #535224",
"#. c #5C5423",
"$. c #53552A",
"%. c #58582A",
"&. c #5B5B2B",
"*. c #484837",
"=. c #5A4735",
"-. c #4D5536",
";. c #575735",
":. c #565B33",
">. c #6A542D",
",. c #66582A",
"<. c #6B5A2D",
"1. c #674B37",
"2. c #695737",
"3. c #75583B",
"4. c #5F6129",
"5. c #5B623A",
"6. c #6A632A",
"7. c #74682A",
"8. c #6D6233",
"9. c #686838",
"0. c #736434",
"q. c #7B6B34",
"w. c #74653A",
"e. c #786838",
"r. c #7D6B3C",
"t. c #6C703E",
"y. c #787339",
"u. c #2E3744",
"i. c #38494E",
"p. c #4F554C",
"a. c #4A584B",
"s. c #695945",
"d. c #6E564D",
"f. c #765A46",
"g. c #5B6348",
"h. c #5A6656",
"j. c #686946",
"k. c #7A6344",
"l. c #7D6B43",
"z. c #79664A",
"x. c #757846",
"c. c #7C6755",
"v. c #6F7152",
"b. c #585D6A",
"n. c #586863",
"m. c #596A6A",
"M. c #66766A",
"N. c #6D746B",
"B. c #805F38",
"V. c #866A3D",
"C. c #87773B",
"Z. c #855C4A",
"A. c #945956",
"S. c #846D43",
"D. c #83644C",
"F. c #866849",
"G. c #8B6B4C",
"H. c #936C4E",
"J. c #8A7343",
"K. c #897649",
"L. c #92744C",
"P. c #937B4C",
"I. c #987C4B",
"U. c #876A56",
"Y. c #8B6B52",
"T. c #946B57",
"R. c #8D7254",
"E. c #8A745A",
"W. c #947455",
"Q. c #947C52",
"!. c #9B7C53",
"~. c #94745B",
"^. c #987758",
"/. c #9C755B",
"(. c #9D7C5B",
"). c #A4775D",
"_. c #A37B5D",
"`. c #887465",
"'. c #977967",
"]. c #9C7A63",
"[. c #9C7F71",
"{. c #A47D64",
"}. c #A77C67",
"|. c #7D8251",
" X c #778464",
".X c #788672",
"XX c #8B854A",
"oX c #95844C",
"OX c #868856",
"+X c #938254",
"@X c #998756",
"#X c #9C825B",
"$X c #959355",
"%X c #A5885B",
"&X c #A4945B",
"*X c #928A6E",
"=X c #969865",
"-X c #A48266",
";X c #AC8363",
":X c #AB8B67",
">X c #A5826B",
",X c #AB846C",
"<X c #B38969",
"1X c #AA956B",
"2X c #B49169",
"3X c #A98875",
"4X c #AD8A74",
"5X c #B38D74",
"6X c #B58D77",
"7X c #B99277",
"8X c #B4927C",
"9X c #99A276",
"0X c #A5A468",
"qX c #A8AC76",
"wX c #B0AF70",
"eX c #ADB57D",
"rX c #B6B876",
"tX c #B2BA7E",
"yX c #C5C578",
"uX c #506585",
"iX c #778AA6",
"pX c #7B99CA",
"aX c #929483",
"sX c #A99389",
"dX c #B59483",
"fX c #9CA691",
"gX c #ABB08B",
"hX c #B6BD83",
"jX c #B7B8A5",
"kX c #C4BF87",
"lX c #BBC387",
"zX c #BFC890",
"xX c #BDCBA7",
"cX c #C6C888",
"vX c #CBD295",
"bX c #D0D196",
"nX c #D8D9A4",
"mX c #D0D1AF",
"MX c #E0DEAB",
"NX c #E6E7B2",
"BX c #8EA8D5",
"VX c #AAADD2",
"CX c #90AFE4",
"ZX c #97B2E4",
"AX c #A0B0E0",
"SX c #DADCC9",
"DX c #DDE0C6",
"FX c #E7E6CA",
"GX c #EDF1C7",
"HX c #EAEADA",
"JX c #F7F7D9",
"KX c #EEEFE3",
"LX c #FAF9E7",
"PX c #F7FDF7",
"IX c #FDFDF4",
"UX c #FDFDFC",
/* pixels */
"&X0XeXkXbXMXFXJXIXUXUXUXUXUXUXUXvX5.9.9.x.x.x.x.x.t.$.^ b d d d c d x { +.O.Y N Y m N N N b b M x b x f f d d h d d d d 9 8 8 w ",
"PXUXUXUXUXUXUXUXUXUXUXIXUXIXIXUXmX' $.@.+...( ( +.{ m f f s c s x f x O.:.+.{ Y Y Y Y N Y V V V N b b b b c c f f f f f f d 9 d ",
"UXUXUXUXUXUXUXPXUXUXIXIXLXJXFXnX9.x f f f f f M T T x f c f d f c f N +.5.+.} { Y Y T T T ^ Y V V m m b x f x f b x f f d d f d ",
"LXKXHXHXFXMXnXlXwX&XoX7.,.) F u r w d j f f M m T { x f c f f c f f V :.9.%.o.| | } T ~ ^ ^ { Y V V N M b b x x k x f f d d d d ",
"..( ^ ~ Y Y v v m x b x x x r f j f d d c b V ^ :.+.V B b f c M v d Y :.t.6.o.o.| } { ^ } ^ ^ Y Y V m N b b b b b b b b f x f f ",
"N N Y N v Y v v x x x f f f f x d x N v b ^ ( 6.9.9.8.6.,.#.~ { v Y Y 9.x.5.%.+.o.o.} | | } } ^ ^ Y Y Y N V V V V N B N x b b x ",
"N v v v v x x f x v c f f f x f x b b V Z ( 6.q.7.] S S p ! ( ' 4.~ @.x.XXt.5.%.:.+.+.+.o.o.+.| ~ { ^ T T ^ Y Y G { Y V V N N N ",
"N N N c v v f x v N M v M v N v m M Z m ~ q.,.A i u k w r w 0 w t ~ y.XXx.x.t.4.4.%.%.:.%.$.$.o.o.o.} } ^ | { ^ { { { Y G V V Y ",
"c c Z M v c f v Z T Y v N N N N Y Y Y 6.6.W t e e w g s w w 3 6 ; w r ~ ! t.y.y.9.6.9.&.%.%.@.$.o.o.| | | | | ^ ^ { ^ ^ V V V ~ ",
"d c c c c v v Y T } T N Z N N Y Y ~ y.6.F t e s s g a w g a w a < & , & i ..( / ^ t 0 q r W ' %.o.$.+.+.+.| | { ^ ^ } ^ ^ Y T V ",
"Z N N c c c Y Y R O.T Y N T T T @.C.,.! y e a h h h j h j g g j g a ; = & d & = % ; & = ; & 2 p Q &.$.@.o.| O.| | ^ } ^ ^ ^ ^ ^ ",
"O.O.} { R R O.T +.+. .Y T T T $.q.) W u 3 = ; < < = ; ; 6 7 6 h j g 6 , * % $ * ; & ; = ; = & w u ` #.$.| o.o.O.| } | { ^ { { ^ ",
";.:.-.-.O.:.:.:.:.5.o.o.Y Y o.y.F G G % = , < < 6 > - = * = ; ; 3 h 9 g * $ = = ; 8 ; - - * * $ w t ` ' $.o.| | } } o.} { ^ ^ ^ ",
"g.:.5.:.:.+.E o.%.:.+.Y Y } 8.A B b w ; = ; ; < g g , * * $ $ ; ; a g < 9 ; ; , < ; - - * - = , ; & t ( @.o.o.| | | } } { | } ^ ",
"5.:.-.-.O.T T Y :.x.|.t.x.XX#.b u w w 2 & ; < a g 7 < = * $ * * - = = ; < g g g 9 < < - * * > , , - ; y ' ' | | | } | T ^ ^ ^ ~ ",
"eX=X|.x.4.T Y Y |.lXvXrXwXXXi u & = 3 < ; w 6 a g h a < , = = = ; * * $ - - , - < < < < * o # , , * $ = t ' $.o.| o.| { Y Y Y V ",
"PXUXUXIXKXHXDXmXmXNXNXMXrX] u e * - 6 g < 6 6 6 h h 3 6 3 = 3 6 a 7 a , , - * * * * = * * 1 1 1 = = * * % i @.( o.} O.Y Y Y Y Y ",
"UXUXUXUXIXIXUXUXUXJXNXcX$Xt r & < a h a ; < 3 6 s z z z z l l z K P P  .*.Z z a = = * o O , 1 7 < , + + % 0 ! $.} O.} ~ Y Y Y Y ",
"PXPXUXUXUXUXUXPXUXGXcXyXy.q & w j C a = $ 7 K s.s.f.d.3.=.D.D.W.~.~.R.W.T.G.F.2.L z 3 * + * , 6 - * = % & 2 2 ` $.| } } Y Y Y Y ",
"j.j.|.*XgXjXmXmXGXNXJXnX7.q w w j l 3 $ 7 =.f.G.H.Z.3.>.H.F.^._.{.(./.^.W.^.^.G.k.2.J 7 - 1 , , - * + = $ % q ! $.| } Y Y Y Y Y ",
"R N Z R Z E R :.wXNXJXx.i 0 3 w s ; 3 3 J F.G.F.3.3.3.G.D.}.-X}.{.{.)./.T.W.L.H.S.k.2.K s < 1 1 , 1 > * = % n ! o.} O.Y Y ~ Y Y ",
"5.nXHXHXHXHXKXKXJXnXvX$Xt 0 3 w s 6 ; 7 z X.>.3.3.F.H.T.}.,X<X,X,X-X{.{.).!.L.P.G.S.w.2.C 6 < 6 , 1 < = < ; t ] } } Y ~ Y Y Y Y ",
"OXLXUXUXIXUXUXIXIXNX$Xy.q 2 w 3 7 , < l 3.B.V.V.L./.-X,X<X4X3X,X>X>X}.}.)._./.!.L.P.K.k. .h a g 7 < 1 = = w q ,.( | } T Y Y Y Y ",
"9.GXUXUXUXUXUXUXLXbX=X! 0 3 3 3 ; $ e 1.L.).;X<X5X5X5X8X8X8X6X3X>X,X;X-X{._.(.!.!.I.K.l.X.h < 6 , < , ; 3 4 t ' o.Y } } ~ Y Y Y ",
"|  .OXNXJXJXJXJXNXbX$XS 0 2 % ; = = D S.oX;X2X2X2X7X7X7X8X8X3X3X4X,X,X-X-X{.(.#X!.I.P.V.X.d ; 3 6 < ; $ ; q i ~ @.} } ^ Y ^ Y Y ",
"-.Z lXIXUXUXUXIXGX$X' t 2 3 ; = $ s >.P.%X2X2X2X2X7XdX7XdXdX8X8X4X4X,X-X{.{.).!.!.I.P.C.;.l a 3 a < = = % 2 i W @.} Y Y Y Y Y Y ",
":.Z hXLXUXUXIXIXMXXX..r 3 % * = = k w.).%X2X2X5X2X7X7X7X6X6X3X6X4X4X,X>X{.{.(.!.!.~.P.P.<.s ; ; h 3 * = = 2 n n o.} ^ T Y Y Y Y ",
";.Z 9.tXbXnXnXvX=XXXi 2 % = 6 = * n J.%X%X2X2X2X7X7X7X6X3X3XdX6X8X4X,X,X{.{.%X_.!.P.P.J.<.w ; = 6 6 * = 2 i F B | ^ { Y Y Y T N ",
"g.N O. X0X0XqXwX0X$X~ r 2 w 3 % ; l L.%X%X2X:X:X<X4X3X8XdX8XdXdXdX3X3X>X>X-X].(.W.P.C.C.>.e = = ; a % - 2 i ! F @.{ { ^ Y Y Y Y ",
"j.E g.=XtXlXyXrXwXwXy.i n u = * * D J.%XI.V.Y.~.Y.D.U.>XsXdXdXdXdX[.'.T.U.U.Y.D.F.J.J.J.<.w * * % s * $ % r t #.6.#.| { V Y T N ",
"j.-. XeXvXnXnXvXyXwX6.! F r = $ % =.C.e.A z B z s D =.f.*XdX3X4X3XU.d.=.J K K K J G w.C.<.n + * = w = * $ % 0 ! W ..o.} T N Y N ",
"j.g..XgXvXnXnXnXcXC.) W F e O X = 2.V.p D J J l s z P f.T.3X3X[.].D.s.J 7 w ; = s 7 w ,.<.G * + = 3 % $ $ * % 2 A @.^ T Y Y T Y ",
"v.g..X.XcXbXbXrX$X7.H A n 4 O o 3 k.>.X.S.f.Z.1.=.L I 1.A.}.dX}.T.1.L D D J I s.s.1.G n ] L % o * $ O $ $ $ 4 n ) 6.| ^ V Y Y Y ",
"v.a..X.XqXvXbXtXoXC.Q y u s $ o s C.B.S.>.L P C 7 l L I V.}.7X}.D.L L D =.C > 7 z L 1.X.) X.s + + O + $ $ = 2 u ' #.^ { V N Y V ",
"v.h..X.XaXzXvX0X$XXX] A 2 s 2 + z L.I.V.H z aXl l P aXf.).<X6X}.D.2.Z.d.fX7 7 J *.7 L <.<.>.G $ X O O O * ; 2 u ! #.o.Y Y Y Y N ",
"|.h..X.X9XgXhX=XC.7.) p 2 2 2 O J I.%X).V.3.f.1.=.d.U./.).<X}.)./.f.f.`.A.d.K =.=.1.>.w.q.e.X.3 + + + + O ; & y ! ' / ! Y Y N Y ",
"j.h..X.X.XfXfX=XXX] [ ] 2 % 2 3  .@X2X%X_.P.H.F.T.T.'.].<X<X<X).!.F.f.U.`.A.f.f.k.K.+XoXJ.V.,.h = = + = O 4 2 2 n ....| Y Y N N ",
"g.-.a.h.v. X X|.C.7.i i % = 3 4 X.&X%X%X<X<X/.).}.}.<X}.<X<X<X)./.L.F.H.'.'.T.Y.~.~.#XK.K.J.<.u 7 3 2 2 % 4 q q ( ~ ~ | Y N Y m ",
"5.R E E a.-.g.|.XX,.& $ O + O 7 =.&X%X%X<X7X7X}.<X<X<X<X}.).}.}./.L.L.W.{.}.]./.-X-X(.XXXXC.8.z 4 4 e 2 2 2 q y ~ ( ( @.Y N v m ",
"5.E a.h.a.g.a. XeXcX{ O X O $ 7 X.&X%X%X<X<X<X6X7X6X<X).}.}.5X3X_.L.G.~.-X,X}.{.].].Q.F.J.r.0.G 4 5 D $ % t q t F ) ' ^ m N m m ",
"g.a.m. Xn. Xm..X9X9XqXB = % 2 1.3.@X&X:X:X7X7X7X7X7X}.).}.}.6X}._.W.L.F.}.3X}.}.}.^.K.l.l.S.8.%.l D L O t q 2 S ] ] ! N N N b N ",
"g.-.n.m.n.m..Xm..X X&.F % % * L ~.+X@X:X1X7X7X7X7X}.}.}.<X<XdX3X'.G.L.3.'.}.3X3X}.'.S.w.r.C.7.<.5 L H X 2 2 2 S ] ` ^ N N b b M ",
" X Xh.h.i.n.uXa.n.a.9.[ p X X 5 :X+X@X&X:X6X4X6X<X}.).Z.H B./.].Z.5 L >.f.}.3X[.-XE.l.w.q.q.q.>.L 1.J + % ; 3 r ! ) Y b m m b b ",
"fXiXn.a.i.n.i.i.a.*.+.#.) t 2 2 +X:X+X@X:X<X4X}.).).}.Z.Z./.A.3.L C L 3.U.].>X}.^.R.w.w.0.q.V.>.V.3.s o * = = 0 S ! ^ m M b M b ",
"xXgX.Xa.i.m.m.n.*.R +.` t 2 2 $ l.1X+XQ.@X>X>X/./.;X~.].'.U.c.I L s.E.U.Y.T.]./.E.K.l.8.<.e.q.7.V.>.+ o * * e n ! F ~ m b b x b ",
"vXvXgXfXfXjXfX.X;.{ $.` q e 0 6 n c.XX+X+X#X-X~.#X~.E.~.`.c.c.d.d.c.c.d.D.E.W.R.Y.l.w.8.0.e.q.>.F.D X $ 4 t p ! S ` N m b x m x ",
"vXvXmXSXSXSXSXaX$.( #.) u 0 w = * l @XOX+X(.(.#X~.E.U.`.[.'.U.c.`.c.c.z.d.c.E.E.U.l.w.8.0.q.6.l y O o O e p S p r G m b x m b x ",
"hXzXSXKXKXSXxXv.V Y ( ! u i u y & w @XXXP.#X#X#XE.F.Y.T.].}.}.].>XE.z.s.s.z.c.F.F.l.8.8.e.C.%.  X X O O = 2 y q r ^ m m b b b x ",
"OXeXmXSXSXmXv.n b M N N V n F G u 6 +XK.OX@X#X~.s.I 1.I Z.U I I I L H L J =.c.z.c.w.8.8.0.V.G . O + O X @ $ % % i ] ^ B b b b x ",
"+.j.OXfXqXj.w d v N b m B b n | #.e z.XX+XQ.%XQ.W.:X).).A.A.A.A.A.A.f.f.2.k.U.F.S.w.8.w.e.e.w X O % O X $ & 2 q ! ) ^ m b b x x ",
"X $ $ 3 0 @ # 9 M x x b m m b / #.e  .#XK.+X@XE.-X2X%X).A.3.1.1.d.Z.D.F.Y.'.F.k.l.8.8.w.e.w.% X X $ y t 2 0 t ) ! ~ N x x x x x ",
"@ @ # * # # - j c v x b x m x G ` u l x.K.K.P.#X%X;X_.~.Z.f.d.d.d.U f.D.T.'.U.z.w.8.<.8.e.$.  X + $ n Q ) p p p W ~ x w w d f x ",
"= ; = 1 < = a j a f x b b x b / &.r &.| K.S.x.K.(.(.{.(.T.D.A.d.d.f.U.T.R.U.z.2.2.<.8.8.0.u . O X % t p ! t 0 w 8 2 $ @ @ 8 d x ",
"b.b.b.m.uXuXuXuXu.8 f x b x b V x.x.|.9.9.w.k.z.E.R.-X4X}.*X[.[.'.~.].].U.c.j.2.<.8.2.&.6.u X % & q % e n 2 8 $ X X .   . - f x ",
"VXVXVXBXBXBXBXpXuXf m Y ~ Y n B x.qXtX=X@.q.<.z.E.OX>X*X[.*X[.aX`.`.'.'.c.d.2.=.$.1.` #.q.z 3 f $ @ @ 2 0 $ - $ @ X     . - d f ",
"VXVXVXVXZXZXZXBXM.~ ' ' ' ) ) ! x.0XeXqX&.oXq.X.8.c.c.`.`.`.`.`.`.N.c.c.z.;.+.X..._ ] >.q./ * ; X . . X # $ $ - @ .     X - f x ",
"ZXZXZXCXZXZXBXiXg.) ) W Q W Q _ 6.|.OX|.OXoXI.w.X.=.j.d.d.d.g.d.d.d.d.p.;. .{ G G _ >.<.V.!   * . .   @ X @ @ @ @ .     . - d x ",
"ZXCXCXpXZXBXiXg._ A S A S A A Q ) ~ N x 9.oX@XP.q./ J P Z J C =.p.p.s.P J z l G ) X.>.>.C.7.X * X   . o X # @ @ X . . . @ $ 8 8 ",
"pXpXpXpXpXiXn.n p i i i u p S Q ) W w & 9.@X@X+XJ.V.,.G s 7 4 s 5 z l l y l H G ` X.>.0.V.C.5 * c 9 - @ $ $ @ - - - - & 8 d x Y ",
"u.u.u.u.u.u.9 * = * = = = e S W Q ' u e  .K.I.#X+XXXQ.F.2.G G y l y l l G G X.` X.>.3.r.C.C.H * 9 > 9 R v.|. X|.|.OXOX XOX=X=X=X",
"X X . X # # # # * : : : o $ t F ! ' F } * S.oX!.#XP.P.(.*X~.D.f.s.2.1.X.X.X...X.2.3.S.S.C.C.>.6 , , : > j 9XlXlXtXeXlXtXtXtXtXtX",
"X X . # # # # # # o * o o * i F ! ` ;.Z o <.%XoX#XP.S.Q.#X3X3X*X`.c.k.2.1.>.2.3.l.S.K.G.J.V.3.l > > , : 1 9 9XlXlXlXtXtXtXtXtXeX",
". . . # # * # # # # * o X = G _ { V Z 1 . ;.%X!.#X#XJ.K.Q.>X*X[.c.f.f.s.k.z.D.U.R.R.R.L.J.V.3.K : > : > , > 9 R qXlXlXeXtXtXtXeX",
"X . . # # # # # # * : : . ; X.V 9 9 C * X 1.oX%X-X%XQ.K.K.~.[.U.z.f.s.z.z.E.~.'.~.~.W.H.J.J.2.p.1 1 1 1 , , , , : -.qXtXlXtXtXtX"
};
