/* XPM */
static char *dfe0c0c37faf452180efd20b2edf358dU8P2usFAZJJsFjme[] = {
/* columns rows colors chars-per-pixel */
"64 64 256 2 ",
"   c black",
".  c #0000A8",
"X  c #00A800",
"o  c #00A8A8",
"O  c #A80000",
"+  c #A800A8",
"@  c #A85400",
"#  c gray66",
"$  c gray33",
"%  c #5454FC",
"&  c #54FC54",
"*  c #54FCFC",
"=  c #FC5454",
"-  c #FC54FC",
";  c #FCFC54",
":  c gray99",
">  c #ECECEC",
",  c gainsboro",
"<  c #D0D0D0",
"1  c #C0C0C0",
"2  c #B4B4B4",
"3  c gray66",
"4  c #989898",
"5  c gray55",
"6  c #7C7C7C",
"7  c gray44",
"8  c #646464",
"9  c gray33",
"0  c #484848",
"q  c gray22",
"w  c #2C2C2C",
"e  c #202020",
"r  c #FC0000",
"t  c #EC0000",
"y  c #E00000",
"u  c #D40000",
"i  c #C80000",
"p  c #BC0000",
"a  c #B00000",
"s  c #A40000",
"d  c #980000",
"f  c #880000",
"g  c #7C0000",
"h  c #700000",
"j  c #640000",
"k  c #580000",
"l  c #4C0000",
"z  c #400000",
"x  c #FCD8D8",
"c  c #FCB8B8",
"v  c #FC9C9C",
"b  c #FC7C7C",
"n  c #FC5C5C",
"m  c #FC4040",
"M  c #FC2020",
"N  c #FC0000",
"B  c #FCA85C",
"V  c #FC9840",
"C  c #FC8820",
"Z  c #FC7800",
"A  c #E46C00",
"S  c #CC6000",
"D  c #B45400",
"F  c #9C4C00",
"G  c #FCFCD8",
"H  c #FCFCB8",
"J  c #FCFC9C",
"K  c #FCFC7C",
"L  c #FCF85C",
"P  c #FCF440",
"I  c #FCF420",
"U  c #FCF400",
"Y  c #E4D800",
"T  c #CCC400",
"R  c #B4AC00",
"E  c #9C9C00",
"W  c #848400",
"Q  c #706C00",
"!  c #585400",
"~  c #404000",
"^  c #D0FC5C",
"/  c #C4FC40",
"(  c #B4FC20",
")  c #A0FC00",
"_  c #90E400",
"`  c #80CC00",
"'  c #74B400",
"]  c #609C00",
"[  c #D8FCD8",
"{  c #BCFCB8",
"}  c #9CFC9C",
"|  c #80FC7C",
" . c #60FC5C",
".. c #40FC40",
"X. c #20FC20",
"o. c #00FC00",
"O. c #00FC00",
"+. c #00EC00",
"@. c #00E000",
"#. c #00D400",
"$. c #04C800",
"%. c #04BC00",
"&. c #04B000",
"*. c #04A400",
"=. c #049800",
"-. c #048800",
";. c #047C00",
":. c #047000",
">. c #046400",
",. c #045800",
"<. c #044C00",
"1. c #044000",
"2. c #D8FCFC",
"3. c #B8FCFC",
"4. c #9CFCFC",
"5. c #7CFCF8",
"6. c #5CFCFC",
"7. c #40FCFC",
"8. c #20FCFC",
"9. c #00FCFC",
"0. c #00E4E4",
"q. c #00CCCC",
"w. c #00B4B4",
"e. c #009C9C",
"r. c #008484",
"t. c #007070",
"y. c #005858",
"u. c #004040",
"i. c #5CBCFC",
"p. c #40B0FC",
"a. c #20A8FC",
"s. c #009CFC",
"d. c #008CE4",
"f. c #007CCC",
"g. c #006CB4",
"h. c #005C9C",
"j. c #D8D8FC",
"k. c #B8BCFC",
"l. c #9C9CFC",
"z. c #7C80FC",
"x. c #5C60FC",
"c. c #4040FC",
"v. c #2024FC",
"b. c #0004FC",
"n. c #0000FC",
"m. c #0000EC",
"M. c #0000E0",
"N. c #0000D4",
"B. c #0000C8",
"V. c #0000BC",
"C. c #0000B0",
"Z. c #0000A4",
"A. c #000098",
"S. c #000088",
"D. c #00007C",
"F. c #000070",
"G. c #000064",
"H. c #000058",
"J. c #00004C",
"K. c #000040",
"L. c #282828",
"P. c #FCE034",
"I. c #FCD424",
"U. c #FCCC18",
"Y. c #FCC008",
"T. c #FCB400",
"R. c #B420FC",
"E. c #A800FC",
"W. c #9800E4",
"Q. c #8000CC",
"!. c #7400B4",
"~. c #60009C",
"^. c #500084",
"/. c #440070",
"(. c #340058",
"). c #280040",
"_. c #FCD8FC",
"`. c #FCB8FC",
"'. c #FC9CFC",
"]. c #FC7CFC",
"[. c #FC5CFC",
"{. c #FC40FC",
"}. c #FC20FC",
"|. c #FC00FC",
" X c #E000E4",
".X c #C800CC",
"XX c #B400B4",
"oX c #9C009C",
"OX c #840084",
"+X c #6C0070",
"@X c #580058",
"#X c #400040",
"$X c #FCE8DC",
"%X c #FCE0D0",
"&X c #FCD8C4",
"*X c #FCD4BC",
"=X c #FCCCB0",
"-X c #FCC4A4",
";X c #FCBC9C",
":X c #FCB890",
">X c #FCB080",
",X c #FCA470",
"<X c #FC9C60",
"1X c #F0945C",
"2X c #E88C58",
"3X c #DC8854",
"4X c #D08050",
"5X c #C87C4C",
"6X c #BC7848",
"7X c #B47044",
"8X c #A86840",
"9X c #A0643C",
"0X c #9C6038",
"qX c #905C34",
"wX c #885830",
"eX c #80502C",
"rX c #744C28",
"tX c #6C4824",
"yX c #5C4020",
"uX c #543C1C",
"iX c #483818",
"pX c #403018",
"aX c #382C14",
"sX c #28200C",
"dX c #600064",
"fX c #006464",
"gX c #006060",
"hX c #00001C",
"jX c #00002C",
"kX c #302410",
"lX c #480048",
"zX c #500050",
"xX c #000034",
"cX c gray11",
"vX c #4C4C4C",
"bX c gray36",
"nX c gray25",
"mX c gray19",
"MX c #343434",
"NX c #D8F4F4",
"BX c #B8E8E8",
"VX c #9CDCDC",
"CX c #74C8C8",
"ZX c #48C0C0",
"AX c #20B4B4",
"SX c #20B0B0",
"DX c #00A4A4",
"FX c #009898",
"GX c #008C8C",
"HX c #008484",
"JX c #007C7C",
"KX c #007878",
"LX c #007474",
"PX c #007070",
"IX c #006C6C",
"UX c #980088",
/* pixels */
"                                                                                                                                ",
"  e e e e e e e e e e e e e e e e e e e e e e e e e e e e e e e e e e e e e e e e e e e e e e e e e e e e e e e e e e e e e e   ",
"  e e w w w w w w w w w w w w w w w w w w w w w w w w w w w w w w w w w w w w w w w w w w w w w w w w w w w w w w w w w w w w   ",
"  e   0 0 0 0 0 0 0 0 0 0 0 0 0 0 0 $ 0 $ 0 $ 0 $ bXbXbX8 bX8 8 8 8 bXbX$ $ 0 0 $ 0 0 0 0 0 0 0 nX0 nXnXnXnXq nXq q MXq MXMXMX  ",
"  e   0 0 8 6 8 0 0 0 8 6 8 0 $ 0 8 6 8 0 $ $ bXbXbXbX8 bX8 8 8 bXbXbX$ $ $ 0 $ 0 0 0 0 0 0 0 nX0 nXnXnXnXq nXq q MXq MXMXMXMX  ",
"  e   0 0 q 8 6 0 0 0 q 8 6 $ 0 $ q 8 6 $ $ bXbX8 bX8 8 8 8 8 bXbXbX$ $ $ 0 $ 0 0 0 0 0 0 0 nX0 nXnXnXnXq nXq q MXq MXMXMXMXMX  ",
"  e   0 0 e q 8 0 $ 0 e q 8 0 $ 0 e q 8 $ bXbX8 bX8 8 8 8 bXbXbXbX$ $ $ 0 $ 0 0 0 0 0 0 0 nX0 nXnXnXnXq nXq q 0 $ $ q MXMXMXw   ",
"  e   0 0 0 $ 0 $ 0 $ 0 $ 0 $ $ bX$ $ bX8 bX8 8 8 6 w e                                       e w 8 $ 0 q q q q 8 $ MXMXMXw MX  ",
"  e   $ 0 $ 0 $ 0 $ 0 $ $ $ $ bXbXbXbX8 bX8 8 8 8 8 6 cXcXcXcXcXcXcXcXcXcXcX  cX  cX  cX  cX  cX8 $ 0 q q q q e q 0 MXMXw MXw   ",
"  e   0 $ 0 $ 0 $ $ $ $ bX$ bXbX8 bX8 bX8 8 8 8 8 bX8 6 MXMXMXe MXe MXe MXe MXe e e e e e e cX8 $ 0 q q q q MXq w w MXw MXw MX  ",
"  e   $ 0 $ 0 $ $ $ $ bXbXbXbX8 bX8 8 8 8 8 8 8 bX$ 8 6 nXMXe MXe MXe MXw MXw e w e w e w cX$ 8 0 q q q q MXq MXMXMXw MXw MXMX  ",
"  e   0 $ $ bX$ $ $ bXbX8 bX8 bX8 8 8 8 8 8 8 bX$ bX$ 8 6 nXq w q w q e q e w w e w e w cX$ 8 $ q nXq q MXq MXMXMXw MXw MXw MX  ",
"  e   $ $ bX$ $ g bXbX8 bX8 8 8 8 8 8 8 bX8 bX$ bX$ $ $ 8 6 nXMXe MXw MXw e e w e w e cXMX8 $ q nXq q MXq MXMXMXw MXw w w MXMX  ",
"  e   $ bXbXbXg g d 8 bX8 8 8 8 8 0 0 bX8 bX$ bX$ $ $ 0 $ 8 bXw MXw MXw e w w e w e cXe 8 $ q nXq q q q MXMXMXw MX  w w MXMXMX  ",
"  e   bXbXbXg f f f d 8 8 8 8 8 8 7 w 0 bX$ bX$ 8 6 8 $ 0 $ 7 MXw MXw e w e w e w cXe $ 8 q nXq q 0 $ $ MXMXw MXe   w MXw MXMX  ",
"  e   bX8 d f f f f f d 8 8 8 8 bX6 0 w $ bX$ $ q 8 6 0 $ 0 $ 7 MXw e w e w e w cXe $ 8 $ nXq q q q 8 $ MXMXMXe e   MXw MXMXMX  ",
"  e   8 d f f f f f f f d 8 8 8 bX6 MXe w $ $ $ e q 8 $ 0 $ 0 $ 7 q e w e w e cXe $ 8 $ nXq q q q e q 0 MXMXw       w MXMXMXMX  ",
"  e   8 8 8 8 8 8 8 8 8 8 bX8 bXbX6 MXe e w $ 0 $ 0 $ 0 $ 0 0 0 $ 7 MXw e w cXe $ 8 $ nXq q q q q q MXMXMXw   cX    w MXMXMXMX  ",
"  e   8 8 8 8 8 8 8 8 8 bX8 bXbXbX6 MXq e e w $ 0 $ 0 $ 0 0 0 0 0 $ 7 e w e e cX8 $ nXq q q q q q MXMXMXw e cX      MXMXMXMXMX  ",
"  e   8 f f f f f f f g h bXbXbX$ 6 q MXq cXe 0 $ 0 $ 0 0 0 0 0 0 0 7 q e w cX$ 8 nXq q q q q q MXMXMXw e cX  cX    MXMXMXMXMX  ",
"  e   8 8 f f f f f g h bXbXbX$ bX6 MXq e MX  w 0 $ 0 0 0 0 0 0 0 0 $ 7 $ cX$ 8 $ q nXq q q q MXq MXMXcX    cX      MXMXMXMXMX  ",
"  e   8 8 8 f f g g h bXbXbX$ bX$ 6 MXw MXe cX  w 0 0 0 0 0 0 0 0 0 nX$ 7 $ 8 $ q nXq q q q MXq MXMXcX  cX  cX      MXMXMXMXMX  ",
"  e   8 8 8 bXg g h bXbXbX$ bX$ $ 6 e q e MXe cX  w 0 0 0 0 8 7 8 nX0 nX$ 7 $ q nXq 0 $ $ MXq MXMXw   cX  cX  cX    MXMXMXMXMX  ",
"  e   8 8 bX8 bXh bXbXbX$ bX$ $ $ 6 MXw q w MXe cX  w 0 0 0 q 8 7 0 nXnXnXnXq nXq q q 8 $ q MXMXw   cX  cX  cX      MXMXMXMXq   ",
"  e   8 bX8 bXbXbXbXbX$ $ $ $ $ 0 6 e MXe q e MXe w   0 0 0 e q 8 nXnXnXnXq nXq q q e q 0 q MXMXe     cX  cX  cX    MXMXMXMXMX  ",
"  e   bX8 $ 8 8 7 7 7 7 $ 0 $ 0 $ 6 MXw q e q w MXw   w 0 0 nX0 nXnXnXnXq nXq q q q q q q MXMXw   cX  cX    cX      MXMXMXMXq   ",
"  e   8 bXw $ $ $ $ $ 7 0 $ 0 $ 0 6 w MXe q e MXw e cX  w nX0 nXnXnXnXe w q q q q q q q MXMXw   cX  cX  cX  cX      MXMXMXq q   ",
"  e   bXbXw $ $ $ $ $ 7 $ 0 $ 0 $ 6 MXw q e q w e e e w   w nXnXnXnXq       e e q q q MXMXw e   cX    cX  cX  cX    MXMXq q q   ",
"  e   bX$ e $ $ $ $ $ 7 0 $ 0 $ 0 7 e MXw MXe w e w e e w   nXnXnXq q         e q q MXMXMXe   cX  cX  cX    cX      MXMXMXq q   ",
"  e   $ $ e 0 7 7 7 $ 7 $ 0 $ 0 $ 7 MXw MXw w e w e w e e   w nXq nXw           q q q MXMX  cX  cX  cX  cX  cX      MXMXq nXq   ",
"  e   $ $ e $ 7 7 6 7 7 0 $ 0 $ 0 7 e q e w e w e w e w e cX  q nXq e           q q MXMXe   cX    cX  cX  cX  cX    MXq nXq nX  ",
"  e   $ $   $ 8 8 7 7 8 $ 0 $ 0 $ 7 MXw e w e w e w w e cXe MX0 q nXe           w MXMXMX0 MX  cX  cX    cX  cX      MXq q nXq   ",
"  e   $ 0   $ $ 8 8 8 8 0 $ 0 $ 0 7 e q e w e w e e w cXe MX8 $ nXq e           e MXMXMX$ 0 cX  cX  cX  cX    cX    MXq nXq nX  ",
"  e   0 $   q $ $ $ 8 8 $ 0 $ 0 $ 7 MXw e w e w e w cXe MX8 $ nXq q e             MXMXMX0 $ 0 cX  cX  cX  cX  cX    q nXq nXq   ",
"  e   $ 0   $ q q $ $ $ 0 $ 0 $ 0 7 e w e w e w e cXe MX8 $ nXq q q e e e e w q MXMXMXMXMX0 $ 0 cX  cX  cX  cX      q q nXq nX  ",
"  e   0 $   $ $ $ $ $ 0 $ 0 $ 0 $ 7 e w e w e w cXe cXq 8 nXq q q q q q q q q MXMXMXMXMXMXMX0 0 w   cX    cX  cX    q nXq nXnX  ",
"  e   $ 0         e e q 0 $ 0 $ 0 7 e w e w e cXe cXMX8 0 q q q q q q q q q MXMXMXMXMXMXMXMXMX0 0 cX  cX  cXcX      nXq nXnXnX  ",
"  e   0 $ 0 $ 0 $ 0 $ 0 $ 0 $ 0 0 7 e w e w e w cXMX8 $ q q 0 $ $ q q q q MXMXMXMXMXq $ 0 MXw 0 $ 0 cX  cX  cXcX    q nXnXnXnX  ",
"  e   $ 0 $ 0 $ 0 $ 0 $ 0 $ 0 0 0 7 e w e w e cXMX8 $ q q q q 8 $ q q q MXMXMXMXMXMXq $ $ w w w 0 $ 0   cX  cX      nXnXnXnX0   ",
"  e   0 $ 0 $ 0 $ 0 $ 0 $ 0 0 0 0 7 e w e w cXMX8 $ q nXq q e q 0 q q MXw e e MXMXMXe q q w w w w 0 $ 0   cX  cX    nXnXnX0 nX  ",
"  e   $ 0 $ 0 $ 0 $ 0 $ 0 0 0 0 0 7 e w e cXe $ 8 q nXq q q q q q q MXw e cX  e MXMXMXw MXw w w w w 0 $ cX  cXcX    nXnX0 nX0   ",
"  e   0 $ 0 $ 0 $ 0 $ 0 0 0 0 0 0 7 e w cXe $ 8 q nXq q q q q q q q w e cXcX    e MXw MXw w w w w w w 0 $ cX  cX    nX0 nX0 nX  ",
"  e   $ 0 $ 0 $ 0 $ 0 0 0 0 0 0 0 7 e cXe $ 8 $ nXq q q q q q q q MXe cXcX  cX    w MXw w w w w w w w 0 8 $ cXcX    0 nX0 nX0   ",
"  e   0 $ 0 $ 0 $ 0 0 0 0 0 0 0 nX7 cXe MX8 $ nXq q q q q q q q MXw e cX  cXcX    e w w w w w w w w w MX$ 8 MXcXcX  nX0 nX0 nX  ",
"  e   $ 0 $ 0 $ 0 $ 0 0 0 0 0 nX0 7 e cX8 $ nXq q q q q q q q MXw e cX  cX  cX      e w w w w w w w MXMXMX$ 8 cX    0 nX0 nX0   ",
"  e   0 $ 0 $ 0 $ 0 0 0 0 0 nX0 nX7 cXMX8 nXq q q q q q q q MXw e cX  cXcX    cX      e w w w w w MXMXMXMXMX8 w q e nX0 nX0 nX  ",
"  e   $ 0 $ 0 $ 0 0 0 0 0 nX0 nXnX7 MX8 $ q q 0 $ $ q q q MXw e w   cX  cX  cX  cX      e w w w w q $ 0 MXMX$ 8 $ w 0 nX0 nX0   ",
"  e   0 $ 0 $ 0 0 0 0 0 nX0 nX0 nX7 8 $ q q q q 8 $ q q MXq e cXcXcXcXcX  cX  cX  cX      w w w MXq $ $ MXMXMX$ 8 q nX0 nX0 0   ",
"  e   $ 0 8 6 8 0 0 0 nX0 nX0 nXnX7 $ q q q q e q 0 q MXq w e cXcX  cX  cX  cX  cX  cX    e w MXMXe MXMXMXMXMXq $ q nXnX0 nX0   ",
"  e   0 $ q 8 6 0 0 nX0 nX0 nXnXq 7 q nXq q q q q q MXq w e cXcX  cX  cX  cX  cX  cX  cX    e MXMXMXMXMXMXMXq nXq nXnX0 nX0 0   ",
"  e   $ 0 e q 8 0 nX0 nX0 nXnXq nXq nXq q q q q q MXq w e cX  cXcX  cX  cX  cX  cX  cX  cX    e MXMXMXMXMXMXq q nXnXnXnX0 nX0   ",
"  e   0 0 0 0 0 nX0 nX0 nXnXq nXq nXq q q q q q MXq MXe w cX  cX  cX  cX  cX  cX  cX  cX  cX    MXMXMXMXMXMXq nXq nXnX0 nX0 0   ",
"  e   0 0 0 0 nX0 nX0 nXnXq nXq nXq q q q q q MXq MXw e cXcXcX  cX  cX  cX  cX  cX  cX  cX  cX  e MXMXMXMXq q q 0 q 0 nX0 0 0   ",
"  e   0 0 0 nX0 nX0 nXnXq nXq nXq q q q q q q q MXw e cXcXcX  cXcX  cX    cX  cX  cX  cX  cX      e MXMXMXq q 8 6 8 nX0 nX0 0   ",
"  e   0 0 8 6 8 0 nX0 $ 8 8 nXq q 0 $ $ q q q MXq e q 8 8 8 8 8 $ $ $ $ $ $ $ $ $ $ $ $ $ $ $ $ q   MXMXMXq q q 8 6 0 nX0 0 0   ",
"  e   0 0 q 8 6 nXnXq q 8 8 q q q q 8 $ q q MXq MXMXMXMXMXMXMXMXMXMXMXw MXw w w w w w w w MXw MXMXMXMXMXMXq q e q 8 nX0 nX0 0   ",
"  e   0 nXe q 8 nXq nXe q $ q q q e q 0 q MXq MXMXMXMXMXMXMXMXMXMXMXw MXw w w w w w w w MXw MXMXMXMXMXMXq q nXq nXnXnXnX0 0 0   ",
"  e   nX0 nXnXnXq nXq nXq q q q q q q q MXq MXMXMXMXMXMXMXMXMXMXMXw MXw w w w w w w w MXw MXMXMXMXMXMXq MXnXq nXnXnXnX0 nX0 0   ",
"  e   0 nXnXnXq nXq nXq nXq q q q q q MXq MXMXMXMXMXMXMXMXMXMXMXw MXw w w w w w w w MXw MXMXw MXMXMXMXMXnXq nXnXnXnX0 nX0 0 0   ",
"  e   w w w w w w w w w w w w w w w w w w w w w w w w w w w w w w w w w w w w w w w w w w w w w w w w w w w w w w w w w w w w   ",
"  e                                                                                                                             ",
"  e e e e e e e e e e e e e e e e e e e e e e e e e e e e e e e e e e e e e e e e e e e e e e e e e e e e e e e e e e e e e e   ",
"  e e e e e e e e e e e e e e e e e e e e e e e e e e e e e e e e e e e e e e e e e e e e e e e e e e e e e e e e e e e e e e   ",
"                                                                                                                                "
};
