/* XPM */
static char *eca3a4712f6142e2e4e7354acbe3f4d2YXIW9YMKb64EMVQJ[] = {
/* columns rows colors chars-per-pixel */
"64 84 190 2 ",
"   c black",
".  c black",
"X  c #010101",
"o  c #020202",
"O  c #040404",
"+  c gray2",
"@  c #181818",
"#  c #191919",
"$  c gray10",
"%  c #1D1D1D",
"&  c gray15",
"*  c #272727",
"=  c #282828",
"-  c #323232",
";  c #373737",
":  c #464646",
">  c #484848",
",  c #494949",
"<  c gray29",
"1  c #4B4B4B",
"2  c #4C4C4C",
"3  c gray30",
"4  c #4E4E4E",
"5  c gray31",
"6  c #505050",
"7  c #515151",
"8  c gray33",
"9  c gray34",
"0  c #5A5A5A",
"q  c #5B5B5B",
"w  c gray36",
"e  c gray37",
"r  c #5F5F5F",
"t  c #606060",
"y  c gray38",
"u  c #626262",
"i  c gray39",
"p  c #646464",
"a  c #656565",
"s  c gray40",
"d  c #676767",
"f  c #686868",
"g  c DimGray",
"h  c #6A6A6A",
"j  c gray42",
"k  c #6C6C6C",
"l  c #6D6D6D",
"z  c gray43",
"x  c #6F6F6F",
"c  c gray44",
"v  c #717171",
"b  c #727272",
"n  c gray45",
"m  c #747474",
"M  c gray46",
"N  c #767676",
"B  c #777777",
"V  c gray47",
"C  c #797979",
"Z  c gray48",
"A  c #7B7B7B",
"S  c #7C7C7C",
"D  c gray49",
"F  c #7E7E7E",
"G  c gray50",
"H  c #808080",
"J  c #818181",
"K  c gray51",
"L  c #838383",
"P  c #848484",
"I  c #868686",
"U  c gray53",
"Y  c #888888",
"T  c #898989",
"R  c gray54",
"E  c #8B8B8B",
"W  c gray55",
"Q  c #8D8D8D",
"!  c #8E8E8E",
"~  c gray56",
"^  c #909090",
"/  c gray57",
"(  c #929292",
")  c #939393",
"_  c gray58",
"`  c #959595",
"'  c gray59",
"]  c #979797",
"[  c #989898",
"{  c gray60",
"}  c #9A9A9A",
"|  c #9B9B9B",
" . c gray61",
".. c #9D9D9D",
"X. c gray62",
"o. c #9F9F9F",
"O. c #A0A0A0",
"+. c gray63",
"@. c #A2A2A2",
"#. c gray64",
"$. c #A4A4A4",
"%. c #A5A5A5",
"&. c gray65",
"*. c #A7A7A7",
"=. c gray66",
"-. c #A9A9A9",
";. c #AAAAAA",
":. c gray67",
">. c #ACACAC",
",. c gray68",
"<. c #AEAEAE",
"1. c #AFAFAF",
"2. c gray69",
"3. c #B1B1B1",
"4. c #B2B2B2",
"5. c gray70",
"6. c #B4B4B4",
"7. c gray71",
"8. c #B6B6B6",
"9. c #B7B7B7",
"0. c gray72",
"q. c #B9B9B9",
"w. c gray73",
"e. c #BBBBBB",
"r. c #BCBCBC",
"t. c gray74",
"y. c gray",
"u. c gray75",
"i. c #C0C0C0",
"p. c #C1C1C1",
"a. c gray76",
"s. c #C3C3C3",
"d. c gray77",
"f. c #C5C5C5",
"g. c #C6C6C6",
"h. c gray78",
"j. c #C8C8C8",
"k. c gray79",
"l. c #CACACA",
"z. c #CBCBCB",
"x. c gray80",
"c. c #CDCDCD",
"v. c #CECECE",
"b. c gray81",
"n. c #D0D0D0",
"m. c gray82",
"M. c #D2D2D2",
"N. c LightGray",
"B. c gray83",
"V. c #D5D5D5",
"C. c gray84",
"Z. c #D7D7D7",
"A. c #D8D8D8",
"S. c gray85",
"D. c #DADADA",
"F. c gray86",
"G. c gainsboro",
"H. c #DDDDDD",
"J. c gray87",
"K. c #DFDFDF",
"L. c gray88",
"P. c #E1E1E1",
"I. c #E2E2E2",
"U. c gray89",
"Y. c #E4E4E4",
"T. c gray90",
"R. c #E6E6E6",
"E. c #E7E7E7",
"W. c gray91",
"Q. c #EAEAEA",
"!. c gray92",
"~. c #ECECEC",
"^. c gray93",
"/. c #EEEEEE",
"(. c #EFEFEF",
"). c gray94",
"_. c #F1F1F1",
"`. c gray95",
"'. c #F4F4F4",
"]. c gray96",
"[. c #F6F6F6",
"{. c gray97",
"}. c #F8F8F8",
"|. c #F9F9F9",
" X c gray98",
".X c #FBFBFB",
"XX c gray99",
"oX c #FDFDFD",
"OX c #FEFEFE",
"+X c white",
/* pixels */
"                                                                                                                                ",
"                                                                                                                                ",
"                                                                                                                                ",
"                                                                                                                                ",
"                                                                                                                                ",
"                                                                                                                                ",
"                                                                                                                                ",
"                                                                                                                                ",
"                                                                                                                                ",
"                                                                                                                                ",
"                                                                                                                                ",
"                                                                                                                                ",
"                                                                                                                                ",
"                                                                                                                                ",
"                                                                                                                                ",
"                                                                                                                                ",
"                                                                                                                                ",
"                                                                                                                                ",
"                                                                                                                                ",
"                                                                                                                                ",
"                                                  r r r r r r r q                                                               ",
"                                          P n n ~ l.f.l.f.l.f.f.f.G n m                                                         ",
"                                        P *.3.3.p.T.U.T.T.T.U.S.l.#.} } ~ T                                                     ",
"                                      _ f.U.OXOXOXOXOXOXOXOXOXQ.x.l.x.x.3...k                                                   ",
"                                    ( y.OXOXOXOXOXOXOXOXOXOXOX/.U.H.S.l.l.y.~ ~                                                 ",
"                                  h K .XOXOXOXOXOXOXOXOXOXOXOXOX.X.X).l.x.l.f.k d                                               ",
"                                  m T OXOXOXOXOXOXOXOXOXOXOXOXOXOXOX).l.l.l.f.k h                                               ",
"                                k U.Q.).C.Q.OXOXOX).H.).OXOXOXOXOXOX).M.x.l.f.G C                                               ",
"                                d ]./._ ; =..XOXOXf.8 ..f.OXOXOXOXOX.X/.S.l.l.9.} h                                             ",
"                                d ].l.# . ( ].OXOXq.= % - OXOXOXOXOXOX.XS.l.l.x.#.y                                             ",
"                                h ].p.. . ( ].OXOXq.& . + 1 #.OXOXOXOXOXS.l.l.l...y                                             ",
"                                d ].p.. . ( .XOX.X9.& . . + K OXOXOXOXOXS.l.l.x.#.y                                             ",
"                              k d ].M.5 8 3..XOXOXx.h 8 8 8 =.OXOXOXOXOXS.l.l.l.#.r                                             ",
"                      _ ~ ~ ~ ~ ~ ]..X.X.X.X.XOXOX.X.X.X.X.XT.x.M.M.M.x.x.l.l.x.>.G ~                                           ",
"                  ~ T C.Q.T.T.Q.T.).].OXOXU.x.M.H.OXOXOX.XS.9.~ ~ ~ T ( =.y.l.l.f.y.T G                                         ",
"                K ../..XOXOXOXOXOXx.C.OX.Xn # # d OXOXOX).y =././././.Q._ G x.l.l.x.P m                                         ",
"                K #.OXOXOX.XOX.X.Xl.C.OXOXU.x.x.H..X].} C U./.OXOXOXOXOX/.f.m p.l.l.P m                                         ",
"              C >.S.OXOXOXOX.X/.S.l.M.OXOXOXOXOXOXH.#.9.f.OX.XOXOXOXOXOX.X/.f.l.l.l.P m                                         ",
"              r q.OXOXOX.X.XQ.S.x.l.M.OXOXOXOXOXOXx.m M.OXOXOXOXOXOXOXOXOXOXOXx.l.l.P m                                         ",
"              y 9..XOXOX.XT.C.l.l.l.M.OXOXOXOXOXOXM.m *.y.y.H.OXOXOXOXOXOXOX.XM.l.l.T m                                         ",
"              y q.OXOXOX].l.x.l.l.l.C.OXOXOXOXOXOXS._ n h P >.T..XOXOXOXOXOXOXx.x.l.P m                                         ",
"              d q.OXOXOX].l.x.l.l.l.M.OXOXOXOXOX.XOXOXT y M._ } ).OXOXOXOXOX.Xx.l.l.P C                                         ",
"                T n n m C G *.p.l.l.M.OX.XU.x.OXOXOXOX_ n f._ ..T.].OXOXOXOXOX].U.l.~ G                                         ",
"                  m h ..>.=.~ } f.l.M.OXOXU.l.OXOXOXOXS.x.C _ #.~ U.].OXOXOXOXOXT.l.9.#.h                                       ",
"                      ( ( f.P T p.l.M.OXOXU.l.OXOXOXOXU.H.r _ y.#.} >..XOXOXOXOXT.l.l.=.d                                       ",
"                        m ( m ~ p.l.M.OXOXH.l.OXOXOX.XC.l._ _ =.f.n K .XOX].U.].Q.l.l.>.d                                       ",
"                          T k ~ f.l.M.OXOXH.l.OXOXOXOXC.l.f._ ~ f.m K .XOX/.x.].T.l.l.=.y                                       ",
"                            G ~ p.l.C.OXOXU.l.OXOXOXOXS.l.l...~ 3.k K .XOX/.x./.U.l.l.=.y                                       ",
"                            G T p.x.C.OXOXU.l.OXOXOXOXC.l.l.l.=.C d K .XOX/.l.l.l.l.l.>.C                                       ",
"                            G ~ p.l.M.OXOXH.x.OXOXOXOXS.l.l.f.f.y.K T S.)./.l.l.l.l.l.f.3.m                                     ",
"                            G T p.l.M.OXOXH.l.OXOXOXOXC.l.l.l.l.l.q.>.C x.).l.l.l.l.l.l.y.k k                                   ",
"                            G T p.l.M.OXOXU.l.OXOXOXOXT.U.l.l.l.l.l.y.} S.].U.x.l.l.l.l.y.k k                                   ",
"                            G T p.l.M.OXOXH.x.S.T.OXOXOX.Xf.l.l.l.l.l.l.Q.OX.XM.l.l.l.l.y.k k                                   ",
"                            C ~ f.x.M./..XU.l.l.S.OXOXOX.Xl.x.l.l.l.l.l.Q.OX.Xx.l.l.l.l.p._ P                                   ",
"                            K T *.l.l.S.OXH.l.l.S.OXOXOX.Xl.l.x.x.l.l.l.U./.OXH.M.l.l.l.l.x._ d                                 ",
"                                k l.l.C.].S.f.l.C..X.XOX.Xf.l.l.l.l.l.l.x.S..X].U.l.l.l.l.x.} d                                 ",
"                                d x.q.h n k h h n _ T.OX.Xl.l.x.x.l.l.l.l.x.M.].T.l.l.l.l.l.p.p.K C                             ",
"                                d m K q.9.9.9.9.} h C q.x.l.l.l.l.l.l.l.l.l.x.].]./.C.l.l.l.l.x.C k                             ",
"                                d y m l.l.l.l.l.*.m *.T C x.l.l.l.l.l.l.l.l.l.M.M.C.x.l.l.l.l.l.q.>.C                           ",
"                                n y n ....} } } T k ( _ ( x.l.l.l.l.l.l.l.l.l.l.l.l.l.l.l.l.l.l.l.q.h                           ",
"                                  m n n n k y C C n d } 3.9.3.3.9.3.q.l.l.l.l.l.l.l.l.l.l.l.l.l.l.y.C                           ",
"                                          m r 3.=.} h C C G C G C G T q.9.9.9.9.3.9.9.9.9.3.9.9.9.9.} k G                       ",
"                                          G h y y d h                 k y d d y d d d d d y d d y d d d d d ~                   ",
"                                                                                                                                ",
"                                                                                                                                ",
"                                                                                                                                ",
"                                                                                                                                ",
"                                                                                                                                ",
"                                                                                                                                ",
"                                                                                                                                ",
"                                                                                                                                ",
"                                                                                                                                ",
"                                                                                                                                ",
"                                                                                                                                ",
"                                                                                                                                ",
"                                                                                                                                ",
"                                                  5 5 8 8 5 8 5 8 5 8 8 5 8 8 5 8 5                                             ",
"                                      n k h k k y 1 : : : 1 1 : : : : : : : : 1 : 1 h k k h k                                   ",
"                                    q 5 : 1 1 : : 1 1 1 1 : : 1 1 1 1 1 1 1 1 : : : 1 : 1 : : 5 d                               ",
"                                8 1 1 : : 1 : : 1 : : : 1 1 : 1 : 1 : : 1 : 1 : 1 1 : 1 : 1 : 1 1 1 5                           ",
"                                  r 8 5 1 : : 1 : 1 1 : 1 1 : 1 : : 1 : : 1 1 : 1 : 1 : 1 : : 1 q r                             ",
"                                      h y d d y q : : : : : : : 1 : : 1 1 : : : : : y d y d d d                                 ",
"                                                C 5 1 5 1 5 5 1 5 1 1 5 1 5 1 5 1 1                                             ",
"                                                                                                                                "
};
