/* XPM */
static char *_4533d73cd0b4e5ed061bfeaec71af6cYvr7M4VrflwZEw4T[] = {
/* columns rows colors chars-per-pixel */
"64 64 97 2 ",
"   c #F12121",
".  c #F12323",
"X  c #F12727",
"o  c #F22727",
"O  c #F22828",
"+  c #F12A2A",
"@  c #F12C2C",
"#  c #F22F2F",
"$  c #F13232",
"%  c #F13333",
"&  c #F63131",
"*  c #F63232",
"=  c #F13434",
"-  c #F13636",
";  c #F53535",
":  c #F23939",
">  c #F23C3C",
",  c #F23D3D",
"<  c #F24242",
"1  c #F34242",
"2  c #F24545",
"3  c #F64545",
"4  c #F24848",
"5  c #F34949",
"6  c #F34E4E",
"7  c #F44D4D",
"8  c #F35050",
"9  c #F35252",
"0  c #F35454",
"q  c #F35757",
"w  c #F45454",
"e  c #F45858",
"r  c #F45D5D",
"t  c #F55E5E",
"y  c #F85E5E",
"u  c #F56060",
"i  c #F46262",
"p  c #F56767",
"a  c #F56868",
"s  c #F56E6E",
"d  c #F57272",
"f  c #F67474",
"g  c #F57777",
"h  c #F67676",
"j  c #F67878",
"k  c #F67979",
"l  c #F67C7C",
"z  c #F67D7D",
"x  c #F68282",
"c  c #F68484",
"v  c #F68686",
"b  c #F78888",
"n  c #F78C8C",
"m  c #F78E8E",
"M  c #F79191",
"N  c #F79595",
"B  c #F89494",
"V  c #F79999",
"C  c #F89C9C",
"Z  c #F89E9E",
"A  c #F8A0A0",
"S  c #F8A2A2",
"D  c #F8A5A5",
"F  c #F9A6A6",
"G  c #F8A7A7",
"H  c #F9ABAB",
"J  c #F9ACAC",
"K  c #F9B1B1",
"L  c #F9B3B3",
"P  c #F9B4B4",
"I  c #F9B5B5",
"U  c #FAB9B9",
"Y  c #FABCBC",
"T  c #FABEBE",
"R  c #FAC1C1",
"E  c #FAC3C3",
"W  c #FAC4C4",
"Q  c #FBC6C6",
"!  c #FBC7C7",
"~  c #FBCBCB",
"^  c #FACCCC",
"/  c #FBD1D1",
"(  c #FBD3D3",
")  c #FBD6D6",
"_  c #FBD8D8",
"`  c #FCD9D9",
"'  c #FCDCDC",
"]  c #FCDEDE",
"[  c #FCE3E3",
"{  c #FCE4E4",
"}  c #FCE9E9",
"|  c #FDEBEB",
" . c #FDEDED",
".. c #FDF1F1",
"X. c #FDF7F7",
"o. c #FDFAFA",
"O. c #FDFDFD",
/* pixels */
"o o o o o o o o o o o o o o o o o o o o o o o o o o o o o o o o o o o o o o o o o o o o o o o o o o o o o o o o o o o o o o + * ",
"o o o o o o o o o o o o o o o o o o o o o o o o o o o o o o o o o o o o o o o o o o o o o o o o o o o o o o o o o o o o o o + * ",
"o o o o o o o o o o o o o o o o o o o o o o o o o o o o o o o o o o o o o o o o o o o o o o o o o o o o o o o o o o o o o o o * ",
"o o o o o o o o o o o o o o o o o o o o o o o o o o o o o o o o o o o o o o o o o o o o o o o o o o o o o o o o o o o o o O O # ",
"o o o o o o o o o o o o o o o o o o o o o o o o o o o o o o o o o o o o o o o o o o o o o o o o o o o o o o o o o o o o o o o * ",
"o o o o o o o o o o o o o o o o o o o o o o o o o o o o o o o o o o o o o o o o o o o o o o o o o o o o o o o o o o o o o o O * ",
"o o o o o o o o o o o o o o o o o o o o o o o o o o o o o o o o o o o o o o o o o o o o o o o o o o o o o o o o o o o o o O O * ",
"o o o o o o o o o o o o o o o o o o o o o o o o o o o o o o o o o o o o o o o o o o o o o o o o o o o o o o o o o o o o o O O * ",
"o o o o o o o o o o o o o o o o o o o o o o o o o o o o o o o o o o o o o o o o o o o o o o o o o o o o o o o o o o o o o o o * ",
"o o o o o o o o o o o o o o o o o o o o o o o o o o o o o o o o o o o o o o o o o o o o o o o o o o o o o o o o o o o o o o + * ",
"o o o o o o o o o o o o o o o o o o o o o o o o o o o o o o o o o o o o o o o o o o o o o o o o o o o o o o o o o o o o o o o * ",
"o o o o o o o o o o o o o o o o o o o o o o o o o o o o o o o o o o o o o o o o o o o o o o o o o o o o o o o o o o o o o o o * ",
"o o o o o o o o o o o o o o o o o o o o o o o o o o o o o o o o o o o o o o o o o o o o o o o o o o o o o o o o o o o o o o o * ",
"o o o o o o o o o o o o o o o o o o o o o o o o o o o o o o o o o o o o o o o o o o o o o o o o o o o o o o o o o o o o o o O * ",
"o o o o o o o o o o o o o o o o o o o o o o o o O # # # # # % * # % # # O o X o o o o o o o o o o o o o o o o o o o o o o o O * ",
"o o o o o o o o o o o o o o o o o o o o o o o o g L L L L L L I L J L L N % X o o o o o o o o o o o o o o o o o o o o o o o O * ",
"o o o o o o o o o o o o o o o o o o o o o o o   R O.O.O.O.O.O.O.O.O.O.o.T + o o o o o o o o o o o o o o o o o o o o o o o o O * ",
"o o o o o o o o o o o o o o o o o o o o o o o o  .O.O.O.O.O.O.O.O.O.O.o.V   X o o o o o o o o o o o o o o o o o o o o o o o O * ",
"o o o o o o o o o o o o o o o o o o o o o o o < O.O.O.O.O.O.O.O.O.O.O.o.g O o o o o o o o o o o o o o o o o o o o o o o o o O * ",
"o o o o o o o o o o o o o o o o o o o o o o o g O.O.O.O.O.O.O.O.O.O.O...4 o o o o o o o o o o o o o o o o o o o o o o o o o O * ",
"o o o o o o o o o o o o o o o o o o o o o o   L O.O.O.O.O.O.O.O.O.O.O.{ + + o o o o o o o o o o o o o o o o o o o o o o o o O * ",
"o o o o o o o o o o o o o o o o o o o o o o o { O.O.O.O.O.O.O.O.O.O.O.T   X o o o o o o o o o o o o o o o o o o o o o o o o O * ",
"o o o o o o o o o o o o o o o o o o o o o o , o.O.O.O.O.O.O.O.O.O.O.O.v o o o o o o o o o o o o o o o o o o o o o o o o o o O * ",
"o o o o o o o o o o o o o o o o o o o o o o a O.O.O.O.O.O.O.O.O.O.O.O.8 o o o o o o o o o o o o o o o o o o o o o o o o o o O * ",
"o o o o o o o o o o o o o o o o o o o o o   V O.O.O.O.O.O.O.O.O.O.O.o.O o o o o o o o o o o o o o o o o o o o o o o O o o o o * ",
"o o o o o o o o o o o o o o o o o o o o o o R O.O.O.O.O.O.O.O.O.O.O.^   o o o o o o o o o o o o o   o o o o o o o   O O o o + * ",
"o o o o o o o o o o o o o o o o o o o o o : ` O.O.O.O.O.O.O.O.O.O.O.Z   o o o o o o O O o   # 2 t s l v b b b x g a 0 : o o o * ",
"o o o o o o o o o o o o o o o o o o o o o t { O.O.O.O.O.O.O.O.O.O.O.a O o o o o o   o O 6 b I ^ ] { ..X.o.o.o.X. .{ ) R C q # # ",
"o o o o o o o o o o o o o o o o o o o o   v ..O.O.O.O.O.O.O.O.O.O...< X o o o o O o < H { X.O.O.O.O.O.O.O.O.O.O.O.O.O.O.X. .L 3 ",
"o o o o o o o o o o o o o o o o o o o o o G o.O.O.O.O.O.O.O.O.O.O.( = X o o o o O g  .O.O.O.O.O.O.O.O.O.X.o.O.O.O.O.O.O.O.O.O.{ ",
"o o o o o o o o o o o o o o o o o o o o % R O.O.O.O.O.O.O.O.O.O.O.H $ o o X o # B O.O.O.O.O.O.O.O.O.O.{ H A ` O.O.O.O.O.O.O.O.O.",
"o o o o o o o o o o o o o o o o o o o o 6 ( O.O.O.O.O.O.O.O.O.O.O.l + o X o = N o.O.O.O.O.O.O.O.O.O.) i   o s X.O.O.O.O.O.O.O.O.",
"o o o o o o o o o o o o o o o o o o o   a { O.O.O.O.O.O.O.O.O.O.X.r O O o + l  .O.O.O.O.O.O.O.O.O.| g O o o 8 { O.O.O.O.O.O.O.O.",
"o o o o o o o o o o o o o o o o o o o o v X.O.O.O.O.O.O.O.O.O.O.] 4   o   q ) O.O.O.O.O.O.O.O.O.O.L : O o   8 _ O.O.O.O.O.O.O.O.",
"o o o o o o o o o o o o o o o o o o o # C O.O.O.O.O.O.O.O.O.O.O.T , o o % V o.O.O.O.O.O.O.O.O.O. .j O o O o 8 _ O.O.O.O.O.O.O.O.",
"o o o o o o o o o o o o o o o o o o o , T O.O.O.O.O.O.O.O.O.O.O.Z % o o 4 _ O.O.O.O.O.O.O.O.O.O.^ 4 o o O O 8 { O.O.O.O.O.O.O.O.",
"o o o o o o o o o o o o o X o o o o o 6 _ O.O.O.O.O.O.O.O.O.O.o.x + O + s o.O.O.O.O.O.O.O.O.O.o.I O o o o o q  .O.O.O.O.O.O.O.O.",
"o o O # # # # # # # # # # O X o o o O t ..O.O.O.O.O.O.O.O.O.O.| p   O + A O.O.O.O.O.O.O.O.O.O.o.v   o o o o p X.O.O.O.O.O.O.O.O.",
"O , N A H G G H G H A G M O o o o o O j O.O.O.O.O.O.O.O.O.O.O.( 8 O o O ! O.O.O.O.O.O.O.O.O.O. .t O O o o + g o.O.O.O.O.O.O.O.O.",
"O 0  .O.O.O.o.O.O.O.O.o.T   o o o o - Z O.O.O.O.O.O.O.O.O.O.O.T : O o # [ O.O.O.O.O.O.O.O.O.O.{ , O O o o $ N o.O.O.O.O.O.O.O.O.",
"+ d O.O.O.O.O.O.O.O.O.O.N o o o o o = ! o.O.O.O.O.O.O.O.O.O.o.G + o o $  .O.O.O.O.O.O.O.O.O.O._ O o o o O : I O.O.O.O.O.O.O.O.O.",
"+ Z O.O.O.O.O.O.O.O.O.O.p o o o o o , } O.O.O.O.O.O.O.O.O.O...x   o o $  .O.O.O.O.O.O.O.O.O.O.R   o o o o 1 ` O.O.O.O.O.O.O.O.O.",
"+ ! O.O.O.O.O.O.O.O.O.O.4 o o o o o 8 O.O.O.O.O.O.O.O.O.O.O.{ t X o o @ { O.O.O.O.O.O.O.O.O.o.J   O o o o q o.O.O.O.O.O.O.O.O.O.",
"$ } O.O.O.O.O.O.O.O.O.O.% o o o o o v O.O.O.O.O.O.O.O.O.O.O.( ; X o X + ) O.O.O.O.O.O.O.O.O.O.V   O o o O b O.O.O.O.O.O.O.O.O.O.",
"6 O.O.O.O.O.O.O.O.O.O.X.O o o o +   ! O.O.O.O.O.O.O.O.O.O.o.v + X o + + H O.O.O.O.O.O.O.O.O.O.N o O O o o / O.O.O.O.O.O.O.O.O.O.",
"v O.O.O.O.O.O.O.O.O.O.O.% o o o o : X.O.O.O.O.O.O.O.O.O.O.] -   o o O + j O.O.O.O.O.O.O.O.O.O.Z   O o o i o.O.O.O.O.O.O.O.O.O.O.",
"T o.O.O.O.O.O.O.O.O.O.O.8 o o o   V O.O.O.O.O.O.O.O.O.O.O.t o X o o o   6 ] O.O.O.O.O.O.O.O.O.I   o o O { O.O.O.O.O.O.O.O.O.O. .",
"d  .O.O.O.O.O.O.O.O.O.O.U % # % r o.O.O.O.O.O.O.O.O.O.X.m o o o o o o X $ N o.O.O.O.O.O.O.O.O.{ 2 % - A O.O.O.O.O.O.O.O.O.O.{ t ",
"+ s ( o.O.O.O.O.O.O.O.O.o.U v G  .O.O.O.O.O.O.O.O.O.[ N #   O o o o o o O 4 U o.O.O.O.O.O.O.O.O.^ V ! o.O.O.O.O.O.O.O.O.o.( a ; ",
"o + 8 L ..O.O.O.O.O.O.O.O.O.O.O.O.O.O.O.O.O.O.O.o.! f % o o O o o o o o o O 8 U O.O.O.O.O.O.O.O.O.O.O.o.O.O.O.O.O.O.O. .J q # * ",
"o o O 2 x ) o.O.O.O.O.O.O.O.O.O.O.O.O.O.O.O.o.( v 6 O o o o o o o o o o o o o 4 N [ O.O.O.O.O.O.O.O.O.O.O.O.O.O.O. .U f , o o * ",
"o o o O @ , u A _ X.O.O.O.O.O.O.O.O.O. .^ V t , #   o o o o o o o o o o o o O   # 1 j I { o.O.O.O.O.O.O.O.o.' I l 6 : O o o O * ",
"o o o o o o X     # 2 q s g g f u 6 % O   o o o o o o o o o o o o o o o o o o o o o o     - 2 8 i p t 6 , #     o o o o o o O * ",
"o o o o o o o o o o o o O O o o o o O O o o o o o o o o o o o o o o o o o o o o o o o o o o o o o o o o o o o o o o o o o o O * ",
"o o o o o o o o o o o o o o o o o o o o o o o o o o o o o o o o o o o o o o o o o o o o o o o o o o o o o o o o o o o o o o O * ",
"o o o o o o o o o o o o o o o o o o o o o o o o o o o o o o o o o o o o o o o o o o o o o o o o o o o o o o o o o o o o o o O * ",
"o o o o o o o o o o o o o o o o o o o o o o o o o o o o o o o o o o o o o o o o o o o o o o o o o o o o o o o o o o o o o o o * ",
"o o o o o o o o o o o o o o o o o o o o o o o o o o o o o o o o o o o o o o o o o o o o o o o o o o o o o o o o o o o o o o + * ",
"o o o o o o o o o o o o o o o o o o o o o o o o o o o o o o o o o o o o o o o o o o o o o o o o o o o o o o o o o o o o o o + * ",
"o o o o o o o o o o o o o o o o o o o o o o o o o o o o o o o o o o o o o o o o o o o o o o o o o o o o o o o o o o o o o O O # ",
"o o o o o o o o o o o o o o o o o o o o o o o o o o o o o o o o o o o o o o o o o o o o o o o o o o o o o o o o o o o o o o o * ",
"o o o o o o o o o o o o o o o o o o o o o o o o o o o o o o o o o o o o o o o o o o o o o o o o o o o o o o o o o o o o o o o * ",
"O O O O O O O o O O o o O o O O o o + o + o o o + o + o o o + o + o o o + o o o O O O O O O O O O O O O O O O O O O O O O O O * ",
"o o o o o o o o o O o O O o o o o o o o o o o o o o o o o o o o o o o o o o o o o o o o o o o o o o o o o o o o o o o o o O O * "
};
