/* XPM */
static char *_320e6cd6e2b42a69cf415b7658fe304SsrGKNnrHcjeBofx[] = {
/* columns rows colors chars-per-pixel */
"64 64 113 2 ",
"   c #373E7E",
".  c #383F7F",
"X  c #39407F",
"o  c #FCEA15",
"O  c #FBEA18",
"+  c #FBEA24",
"@  c #FCEC31",
"#  c #FBED3E",
"$  c #FBED49",
"%  c #FBEF5F",
"&  c #FBF16F",
"*  c #3C4381",
"=  c #404784",
"-  c #434A86",
";  c #474E89",
":  c #484F89",
">  c #4D538C",
",  c #51578F",
"<  c #555B92",
"1  c #595F94",
"2  c #5B6196",
"3  c #5E6499",
"4  c #61669A",
"5  c #646A9B",
"6  c #696E9F",
"7  c #6D72A1",
"8  c #7175A3",
"9  c #7379A5",
"0  c #7A7FA9",
"q  c #EF52CC",
"w  c #EF58CE",
"e  c #F052CD",
"r  c #F059CE",
"t  c #F05FD0",
"y  c #F063D1",
"u  c #F16DD4",
"i  c #F273D6",
"p  c #F27BD7",
"a  c #F27FD9",
"s  c #7C81AB",
"d  c #8084AD",
"f  c #878BB3",
"g  c #8A8EB4",
"h  c #8D91B6",
"j  c #9296B9",
"k  c #969ABC",
"l  c #999CBE",
"z  c #FCF283",
"x  c #FBF389",
"c  c #FCF494",
"v  c #FDF599",
"b  c #FDF5A3",
"n  c #FDF6AC",
"m  c #FCF7B3",
"M  c #9DA1C0",
"N  c #A3A6C3",
"B  c #A7AAC6",
"V  c #A9ACC7",
"C  c #AEB1CA",
"Z  c #B2B4CD",
"A  c #BABCD3",
"S  c #F381DA",
"D  c #F48DDD",
"F  c #F494DF",
"G  c #F497E0",
"H  c #F59BE1",
"J  c #F6A7E5",
"K  c #F8A6E5",
"L  c #F6ACE6",
"P  c #F7B3E8",
"I  c #FAB7EB",
"U  c #F8BEEB",
"Y  c #BFC1D5",
"T  c #C4C6D9",
"R  c #C7C9DB",
"E  c #CACCDD",
"W  c #FDFAD4",
"Q  c #FDFBDB",
"!  c #D3D5E3",
"~  c #D7D9E5",
"^  c #D9DBE6",
"/  c #DDDEE9",
"(  c #F8C1EC",
")  c #F9CDEF",
"_  c #FACFF0",
"`  c #FAD4F2",
"'  c #FBDCF4",
"]  c #DFE0EA",
"[  c #E3E4ED",
"{  c #E8E8EF",
"}  c #FEFDED",
"|  c #EAEBF2",
" . c #FBE3F6",
".. c #FCECF9",
"X. c #EFF0F5",
"o. c #F1F2F6",
"O. c #FEFDF3",
"+. c #FEFDF5",
"@. c #F5F5F9",
"#. c #F5F6F9",
"$. c #F7F7F9",
"%. c #FCF0FA",
"&. c #FEF2FB",
"*. c #FDF7FB",
"=. c #FDF6FC",
"-. c #FDF7FC",
";. c #F8F8FA",
":. c #FEFDFA",
">. c #FAFBFC",
",. c #FDF9FC",
"<. c #FEFBFD",
"1. c #FCFCFD",
"2. c white",
/* pixels */
"2.2.2.2.2.2.2.2.2.2.2.2.2.2.2.2.2.2.2.2.2.2.2.2.2.2.2.2.2.2.2.2.2.2.2.2.2.2.2.2.2.2.2.2.2.2.2.2.2.2.2.2.2.2.2.2.2.2.2.2.2.2.2.2.",
"2.2.2.2.2.2.2.2.2.2.2.2.2.2.2.2.2.2.2.2.2.2.2.2.2.2.2.2.2.2.2.2.2.2.2.2.2.2.2.2.2.2.2.2.2.2.2.2.2.2.2.2.2.2.2.2.2.2.2.2.2.2.2.2.",
"2.2.2.2.2.2.2.2.2.2.2.2.2.2.2.2.2.2.2.2.2.2.2.2.2.2.2.2.2.2.2.2.2.2.2.2.2.2.2.2.2.2.2.2.2.2.2.2.2.2.2.2.2.2.2.2.2.2.2.2.2.2.2.2.",
"2.2.2.2.2.2.2.2.2.2.2.2.2.2.2.2.2.2.2.2.2.2.2.2.2.2.2.2.2.2.2.2.2.2.2.2.2.2.2.2.2.2.2.2.2.2.2.2.2.2.2.2.2.2.2.2.2.2.2.2.2.2.2.2.",
"2.2.2.2.2.2.2.2.2.2.2.2.2.2.2.2.2.2.2.2.2.2.2.2.2.2.2.2.2.2.2.2.2.2.2.2.2.2.2.2.2.2.2.2.2.2.2.2.2.2.2.2.2.2.2.2.2.2.2.2.2.2.2.2.",
"2.2.2.2.2.2.2.2.2.2.2.2.2.2.2.2.2.2.2.2.2.2.2.2.2.2.2.2.2.2.2.2.2.2.2.2.2.2.2.2.2.2.2.2.2.2.2.2.2.2.2.2.2.2.2.2.2.2.2.2.2.2.2.2.",
"2.2.2.2.2.2.2.2.2.2.2.2.2.2.2.2.2.2.2.2.2.2.2.2.2.2.2.2.2.2.2.2.2.2.2.2.2.2.2.2.2.2.2.2.2.2.2.2.2.2.2.2.2.2.2.2.2.2.2.2.2.2.2.2.",
"2.2.2.2.2.2.2.2.2.2.2.2.2.2.2.2.2.2.2.2.2.2.2.2.2.2.2.2.2.2.2.2.2.2.2.2.2.2.2.2.2.2.2.2.2.2.2.2.2.2.2.2.2.2.2.2.2.2.2.2.2.2.2.2.",
"2.2.2.2.2.2.2.2.2.2.2.2.2.2.2.2.2.2.2.2.2.2.2.2.2.2.2.2.2.2.2.2.2.2.2.2.2.2.2.2.2.2.2.2.2.2.2.2.2.2.2.2.2.2.2.2.2.2.2.2.2.2.2.2.",
"2.2.2.2.2.2.2.2.2.2.2.2.2.2.2.2.2.2.2.2.2.2.2.2.2.2.2.2.2.2.2.2.2.2.2.2.2.2.2.2.2.2.2.2.2.2.2.2.2.2.2.2.2.2.2.2.2.2.2.2.2.2.2.2.",
"2.2.2.2.2.2.2.2.2.2.2.2.2.2.2.2.2.2.2.2.2.2.2.2.2.2.2.2.2.2.2.2.2.2.2.2.2.2.2.2.2.2.2.2.2.2.2.2.2.2.2.2.2.2.2.2.2.2.2.2.2.2.2.2.",
"2.2.2.2.2.2.2.2.2.2.2.2.2.2.2.2.2.2.2.2.2.2.2.2.2.2.2.2.2.2.2.2.2.2.2.2.2.2.2.2.2.2.2.2.2.2.2.2.2.2.2.2.2.2.2.2.2.2.2.2.2.2.2.2.",
"2.2.2.2.2.2.2.2.2.2.2.2.2.2.2.2.2.2.2.2.2.2.2.2.2.2.2.2.2.2.2.2.2.2.2.2.2.2.2.2.2.2.2.2.2.2.2.2.2.2.2.2.2.2.2.2.2.2.2.2.2.2.2.2.",
"2.2.2.2.2.2.2.2.2.2.2.2.2.2.2.2.2.2.2.2.2.2.2.2.2.2.2.| / ! E T T E ! [ o.2.2.2.2.2.2.2.2.2.2.2.2.2.2.2.2.2.2.2.2.2.2.2.2.2.2.2.",
"2.2.2.2.2.2.2.2.2.2.2.2.2.2.2.2.2.2.2.2.2.2.2.2.$.C 3 = * * . .   . * * * 5 A >.2.2.2.2.2.2.2.2.2.2.2.2.2.2.2.2.2.2.2.2.2.2.2.2.",
"2.2.2.2.2.2.2.2.2.2.2.2.2.2.2.2.2.2.2.2.2.,.[ M < * . . . . . . . . . . * . * 2 V { 2.2.2.2.2.2.2.2.2.2.2.2.2.2.2.2.2.2.2.2.2.2.",
"2.2.2.2.2.2.2.2.2.2.2.2.2.2.2.2.2.2.2.2.>.Z 4 . . . . . . . . . . . . . . .   * * 6 R 2.2.2.2.2.2.2.2.2.2.2.2.2.2.2.2.2.2.2.2.2.",
"2.2.2.2.2.2.2.2.2.2.2.2.2.2.2.2.2.2.2.2.f   . . . . . . . . . . . . . . .     . . . . l ,.2.2.2.2.2.2.2.2.2.2.2.2.2.2.2.2.2.2.2.",
"2.2.2.2.2.2.2.2.2.2.2.2.2.2.2.2.2.2.[ 0 . . . . . . . . . . . . . . . . . . . . . .   * h | 2.2.2.2.2.2.2.2.2.2.2.2.2.2.2.2.2.2.",
"2.2.2.2.2.2.2.2.2.2.2.2.2.2.2.2.2.2.0 * . . . . . . . . . . . . . . . . . . . . . . * * * h 2.2.2.2.2.2.2.2.2.2.2.2.2.2.2.2.2.2.",
"2.2.2.2.2.2.2.2.2.2.2.2.2.2.2.2.2.f . = : 6 s 8 , * * . . . . . . . . .   . * < 9 0 5 - * . M 2.2.2.2.2.2.2.2.2.2.2.2.2.2.2.2.2.",
"2.2.2.2.2.2.2.2.2.2.2.2.2.2.2.>.Z > j E >.2.2.2.;.! l 1 . . . . . .   * 5 N [ ;.2.2.2.$.E f 2 R 2.2.2.2.2.2.2.2.2.2.2.2.2.2.2.2.",
"2.2.2.2.2.2.2.2.2.2.2.2.2.2.2.[ j ~ $.2.2.2.2.2.2.2.;.~ 5 . X .   *   d [ 2.2.2.2.2.2.2.2.$.E k o.2.2.2.2.2.2.2.2.2.2.2.2.2.2.2.",
"2.2.2.2.2.2.2.2.2.2.2.2.2.2.2.! [ 2.2.2.2.2.2.2.2.2.2.2.;.h : * * > M ;.2.2.2.2.2.2.2.2.2.2.2.~ ~ 2.2.2.2.2.2.2.2.2.2.2.2.2.2.2.",
"2.2.2.2.2.2.2.2.2.2.2.2.2.2.2.o.2.2.2.2.2.2.2.2.2.2.2.2.2.>.! C Z / ,.2.2.2.2.2.2.2.2.2.2.2.2.2.| 2.2.2.2.2.2.2.2.2.2.2.2.2.2.2.",
"2.2.2.2.2.2.2.2.2.2.2.2.2.2.2.2.2.2.2.2.2.2.2.2.2.2.2.2.2.2.2.2.2.2.2.2.2.2.2.2.2.2.2.2.2.2.2.2.2.2.2.2.2.2.2.2.2.2.2.2.2.2.2.2.",
"2.2.2.2.2.2.2.2.2.2.2.2.2.2.K L U `  . .....*.,.2.2.2.2.2.2.2.2.2.2.2.2.2.2.2.:.,.=..... . .` U L I 2.2.2.2.2.2.2.2.2.2.2.2.2.2.",
"2.2.2.2.2.2.2.2.2.2.2.2.2.&.w q e q r y i S D F J P ( ) '  .*.2.2.*...' ) ( P J H D a i y r e q q i =.2.2.2.2.2.2.2.2.2.2.2.2.2.",
"2.2.2.2.2.2.2.2.2.2.2.2.2.2.L q e e e e e e q q q q r r r y y u u y y t w w r q q q q q e e e e q K ,.2.2.2.2.2.2.2.2.2.2.2.2.2.",
"2.2.2.2.2.2.2.2.2.2.2.2.2.2.2.U y q e e e e e e e e e e e q e e q q q e q q e e q e q q e e e y U 2.2.2.2.2.2.2.2.2.2.2.2.2.2.2.",
"2.2.2.2.2.2.2.2.2.2.2.2.2.2.2.,.' p q e e e e e e e e e e q r y t r e e e e e e q e e e e q p ` 2.2.2.2.2.2.2.2.2.2.2.2.2.2.2.2.",
"2.2.2.2.2.2.2.2.2.2.2.2.2.o.2.2.2.*.F w e e e e e e e e e y ` *.&.` y q e e e e e e e e e F $.2.2.;.;.2.2.2.2.2.2.2.2.2.2.2.2.2.",
"2.2.2.2.2.2.2.2.2.2.2.2.2./ ;.2.2.2.=.L t q e q q q q w G ..2.2.2.2.=.H y q e e q q q t L 2.2.2.2.{ X.2.2.2.2.2.2.2.2.2.2.2.2.2.",
"2.2.2.2.2.2.2.2.2.2.2.2.2.R [ 2.2.2.2.=._ i q q q q S ) >.2.2.2.2.2.2.,.) S q e q q i ) ,.2.2.2.2.E [ 2.2.2.2.2.2.2.2.2.2.2.2.2.",
"2.2.2.2.2.2.2.2.2.2.2.2.2.E s 2.2.2.2.2.2...a q q P 2.2.2.2.2.2.2.2.2.2.2.2.P q q S ..2.2.2.2.2.2.s { 2.2.2.2.2.2.2.2.2.2.2.2.2.",
"2.2.2.2.2.2.2.2.2.2.2.2.2.~ * A >.2.2.2.2.2.*.J ` 2.+.b z z z z z z z z m 2.2.` H %.>.2.2.2.2.$.V > | 2.2.2.2.2.2.2.2.2.2.2.2.2.",
"2.2.2.2.2.2.2.2.2.2.2.2.2.| = > Y 2.2.2.2.2.2.2.2.2.:.c O o o o o o o + m 2.2.2.2.2.2.2.2.2.>.C - 3 $.2.2.2.2.2.2.2.2.2.2.2.2.2.",
"2.2.2.2.2.2.2.2.2.2.2.2.2.2.5 * * A 2.2.2.2.2.2.2.2.2.} b v v v v v v n +.2.2.2.2.2.2.2.2.2.N * * s 2.2.2.2.2.2.2.2.2.2.2.2.2.2.",
"2.2.2.2.2.2.2.2.2.2.2.2.2.2.A . . . 7 Z ^ 2.2.2.2.2.2.2.,.n n n n n m :.2.2.2.2.2.2.2.~ V 5     * R 2.2.2.2.2.2.2.2.2.2.2.2.2.2.",
"2.2.2.2.2.2.2.2.2.2.2.2.2.2.>.2 . X X X 7 2.2.2.2.2.2.2.2.& o O O O x 2.2.2.2.2.2.2.2.5 * .     3 ;.2.2.2.2.2.2.2.2.2.2.2.2.2.2.",
"2.2.2.2.2.2.2.2.2.2.2.2.2.2.2.V X . . . 2 2.2.2.2.2.2.2.2.Q # @ @ $ 2.2.2.2.2.2.2.2.2.> . . * * T 2.2.2.2.2.2.2.2.2.2.2.2.2.2.2.",
"2.2.2.2.2.2.2.2.2.2.2.2.2.2.2.[ 6 . . . : ;.2.2.2.2.2.2.2.2.} W W +.2.2.2.2.2.2.2.2.$.* .   . 0 $.2.2.2.2.2.2.2.2.2.2.2.2.2.2.2.",
"2.2.2.2.2.2.2.2.2.2.2.2.2.2.2.2.T . . X * ] 2.2.2.2.2.2.2.2.} # % O.2.2.2.2.2.2.2.2.! .     > ! 2.2.2.2.2.2.2.2.2.2.2.2.2.2.2.2.",
"2.2.2.2.2.2.2.2.2.2.2.2.2.2.2.2.2.k * X * Z 2.2.2.2.2.2.2.2.:.v m 2.2.2.2.2.2.2.2.2.k X * * B 2.2.2.2.2.2.2.2.2.2.2.2.2.2.2.2.2.",
"2.2.2.2.2.2.2.2.2.2.2.2.2.2.2.2.2.:.h * * s o.2.2.2.2.2.2.2.2.:.:.2.2.2.2.2.2.2.2.{ 2 X = M 2.2.2.2.2.2.2.2.2.2.2.2.2.2.2.2.2.2.",
"2.2.2.2.2.2.2.2.2.2.2.2.2.2.2.2.2.2.X.f X ; E 2.2.2.2.2.2.2.2.2.2.2.2.2.2.2.2.2.2.C * * M $.2.2.2.2.2.2.2.2.2.2.2.2.2.2.2.2.2.2.",
"2.2.2.2.2.2.2.2.2.2.2.2.2.2.2.2.2.2.2.,.l ; 5 X.2.2.2.2.2.2.2.2.2.2.2.2.2.2.2.>.{ 2 > B 2.2.2.2.2.2.2.2.2.2.2.2.2.2.2.2.2.2.2.2.",
"2.2.2.2.2.2.2.2.2.2.2.2.2.2.2.2.2.2.2.2.2.T 8 0 [ 2.2.2.2.2.2.2.2.2.2.2.2.2.2.[ 7 s ! 2.2.2.2.2.2.2.2.2.2.2.2.2.2.2.2.2.2.2.2.2.",
"2.2.2.2.2.2.2.2.2.2.2.2.2.2.2.2.2.2.2.2.2.2.o.A k o.2.2.2.2.2.2.2.2.2.2.2.2.[ h T $.2.2.2.2.2.2.2.2.2.2.2.2.2.2.2.2.2.2.2.2.2.2.",
"2.2.2.2.2.2.2.2.2.2.2.2.2.2.2.2.2.2.2.2.2.2.2.2.$.[ 2.2.2.2.2.2.2.2.2.2.2.2.[ $.2.2.2.2.2.2.2.2.2.2.2.2.2.2.2.2.2.2.2.2.2.2.2.2.",
"2.2.2.2.2.2.2.2.2.2.2.2.2.2.2.2.2.2.2.2.2.2.2.2.2.2.2.2.2.2.2.2.2.2.2.2.2.2.2.2.2.2.2.2.2.2.2.2.2.2.2.2.2.2.2.2.2.2.2.2.2.2.2.2.",
"2.2.2.2.2.2.2.2.2.2.2.2.2.2.2.2.2.2.2.2.2.2.2.2.2.2.2.2.2.2.2.2.2.2.2.2.2.2.2.2.2.2.2.2.2.2.2.2.2.2.2.2.2.2.2.2.2.2.2.2.2.2.2.2.",
"2.2.2.2.2.2.2.2.2.2.2.2.2.2.2.2.2.2.2.2.2.2.2.2.2.2.2.2.2.2.2.2.2.2.2.2.2.2.2.2.2.2.2.2.2.2.2.2.2.2.2.2.2.2.2.2.2.2.2.2.2.2.2.2.",
"2.2.2.2.2.2.2.2.2.2.2.2.2.2.2.2.2.2.2.2.2.2.2.2.2.2.2.2.2.2.2.2.2.2.2.2.2.2.2.2.2.2.2.2.2.2.2.2.2.2.2.2.2.2.2.2.2.2.2.2.2.2.2.2.",
"2.2.2.2.2.2.2.2.2.2.2.2.2.2.2.2.2.2.2.2.2.2.2.2.2.2.2.2.2.2.2.2.2.2.2.2.2.2.2.2.2.2.2.2.2.2.2.2.2.2.2.2.2.2.2.2.2.2.2.2.2.2.2.2.",
"2.2.2.2.2.2.2.2.2.2.2.2.2.2.2.2.2.2.2.2.2.2.2.2.2.2.2.2.2.2.2.2.2.2.2.2.2.2.2.2.2.2.2.2.2.2.2.2.2.2.2.2.2.2.2.2.2.2.2.2.2.2.2.2.",
"2.2.2.2.2.2.2.2.2.2.2.2.2.2.2.2.2.2.2.2.2.2.2.2.2.2.2.2.2.2.2.2.2.2.2.2.2.2.2.2.2.2.2.2.2.2.2.2.2.2.2.2.2.2.2.2.2.2.2.2.2.2.2.2.",
"2.2.2.2.2.2.2.2.2.2.2.2.2.2.2.2.2.2.2.2.2.2.2.2.2.2.2.2.2.2.2.2.2.2.2.2.2.2.2.2.2.2.2.2.2.2.2.2.2.2.2.2.2.2.2.2.2.2.2.2.2.2.2.2.",
"2.2.2.2.2.2.2.2.2.2.2.2.2.2.2.2.2.2.2.2.2.2.2.2.2.2.2.2.2.2.2.2.2.2.2.2.2.2.2.2.2.2.2.2.2.2.2.2.2.2.2.2.2.2.2.2.2.2.2.2.2.2.2.2.",
"2.2.2.2.2.2.2.2.2.2.2.2.2.2.2.2.2.2.2.2.2.2.2.2.2.2.2.2.2.2.2.2.2.2.2.2.2.2.2.2.2.2.2.2.2.2.2.2.2.2.2.2.2.2.2.2.2.2.2.2.2.2.2.2.",
"2.2.2.2.2.2.2.2.2.2.2.2.2.2.2.2.2.2.2.2.2.2.2.2.2.2.2.2.2.2.2.2.2.2.2.2.2.2.2.2.2.2.2.2.2.2.2.2.2.2.2.2.2.2.2.2.2.2.2.2.2.2.2.2.",
"2.2.2.2.2.2.2.2.2.2.2.2.2.2.2.2.2.2.2.2.2.2.2.2.2.2.2.2.2.2.2.2.2.2.2.2.2.2.2.2.2.2.2.2.2.2.2.2.2.2.2.2.2.2.2.2.2.2.2.2.2.2.2.2.",
"2.2.2.2.2.2.2.2.2.2.2.2.2.2.2.2.2.2.2.2.2.2.2.2.2.2.2.2.2.2.2.2.2.2.2.2.2.2.2.2.2.2.2.2.2.2.2.2.2.2.2.2.2.2.2.2.2.2.2.2.2.2.2.2.",
"2.2.2.2.2.2.2.2.2.2.2.2.2.2.2.2.2.2.2.2.2.2.2.2.2.2.2.2.2.2.2.2.2.2.2.2.2.2.2.2.2.2.2.2.2.2.2.2.2.2.2.2.2.2.2.2.2.2.2.2.2.2.2.2."
};
