/* XPM */
static char *_c7b295a2ff54797eaeb8b681a85d3b8rQbYz1Eu0seyjeYZ[] = {
/* columns rows colors chars-per-pixel */
"64 64 13 1 ",
"  c None",
". c black",
"X c gray24",
"o c #C77C36",
"O c #FF3643",
"+ c #FF5962",
"@ c #FFC966",
"# c #4D6DF3",
"$ c #FF7D86",
"% c #FF8F96",
"& c #FFB996",
"* c #FFC996",
"= c white",
/* pixels */
"                                                                ",
"                                                                ",
"                                                                ",
"                                                                ",
"                                                                ",
"                                                                ",
"           ........                          ........           ",
"          .@ooooooo.                        .ooooooo@.          ",
"          .@oooooooo.                      .oooooooo@.          ",
"          .@ooooooooo.                    .ooooooooo@.          ",
"          .@oooo&ooooo.                  .ooooo&oooo@.          ",
"         .@@oooo&&.oooo.                .oooo.&&oooo@@.         ",
"         .@@oooo&&&.oooo.              .oooo.&&&oooo@@.         ",
"         .@@oo***&&&.oooo.            .oooo.&&&***oo@@.         ",
"         .@@oo****&&&.oooo............oooo.&&&****oo@@.         ",
"        .@@@oo****&&&&.oooooooooooooooooo.&&&&****oo@@@.        ",
"        .@@@oo****&&&&&.oooooooooooooooo.&&&&&****oo@@@.        ",
"        .@@@oo****&&&&&&.oooooooooooooo.&&&&&&****oo@@@.        ",
"        .@@@oo****&&&&...oooooooooooooo...&&&&****oo@@@.        ",
"        .@@@oo****&...oooooooooooooooooooo...&****oo@@@.        ",
"        .@@@oo**...oooooooooooooooooooooooooo...**oo@@@.        ",
"        .@@@oo..oooooooooooooooooooooooooooooooo..oo@@@.        ",
"        .@@@oooooooooooooooooooooooooooooooooooooooo@@@.        ",
"        .@@@oooooooooooooooooooooooooooooooooooooooo@@@.        ",
"         .@@@oooooooooooooooooooooooooooooooooooooo@@@.         ",
"         .@@@oooooooooooooooooooooooooooooooooooooo@@@.         ",
"         .@@@oooooooooo..oooooooooooooo..oooooooooo@@@.         ",
"         .@@@oooooo....##oooooooooooooo##....oooooo@@@.         ",
"         .@@ooooo..==###oooooooooooooooo###==..ooooo@@.         ",
"        .@@ooooooooo===ooo............ooo===ooooooooo@@.        ",
"        .@oooooooooooooooo..++.++.++..oooooooooooooooo@.        ",
"        .@ooooooooooooooooo..++++++..ooooooooooooooooo@.        ",
"        .@ooooooooooooooooo...++++...ooooooooooooooooo@.        ",
"        .ooooooooooooooooooo........ooooooooooooooooooo.        ",
"        .oooooooooooooooooooo......oooooooooooooooooooo.        ",
"        .oooooooooooooooooooooo..oooooooooooooooooooooo.        ",
"        .oooooooooooooooooooooo..oooooooooooooooooooooo.        ",
"        .oooooooooooooooooooooo..oooooooooooooooooooooo.        ",
"        .oooooooooooooooooooooo..oooooooooooooooooooooo.        ",
"        .oooooooooo%.oooooooooo..oooooooooo.%oooooooooo.        ",
"         .ooooooooo%%..ooooooo.XX.ooooooo..%%ooooooooo.         ",
"         .oooooooooo%%%..oooo.XXXX.oooo..%%%oooooooooo.         ",
"         .oooooooooooo%%%....XXOOXX....%%%oooooooooooo.         ",
"         .oooooooooooooo%%%%XXOOOOXX%%%%oooooooooooooo.         ",
"          .oooooooooooooo%%%%O$OO$O%%%%oooooooooooooo.          ",
"           .oooooooooooooooooOO$$OOooooooooooooooooo.           ",
"            .ooooooooooooooooOO$$OOoooooooooooooooo.            ",
"             .oooooooooooooooOO$$OOooooooooooooooo.             ",
"             .oooooooooooooooOO$$OOooooooooooooooo.             ",
"              .ooooooooooooooOO$$OOoooooooooooooo.              ",
"               .ooooooooooooooOOOOoooooooooooooo.               ",
"                .ooooooooooooooOOoooooooooooooo.                ",
"                 .oooooooooooooooooooooooooooo.                 ",
"                  .oooooooooooooooooooooooooo.                  ",
"                  .oooooooooooooooooooooooooo.                  ",
"                   .oooooooooooooooooooooooo.                   ",
"                    .oooooooooooooooooooooo.                    ",
"                     ......................                     ",
"                                                                ",
"                                                                ",
"                                                                ",
"                                                                ",
"                                                                ",
"                                                                "
};
