/* XPM */
static char *_f929af5945443cab2fbd0afa8b743c154PZJIKUX96XRAfh[] = {
/* columns rows colors chars-per-pixel */
"64 64 6 1 ",
"  c None",
". c #CF963E",
"X c #ECAB47",
"o c #E0D473",
"O c #FCF188",
"+ c #FDF3A0",
/* pixels */
"                                                                ",
"                                                                ",
"                                                                ",
"                                                                ",
"                                                                ",
"                                                                ",
"                                                                ",
"                                                                ",
"                                                                ",
"                                                                ",
"                                                                ",
"                         OOOOOOOOOOOO                           ",
"                         OOOOOOOOOOOO                           ",
"                      +OOOOOOOOOOOOooooo                        ",
"                  +++++OOOOOOOOOOOOoooooXXXX                    ",
"                  +++++OOOOOOOOOOOOoooooXXXX                    ",
"                 ++++++OOOOOOOOOOOoooXXoooXXX                   ",
"               +++++++OOOOOOOOOOOOoooooXooXXXXX                 ",
"               +++++++OOOOOOOOOOOOoooooXooXXXXX                 ",
"             +++++++++OOOOOOOOOOoooooXXoXXXXXXXXX               ",
"             +++++++++OOOOOOOOOOoooooXXoXXXXXXXXX               ",
"             +++++OOOOOOOOOOOOoooooooooXooXXXXXXX               ",
"            OOOOOOOOOOOOOOOOOOoooooooXXoXXXXXXXXX.              ",
"            OOOOOOOOOOOOOOOOOOoooooooXXoXXXXXXXXX.              ",
"            OOOOOOOOOOOOOOOOooooXXoXXooXXXXXXXXXX.              ",
"          OOOOOOOOOOOOOOOoooooXXooXooXXXXXXXXXXXX...            ",
"          OOOOOOOOOOOOOOOoooooXXooXooXXXXXXXXXXXX...            ",
"          OOOOOOOOOOOOOoooooXXooXXoXXXXXXXXXXXX.....            ",
"          OOOOOOOOOOOOOoooooXXooXXoXXXXXXXXXXXX.....            ",
"          OOOOOOOOOOOOooooooooooooXXXXXXXXXXXXX.....            ",
"          OOOOOOOOOOooooooooXXooXXoXXXXXXXXXX.......            ",
"          OOOOOOOOOOooooooooXXooXXoXXXXXXXXXX.......            ",
"          OOOOOOOooooooooooXooXXooXXXXXXXXXXX.......            ",
"          OOOOOooooooooooXXoXXXXXXXXXXXXXXXX........            ",
"          OOOOOooooooooooXXoXXXXXXXXXXXXXXXX........            ",
"          OOOooooooooooXXooXXXXXXXXXXXXXXXXX........            ",
"          OOOooooooooooXXooXXXXXXXXXXXXXXXXX........            ",
"            OoooooXXooXooXXXXXXXXXXXXXXXXX........              ",
"            oooooXooXXoXXXXXXXXXXXXXXXXX..........              ",
"            oooooXooXXoXXXXXXXXXXXXXXXXX..........              ",
"             oooooXXooXXXXXXXXXXXXXXXXX..........               ",
"             ooooXooXXXXXXXXXXXXXXXXX............               ",
"             ooooXooXXXXXXXXXXXXXXXXX............               ",
"               oooXXXXXXXXXXXXXXXX.............                 ",
"               oooXXXXXXXXXXXXXXXX.............                 ",
"                 XXXXXXXXXXXXX...............                   ",
"                  XXXXXXX...................                    ",
"                  XXXXXXX...................                    ",
"                      X.................                        ",
"                         ............                           ",
"                         ............                           ",
"                                                                ",
"                                                                ",
"                                                                ",
"                                                                ",
"                                                                ",
"                                                                ",
"                                                                ",
"                                                                ",
"                                                                ",
"                                                                ",
"                                                                ",
"                                                                ",
"                                                                "
};
